<svg xmlns="http://www.w3.org/2000/svg" height="64" width="64" viewBox="0 0 64 64"><title>alarm disable</title><g fill="#212121" class="nc-icon-wrapper"><path d="M31.006,61.926A6.991,6.991,0,0,0,38.92,56H25.08A6.99,6.99,0,0,0,31.006,61.926Z" fill="#212121"></path><path d="M52,36V22a19.893,19.893,0,0,0-.679-5.079L14.242,54H58a1,1,0,0,0,.79-1.614C58.722,52.3,52,43.557,52,36Z" fill="#212121"></path><path d="M5.788,53.97,48.713,11.045A19.987,19.987,0,0,0,12,22V36c0,7.557-6.722,16.3-6.79,16.386a.993.993,0,0,0,.578,1.584Z" fill="#212121"></path><path data-color="color-2" d="M59.293,3.293l-56,56a1,1,0,1,0,1.414,1.414l56-56a1,1,0,0,0-1.414-1.414Z"></path></g></svg>