<svg xmlns="http://www.w3.org/2000/svg" height="64" width="64" viewBox="0 0 64 64"><title>armchair</title><g fill="#212121" class="nc-icon-wrapper"><rect data-color="color-2" x="19" y="35" width="26" height="8"></rect><path data-color="color-2" d="M48,3H16a6,6,0,0,0-6,6V22a9,9,0,0,1,9,9v2H45V31a9,9,0,0,1,9-9V9A6,6,0,0,0,48,3ZM20,17h2V15a1,1,0,0,1,2,0v2h2a1,1,0,0,1,0,2H24v2a1,1,0,0,1-2,0V19H20a1,1,0,0,1,0-2Zm24,2H42v2a1,1,0,0,1-2,0V19H38a1,1,0,0,1,0-2h2V15a1,1,0,0,1,2,0v2h2a1,1,0,0,1,0,2Z"></path><path d="M54,24a7,7,0,0,0-7,7V45H17V31A7,7,0,1,0,6,36.74V50a6,6,0,0,0,5,5.91V61h3l1.429-5H48.571L50,61h3V55.91A6,6,0,0,0,58,50V36.74A7,7,0,0,0,54,24ZM8,31a2,2,0,1,1,2,2A2,2,0,0,1,8,31Zm46,2a2,2,0,1,1,2-2A2,2,0,0,1,54,33Z" fill="#212121"></path></g></svg>