<svg xmlns="http://www.w3.org/2000/svg" height="64" width="64" viewBox="0 0 64 64"><title>augmented reality</title><g fill="#212121" class="nc-icon-wrapper"><path d="M44.447,8.105l-12-6a1,1,0,0,0-.894,0l-12,6A1,1,0,0,0,19,9V23a1,1,0,0,0,.553.895L31,29.618V43a1,1,0,0,0,2,0V29.618L44.447,23.9A1,1,0,0,0,45,23V9A1,1,0,0,0,44.447,8.105ZM32,13.882,22.236,9,32,4.118,41.764,9Z" data-color="color-2"></path><rect x="4.04" y="55" width="55.96" height="7" rx="3.5" fill="#212121"></rect><path d="M47.843,38.462A1,1,0,0,0,47,38H35v2H46.452L52.2,49H11.8l5.752-9H29V38H17a1,1,0,0,0-.843.462L6.833,53.051A5.5,5.5,0,0,1,7.54,53H56.5a5.575,5.575,0,0,1,.662.044Z" fill="#212121"></path></g></svg>