<svg xmlns="http://www.w3.org/2000/svg" height="64" width="64" viewBox="0 0 64 64"><title>automated logistics</title><g fill="#212121" class="nc-icon-wrapper"><path d="M58.614,21.211,51,15.289V2a1,1,0,0,0-1-1H48a1,1,0,0,0-1,1V15.289l-7.614,5.922A1,1,0,0,0,39,22v7a1,1,0,0,0,2,0V22.489l8-6.222,8,6.222V29a1,1,0,0,0,2,0V22A1,1,0,0,0,58.614,21.211Z" data-color="color-2"></path><path d="M59,54H5a4,4,0,0,0,0,8H59a4,4,0,0,0,0-8ZM5,60a2,2,0,1,1,2-2A2,2,0,0,1,5,60Zm18,0a2,2,0,1,1,2-2A2,2,0,0,1,23,60Zm18,0a2,2,0,1,1,2-2A2,2,0,0,1,41,60Zm18,0a2,2,0,1,1,2-2A2,2,0,0,1,59,60Z" fill="#212121"></path><path d="M32,26H6a1,1,0,0,0-1,1V51a1,1,0,0,0,1,1H32a1,1,0,0,0,1-1V27A1,1,0,0,0,32,26Zm-9,8H15a1,1,0,0,1,0-2h8a1,1,0,0,1,0,2Z" fill="#212121"></path><path d="M58,34H40a1,1,0,0,0-1,1V51a1,1,0,0,0,1,1H58a1,1,0,0,0,1-1V35A1,1,0,0,0,58,34Zm-6,6H46a1,1,0,0,1,0-2h6a1,1,0,0,1,0,2Z" fill="#212121"></path></g></svg>