<svg xmlns="http://www.w3.org/2000/svg" height="64" width="64" viewBox="0 0 64 64"><title>bicep</title><g fill="#212121" class="nc-icon-wrapper"><path d="M52.775,32.735c-8.844-4.669-22.55.275-27.8,5.06-.339-.542-.761-1.152-1.235-1.837-1.52-2.2-3.412-4.934-3.986-7.476a54.755,54.755,0,0,1-.672-8.436,8.425,8.425,0,0,0,2.3-.016c.034-.006.069-.012.1-.02C22.719,19.7,26.5,17.974,27.672,16a4.214,4.214,0,0,0-.222-5,10.323,10.323,0,0,0,.75-4.275,3.913,3.913,0,0,0-1.293-2.917C24.957,2.215,21.348,2,18.074,2,10.813,2,6.39,20.582,4.824,28.571c-2.637,13.47,1.678,26.237,4.1,28.72,3.326,3.408,10.918,3.517,14.733,3.077C25.982,61.411,30.418,62,35.846,62q.98,0,2-.025c8.376-.21,15.2-3.04,17.738-4.892A13.318,13.318,0,0,0,61,45.935C60.856,40.775,57.965,36.1,52.775,32.735Zm-2.487,13.3a24.869,24.869,0,0,1-12.849,3.52,26.937,26.937,0,0,1-6.356-.769,1,1,0,0,1,.471-1.943,23.449,23.449,0,0,0,17.705-2.523,1,1,0,0,1,1.029,1.715Z" fill="#212121"></path></g></svg>