<svg xmlns="http://www.w3.org/2000/svg" height="64" width="64" viewBox="0 0 64 64"><title>blueprint</title><g fill="#212121" class="nc-icon-wrapper"><path d="M54,42a9,9,0,0,1,8,4.9V13a9,9,0,0,0-9-9h0a1,1,0,0,0-1,1V41a1,1,0,0,0,1,1Z" data-color="color-2"></path><path d="M60.941,50.078A7.166,7.166,0,0,0,53.755,44H53a3,3,0,0,1-3-3V12H3a1,1,0,0,0-1,1V57a1,1,0,0,0,1,1H54A7.009,7.009,0,0,0,60.941,50.078ZM44,50a1,1,0,0,1-1,1H19a1,1,0,0,1-1-1V44a1,1,0,0,1,2,0v5H42V21H28V34a1,1,0,0,1-1,1H19a1,1,0,0,1,0-2h7V21H10V50a1,1,0,0,1-2,0V20a1,1,0,0,1,1-1H43a1,1,0,0,1,1,1Z" fill="#212121"></path></g></svg>