<svg xmlns="http://www.w3.org/2000/svg" height="64" width="64" viewBox="0 0 64 64"><title>bouquet</title><g fill="#212121" class="nc-icon-wrapper"><path d="M37.118,52H26.882l-4.777,9.553A1,1,0,0,0,23,63H41a1,1,0,0,0,.9-1.447Z" fill="#212121"></path><path d="M6.619,27.952l.737-.743a4.194,4.194,0,0,1,5.831,0,6.121,6.121,0,0,0,8.657,0,4.2,4.2,0,0,1,5.828,0,6.127,6.127,0,0,0,8.656,0A4.1,4.1,0,0,1,39.242,26h0a4.091,4.091,0,0,1,2.914,1.207,6.132,6.132,0,0,0,8.656,0,4.2,4.2,0,0,1,5.829,0l.739.745.708-.779a1,1,0,0,0-.033-1.38,6.121,6.121,0,0,0-8.657,0,4.128,4.128,0,0,1-5.829,0,6.127,6.127,0,0,0-8.656,0,4.125,4.125,0,0,1-5.828,0,6.127,6.127,0,0,0-8.657,0,4.121,4.121,0,0,1-5.828,0,6.121,6.121,0,0,0-8.657,0,1,1,0,0,0-.033,1.38Z" fill="#212121"></path><path d="M55.226,28.619a2.279,2.279,0,0,0-3,0,8.136,8.136,0,0,1-11.486,0,2.175,2.175,0,0,0-3,0,8.126,8.126,0,0,1-11.484,0,2.287,2.287,0,0,0-3,0,8.121,8.121,0,0,1-11.487,0,2.277,2.277,0,0,0-3,0l-.807.813L26.649,50H31V45a1,1,0,0,1,2,0v5h4.351L56.035,29.434Z" fill="#212121"></path><path d="M20,10V6.019A9.983,9.983,0,0,0,16,14a1,1,0,0,1-2,0,11.92,11.92,0,0,1,2.29-7.023A14.51,14.51,0,0,0,8,4,1,1,0,0,0,7,5v8a9.991,9.991,0,0,0,17.629,6.45A11.974,11.974,0,0,1,20,10Z" data-color="color-2"></path><path d="M44,10V6.019A9.983,9.983,0,0,1,48,14a1,1,0,0,0,2,0,11.92,11.92,0,0,0-2.29-7.023A14.51,14.51,0,0,1,56,4a1,1,0,0,1,1,1v8a9.991,9.991,0,0,1-17.629,6.45A11.974,11.974,0,0,0,44,10Z" data-color="color-2"></path><path d="M41,1a14.51,14.51,0,0,0-8.29,2.977A11.92,11.92,0,0,1,35,11a1,1,0,0,1-2,0A10.011,10.011,0,0,0,23,1a1,1,0,0,0-1,1v8a10.013,10.013,0,0,0,9,9.949V23a1,1,0,0,0,2,0V19.949A10.013,10.013,0,0,0,42,10V2A1,1,0,0,0,41,1Z" data-color="color-2"></path></g></svg>