<svg xmlns="http://www.w3.org/2000/svg" height="64" width="64" viewBox="0 0 64 64"><title>camera 2</title><g fill="#212121" class="nc-icon-wrapper"><path data-color="color-2" d="M13,14H8a6.006,6.006,0,0,0-6,6V52a6.006,6.006,0,0,0,6,6h5Z"></path><path d="M56,14H48.618L43.9,4.553A1,1,0,0,0,43,4H29a1,1,0,0,0-.895.553L23.382,14H15V58H56a6.006,6.006,0,0,0,6-6V20A6.006,6.006,0,0,0,56,14ZM36,51A15,15,0,1,1,51,36,15,15,0,0,1,36,51Z" fill="#212121"></path><path d="M25,37a1,1,0,0,1-1-1A12.013,12.013,0,0,1,36,24a1,1,0,0,1,0,2A10.011,10.011,0,0,0,26,36,1,1,0,0,1,25,37Z" fill="#212121"></path></g></svg>