<svg xmlns="http://www.w3.org/2000/svg" height="64" width="64" viewBox="0 0 64 64"><title>car front</title><g fill="#212121" class="nc-icon-wrapper"><path data-color="color-2" d="M17,52H5v6a1,1,0,0,0,1,1H16a1,1,0,0,0,1-1Z"></path><path data-color="color-2" d="M47,52H59v6a1,1,0,0,1-1,1H48a1,1,0,0,1-1-1Z"></path><path d="M61.242,31.828,57.918,28.5,53.808,8.776A6.026,6.026,0,0,0,47.934,4H16.066a6.026,6.026,0,0,0-5.874,4.776L6.082,28.5,2.758,31.827A5.958,5.958,0,0,0,1,36.065V49a1,1,0,0,0,1,1H62a1,1,0,0,0,1-1V36.07A5.962,5.962,0,0,0,61.242,31.828ZM12.15,9.185A4.017,4.017,0,0,1,16.066,6H47.934A4.016,4.016,0,0,1,51.85,9.185L55.77,28H34.245l7.5-8.331a1,1,0,0,0-1.486-1.338L31.555,28H8.23ZM11,44a4,4,0,1,1,4-4A4,4,0,0,1,11,44Zm28-3H25a1,1,0,0,1,0-2H39a1,1,0,0,1,0,2Zm14,3a4,4,0,1,1,4-4A4,4,0,0,1,53,44Z" fill="#212121"></path></g></svg>