<svg xmlns="http://www.w3.org/2000/svg" height="64" width="64" viewBox="0 0 64 64"><title>check all</title><g fill="#212121" class="nc-icon-wrapper"><path d="M15.691,50.5,2,36l4-4,11,9L47,8l4,2L21.834,50.1A4,4,0,0,1,15.691,50.5Z" data-color="color-2"></path> <path d="M61,22H53a1,1,0,0,1,0-2h8a1,1,0,0,1,0,2Z" fill="#212121"></path> <path d="M61,32H46a1,1,0,0,1,0-2H61a1,1,0,0,1,0,2Z" fill="#212121"></path> <path d="M61,42H39a1,1,0,0,1,0-2H61a1,1,0,0,1,0,2Z" fill="#212121"></path> <path d="M61,52H32a1,1,0,0,1,0-2H61a1,1,0,0,1,0,2Z" fill="#212121"></path></g></svg>