<svg xmlns="http://www.w3.org/2000/svg" height="64" width="64" viewBox="0 0 64 64"><title>chemistry</title><g fill="#212121" class="nc-icon-wrapper"><path d="M47.914,62H16.084a6,6,0,0,1-5.069-9.21L25,30.71V13h2V31.29L12.7,53.86A4,4,0,0,0,16.084,60h31.83a4,4,0,0,0,3.379-6.141L37,31.29V13h2V30.71L52.982,52.789A6,6,0,0,1,47.914,62Z" fill="#212121"></path><rect data-color="color-2" x="17" y="2" width="30" height="9" rx="1"></rect><path d="M49.6,54.93,41.414,42H22.582L14.4,54.93A2,2,0,0,0,16.084,58h31.83a2,2,0,0,0,1.69-3.07ZM28,52a3,3,0,1,1,3-3A3,3,0,0,1,28,52Zm10.5,1A1.5,1.5,0,1,1,40,51.5,1.5,1.5,0,0,1,38.5,53Z" fill="#212121"></path><circle cx="33" cy="37" r="2" fill="#212121"></circle></g></svg>