<svg xmlns="http://www.w3.org/2000/svg" height="64" width="64" viewBox="0 0 64 64"><title>contactless card</title><g fill="#212121" class="nc-icon-wrapper"><path d="M60,9H4a3,3,0,0,0-3,3V52a3,3,0,0,0,3,3H60a3,3,0,0,0,3-3V12A3,3,0,0,0,60,9Zm-9.822,8.943a1,1,0,0,1,1.668-1.1,12.977,12.977,0,0,1,0,14.32,1,1,0,0,1-1.668-1.1,10.979,10.979,0,0,0,0-12.114ZM46.93,20.3a1,1,0,1,1,1.7-1.063,8.954,8.954,0,0,1,0,9.536,1,1,0,0,1-.849.468.99.99,0,0,1-.53-.152,1,1,0,0,1-.316-1.379,6.949,6.949,0,0,0,0-7.41Zm-3.289,2.32a1,1,0,0,1,1.769-.933,4.848,4.848,0,0,1,0,4.636,1,1,0,1,1-1.769-.933,2.851,2.851,0,0,0,0-2.77ZM9,18a1,1,0,0,1,1-1H20a1,1,0,0,1,1,1v7a1,1,0,0,1-1,1H10a1,1,0,0,1-1-1ZM36,45H10a1,1,0,0,1,0-2H36a1,1,0,0,1,0,2Zm4.5-19.5A1.5,1.5,0,1,1,42,24,1.5,1.5,0,0,1,40.5,25.5ZM54,45H44a1,1,0,0,1,0-2H54a1,1,0,0,1,0,2Z" fill="#212121"></path></g></svg>