<svg xmlns="http://www.w3.org/2000/svg" height="64" width="64" viewBox="0 0 64 64"><title>coughing</title><g fill="#212121" class="nc-icon-wrapper"><path d="M52.5,42.167a1,1,0,0,1-.316-.052l-6.5-2.167a1,1,0,1,1,.632-1.9l6.5,2.167a1,1,0,0,1-.316,1.948Z" data-color="color-2"></path><circle cx="61" cy="44" r="2" data-color="color-2"></circle><circle cx="44" cy="61" r="2" data-color="color-2"></circle><path d="M41.167,53.5a1,1,0,0,1-.948-.684l-2.167-6.5a1,1,0,1,1,1.9-.632l2.167,6.5a1,1,0,0,1-.948,1.316Z" data-color="color-2"></path><circle cx="55" cy="55" r="2" data-color="color-2"></circle><path d="M50,51a1,1,0,0,1-.707-.293l-4-4a1,1,0,0,1,1.414-1.414l4,4A1,1,0,0,1,50,51Z" data-color="color-2"></path><path d="M45.146,10.548a38.965,38.965,0,0,0,3.51-7.2L49.146,2H4A2,2,0,0,0,2,4V60a2,2,0,0,0,2,2H14.237L9.815,59.79a5,5,0,0,1-2.237-6.709l2.869-5.739L17.5,50.87A10,10,0,0,0,30.92,46.4l1.526-3.225a2,2,0,0,0-.29-2.157L27,35H37a2,2,0,0,0,2-2V30l7.786-.779a2,2,0,0,0,1.759-2.4Z" fill="#212121"></path></g></svg>