<svg xmlns="http://www.w3.org/2000/svg" height="64" width="64" viewBox="0 0 64 64"><title>data settings</title><g fill="#212121" class="nc-icon-wrapper"><path d="M33,50A17,17,0,0,1,58,35V1A1,1,0,0,0,56.293.293l-56,56A1,1,0,0,0,1,58H35A16.926,16.926,0,0,1,33,50Z" fill="#212121"></path><path data-color="color-2" d="M59.511,41.951l-3.954.99a8.958,8.958,0,0,0-2.246-1.3l-1.119-3.918A1,1,0,0,0,51.231,37H48.739a1,1,0,0,0-.961.725l-1.12,3.918a8.969,8.969,0,0,0-2.245,1.3l-3.955-.99a1,1,0,0,0-1.109.47L38.1,44.579a1,1,0,0,0,.147,1.2l2.837,2.933a8.167,8.167,0,0,0,0,2.586l-2.837,2.933a1,1,0,0,0-.147,1.2l1.245,2.158a1,1,0,0,0,1.109.47l3.955-.99a8.969,8.969,0,0,0,2.245,1.3l1.12,3.918a1,1,0,0,0,.961.725h2.492a1,1,0,0,0,.961-.725l1.119-3.918a8.958,8.958,0,0,0,2.246-1.3l3.954.99a1,1,0,0,0,1.109-.47l1.246-2.158a1,1,0,0,0-.147-1.2l-2.838-2.933a8.09,8.09,0,0,0,0-2.586l2.838-2.933a1,1,0,0,0,.147-1.2L60.62,42.421A1,1,0,0,0,59.511,41.951ZM49.985,53a3,3,0,1,1,3-3A3,3,0,0,1,49.985,53Z"></path></g></svg>