<svg xmlns="http://www.w3.org/2000/svg" height="64" width="64" viewBox="0 0 64 64"><title>dog leash</title><g fill="#212121" class="nc-icon-wrapper"><path d="M40.387,21.812l-.194.317A6.038,6.038,0,0,1,35.074,25H13a10.026,10.026,0,0,1-9.895-8.636,1,1,0,0,0-1.982,0A11.892,11.892,0,0,0,9.792,29.552,7.943,7.943,0,0,0,9,33V58.41A2.593,2.593,0,0,0,11.59,61h.046A2.574,2.574,0,0,0,14.2,58.8L15.95,47.4l5.461-7.28,20.684,4.7,1.739,13.912A2.593,2.593,0,0,0,49,58.41V44.1l3.394-16.289Z" fill="#212121"></path><path d="M62.263,14.035,51.828,11.189,50.97,7.758a1,1,0,0,0-1.824-.279L41.434,20.1,52.816,25.79l1-4.79H57a6.006,6.006,0,0,0,6-6A1,1,0,0,0,62.263,14.035Z" fill="#212121"></path><path d="M35,21A17.019,17.019,0,0,1,18,4a1,1,0,0,1,2,0A15.017,15.017,0,0,0,35,19a1,1,0,0,1,0,2Z" data-color="color-2"></path></g></svg>