<svg xmlns="http://www.w3.org/2000/svg" height="64" width="64" viewBox="0 0 64 64"><title>drums</title><g fill="#212121" class="nc-icon-wrapper"><path d="M47.047,12.831,44.229,14.24C52.912,16.093,59,19.817,59,24c0,5.963-12.364,11-27,11S5,29.963,5,24c0-4.183,6.088-7.907,14.772-9.76l-2.819-1.409C8.53,15.081,3,19.2,3,24c0,7.29,12.738,13,29,13s29-5.71,29-13C61,19.2,55.47,15.081,47.047,12.831Z" fill="#212121"></path><path d="M46.447,23.105l-9.974-4.987-2.237,1.118L45.553,24.9a1,1,0,1,0,.894-1.79Z" data-color="color-2"></path><path d="M58.9,3.553a1,1,0,0,0-1.342-.448L32,15.882,6.447,3.105a1,1,0,0,0-.894,1.79L29.764,17,17.553,23.105a1,1,0,0,0,.894,1.79l40-20A1,1,0,0,0,58.9,3.553Z" data-color="color-2"></path><path d="M54,35.919V54.28q-.93.532-2,1.02V36.758a48.653,48.653,0,0,1-11,2.669V58.344q-.984.147-2,.262V39.66c-2.235.222-4.572.34-7,.34s-4.765-.118-7-.34V58.606q-1.015-.115-2-.262V39.427a48.653,48.653,0,0,1-11-2.669V55.3q-1.072-.486-2-1.02V35.919a21.716,21.716,0,0,1-7-4.8V48c0,7.29,12.738,13,29,13s29-5.71,29-13V31.118A21.716,21.716,0,0,1,54,35.919Z" fill="#212121"></path></g></svg>