<svg xmlns="http://www.w3.org/2000/svg" height="64" width="64" viewBox="0 0 64 64"><title>edit levels</title><g fill="#212121" class="nc-icon-wrapper"><path d="M51,59V55.481a1,1,0,0,1,.375-.781L56,51l4.625,3.7a1,1,0,0,1,.375.781V59a1,1,0,0,1-1,1H52A1,1,0,0,1,51,59Z" fill="#212121"></path><path d="M27,59V55.481a1,1,0,0,1,.375-.781L32,51l4.625,3.7a1,1,0,0,1,.375.781V59a1,1,0,0,1-1,1H28A1,1,0,0,1,27,59Z" fill="#212121"></path><path d="M3,59V55.481a1,1,0,0,1,.375-.781L8,51l4.625,3.7a1,1,0,0,1,.375.781V59a1,1,0,0,1-1,1H4A1,1,0,0,1,3,59Z" fill="#212121"></path><path d="M4,46a1,1,0,0,1-1-1V21a1,1,0,0,1,2,0V45A1,1,0,0,1,4,46Z" data-color="color-2"></path><path d="M28,46a1,1,0,0,1-1-1V23a1,1,0,0,1,2,0V45A1,1,0,0,1,28,46Z" fill="#212121"></path><path d="M52,46a1,1,0,0,1-1-1V11a1,1,0,0,1,2,0V45A1,1,0,0,1,52,46Z" data-color="color-2"></path><path d="M60,46a1,1,0,0,1-1-1V5a1,1,0,0,1,2,0V45A1,1,0,0,1,60,46Z" fill="#212121"></path><path d="M12,46a1,1,0,0,1-1-1V5a1,1,0,0,1,2,0V45A1,1,0,0,1,12,46Z" fill="#212121"></path><path d="M20,46a1,1,0,0,1-1-1V34a1,1,0,0,1,2,0V45A1,1,0,0,1,20,46Z" data-color="color-2"></path><path d="M36,46a1,1,0,0,1-1-1V5a1,1,0,0,1,2,0V45A1,1,0,0,1,36,46Z" data-color="color-2"></path><path d="M44,46a1,1,0,0,1-1-1V23a1,1,0,0,1,2,0V45A1,1,0,0,1,44,46Z" fill="#212121"></path></g></svg>