<svg xmlns="http://www.w3.org/2000/svg" height="64" width="64" viewBox="0 0 64 64"><title>eject</title><g fill="#212121" class="nc-icon-wrapper"><path d="M56,4H8a5.937,5.937,0,0,0-6,6V46a5.937,5.937,0,0,0,6,6h4a1,1,0,0,0,0-2H8a3.957,3.957,0,0,1-4-4V10A3.957,3.957,0,0,1,8,6H56a3.957,3.957,0,0,1,4,4V46a3.957,3.957,0,0,1-4,4H52a1,1,0,0,0,0,2h4a5.937,5.937,0,0,0,6-6V10A5.937,5.937,0,0,0,56,4Z" fill="#212121"></path><path data-color="color-2" d="M32.819,38.427a1.036,1.036,0,0,0-1.638,0l-14,20A1,1,0,0,0,18,60H46a1,1,0,0,0,.819-1.573Z"></path></g></svg>