<svg xmlns="http://www.w3.org/2000/svg" height="64" width="64" viewBox="0 0 64 64"><title>embryo</title><g fill="#212121" class="nc-icon-wrapper"><path d="M61,15A14,14,0,1,0,39.816,27H33a6,6,0,0,1-6-6,3,3,0,0,0-6,0,12.92,12.92,0,0,0,8.282,12.1,1.5,1.5,0,0,1-.545,2.9,1.475,1.475,0,0,1-.545-.1A15.9,15.9,0,0,1,18,21,19.048,19.048,0,0,0,2.8,2.417a1.5,1.5,0,1,0-.6,2.939A16.037,16.037,0,0,1,15,21a18.958,18.958,0,0,0,7.593,15.158s-7.822-1.925-7.828-1.925A6.986,6.986,0,0,0,7.008,44.6l6.763,11.325L12.7,57.42a3.485,3.485,0,0,0,4.833,4.913l0,.013,2.79-2.018A3.975,3.975,0,0,0,21.452,57l.014,0-.932-6.252A20.481,20.481,0,0,0,52.408,27.915,14,14,0,0,0,61,15Zm-19.753.771a4,4,0,0,1-5.1-2.438,1,1,0,0,1,1.885-.666,2,2,0,0,0,2.552,1.218,1,1,0,0,1,.666,1.886Z" fill="#212121"></path></g></svg>