<svg xmlns="http://www.w3.org/2000/svg" height="64" width="64" viewBox="0 0 64 64"><title>home 3</title><g fill="#212121" class="nc-icon-wrapper"><path d="M32,7.842,9,26.242V58a3,3,0,0,0,3,3H25V45a1,1,0,0,1,1-1H38a1,1,0,0,1,1,1V61H52a3,3,0,0,0,3-3V26.242ZM37,34a1,1,0,0,1-1,1H28a1,1,0,0,1-1-1V26a1,1,0,0,1,1-1h8a1,1,0,0,1,1,1Z" fill="#212121"></path><path data-color="color-2" d="M62.625,27.219l-30-24a1,1,0,0,0-1.25,0L17,14.719V8a1,1,0,0,0-1-1H12a1,1,0,0,0-1,1V19.519l-9.625,7.7a1,1,0,0,0,1.25,1.562L32,5.281l29.375,23.5a1,1,0,1,0,1.25-1.562Z"></path></g></svg>