<svg xmlns="http://www.w3.org/2000/svg" height="64" width="64" viewBox="0 0 64 64"><title>incognito</title><g fill="#212121" class="nc-icon-wrapper"><path d="M62.633,31.226,52.579,23H11.421L1.367,31.226A1,1,0,0,0,2,33H62a1,1,0,0,0,.633-1.774Z" fill="#212121"></path><path d="M47.5,39a11.493,11.493,0,0,0-9.8,5.513c-.037-.021-.077-.038-.115-.059s-.057-.029-.085-.044c-.258-.141-.52-.274-.787-.394l-.056-.023c-.278-.123-.558-.237-.844-.337-.02-.008-.041-.013-.061-.019-.284-.1-.571-.189-.863-.264-.043-.012-.088-.019-.132-.029-.269-.067-.539-.129-.813-.176-.106-.019-.215-.027-.323-.043-.212-.03-.425-.064-.64-.082C32.656,43.015,32.328,43,32,43s-.656.015-.981.043c-.215.018-.428.052-.64.082-.108.016-.217.024-.323.043-.274.047-.544.109-.813.176-.044.01-.089.017-.132.029-.292.075-.579.165-.863.264-.02.006-.041.011-.061.019-.286.1-.566.214-.844.337l-.056.023c-.267.12-.529.253-.787.394-.028.015-.057.028-.085.044s-.078.038-.115.059a11.453,11.453,0,1,0,1.233,2.767c.1-.063.2-.129.306-.188.161-.09.325-.173.492-.253.041-.02.081-.043.122-.062a8.485,8.485,0,0,1,7.094,0c.041.019.081.042.122.062.167.08.331.163.492.253.1.059.2.125.306.188A11.5,11.5,0,1,0,47.5,39Zm-31,20A8.5,8.5,0,1,1,25,50.5,8.51,8.51,0,0,1,16.5,59Zm31,0A8.5,8.5,0,1,1,56,50.5,8.51,8.51,0,0,1,47.5,59Z" data-color="color-2"></path><path d="M25,21H51.444L46.813,5.563A4.969,4.969,0,0,0,42.023,2H21.977a4.969,4.969,0,0,0-4.79,3.563L12.556,21H21V16a1,1,0,0,1,1-1h2a1,1,0,0,1,1,1Z" fill="#212121"></path></g></svg>