<svg xmlns="http://www.w3.org/2000/svg" height="64" width="64" viewBox="0 0 64 64"><title>kiss</title><g fill="#212121" class="nc-icon-wrapper"><path d="M45,54.062A7.23,7.23,0,0,1,45,44.1a6.789,6.789,0,0,1,9-.725A6.79,6.79,0,0,1,58.1,42a6.886,6.886,0,0,1,1.088.095A29.061,29.061,0,1,0,47.405,56.553ZM20,32a6.006,6.006,0,0,1-6-6,1,1,0,0,1,2,0,4,4,0,0,0,8,0,1,1,0,0,1,2,0A6.006,6.006,0,0,1,20,32ZM39,46.25A4.756,4.756,0,0,1,34.25,51H32a1,1,0,0,1,0-2h2.25A2.752,2.752,0,0,0,37,46.25a2.719,2.719,0,0,0-.564-1.647,1,1,0,0,1,0-1.206A2.719,2.719,0,0,0,37,41.75,2.752,2.752,0,0,0,34.25,39H32a1,1,0,0,1,0-2h2.25A4.756,4.756,0,0,1,39,41.75,4.657,4.657,0,0,1,38.422,44,4.657,4.657,0,0,1,39,46.25ZM38,26a1,1,0,0,1,2,0,4,4,0,0,0,8,0,1,1,0,0,1,2,0,6,6,0,0,1-12,0Z" fill="#212121"></path> <path data-color="color-2" d="M61.562,45.488A4.809,4.809,0,0,0,54,46.273a4.809,4.809,0,0,0-7.562-.785,5.207,5.207,0,0,0,0,7.185L54,60.5l7.563-7.827A5.207,5.207,0,0,0,61.562,45.488Z"></path></g></svg>