<svg xmlns="http://www.w3.org/2000/svg" height="64" width="64" viewBox="0 0 64 64"><title>news</title><g fill="#212121" class="nc-icon-wrapper"><path d="M59,3H17a2,2,0,0,0-2,2V54A5,5,0,1,1,5,54V37h6a1,1,0,0,0,0-2H4a1,1,0,0,0-1,1V54a7.034,7.034,0,0,0,7,7H54a7.035,7.035,0,0,0,7-7V5A2,2,0,0,0,59,3ZM52,51H24a1,1,0,0,1,0-2H52a1,1,0,0,1,0,2Zm0-8H24a1,1,0,0,1,0-2H52a1,1,0,0,1,0,2Zm0-8H24a1,1,0,0,1,0-2H52a1,1,0,0,1,0,2Zm1-9a1,1,0,0,1-1,1H24a1,1,0,0,1-1-1V13a1,1,0,0,1,1-1H52a1,1,0,0,1,1,1Z" fill="#212121"></path></g></svg>