<svg xmlns="http://www.w3.org/2000/svg" height="64" width="64" viewBox="0 0 64 64"><title>penguin</title><g fill="#212121" class="nc-icon-wrapper"><path data-color="color-2" d="M36,24a3,3,0,1,1,3-3A3,3,0,0,1,36,24Zm0-4a1,1,0,1,0,1,1A1,1,0,0,0,36,20Z"></path> <circle data-color="color-2" cx="36" cy="21" r="3"></circle> <path d="M60.555,25.168l-8.636-5.757A19.991,19.991,0,0,0,12,21V45c0,7.521-7.67,16.249-7.748,16.336A1,1,0,0,0,5,63H31V56A19.021,19.021,0,0,1,50,37h2V32.535l8.555-5.7a1,1,0,0,0,0-1.664ZM36,30a9,9,0,1,1,9-9A9,9,0,0,1,36,30Z" fill="#212121"></path> <path data-color="color-2" d="M33,56v6.949A20.007,20.007,0,0,0,52,43V39H50A17.019,17.019,0,0,0,33,56Z"></path></g></svg>