<svg xmlns="http://www.w3.org/2000/svg" height="64" width="64" viewBox="0 0 64 64"><title>popcorn</title><g fill="#212121" class="nc-icon-wrapper"><path d="M52.475,17A8.991,8.991,0,0,0,39.087,6.463a8.983,8.983,0,0,0-14.174,0A8.984,8.984,0,0,0,11.525,17Z" data-color="color-2"></path> <polygon points="23.002 61 31 61 31 19 20.002 19 23.002 61" fill="#212121"></polygon> <polygon points="43.998 19 33 19 33 61 40.998 61 43.998 19" fill="#212121"></polygon> <path d="M18,19H9a1,1,0,0,0-.989,1.148l6,40A1,1,0,0,0,15,61h6Z" fill="#212121"></path> <path d="M55.758,19.348A1,1,0,0,0,55,19H46L43,61h6a1,1,0,0,0,.989-.852l6-40A1,1,0,0,0,55.758,19.348Z" fill="#212121"></path></g></svg>