<svg xmlns="http://www.w3.org/2000/svg" height="64" width="64" viewBox="0 0 64 64"><title>privacy policy</title><g fill="#212121" class="nc-icon-wrapper"><circle cx="11.5" cy="14.5" r="6.5" fill="#212121"></circle> <circle cx="52.5" cy="14.5" r="6.5" data-color="color-2"></circle> <path d="M30.642,39.288a25.246,25.246,0,0,1-8.748-7.857C19.146,27.777,16.305,24,10,24a9.01,9.01,0,0,0-9,9V56a1,1,0,0,0,1,1H18a1,1,0,0,0,1-1V37.225a39.746,39.746,0,0,0,9.251,6.429A2.644,2.644,0,0,0,29.5,44a2.493,2.493,0,0,0,1.142-4.712Z" fill="#212121"></path> <path d="M54,24c-6.3,0-9.146,3.777-11.894,7.431a26.012,26.012,0,0,1-7.839,7.343A5.443,5.443,0,0,1,34.4,43.99c.034,0,.067.01.1.01a2.644,2.644,0,0,0,1.249-.346A39.746,39.746,0,0,0,45,37.225V56a1,1,0,0,0,1,1H62a1,1,0,0,0,1-1V33A9.01,9.01,0,0,0,54,24Z" data-color="color-2"></path></g></svg>