<svg xmlns="http://www.w3.org/2000/svg" height="64" width="64" viewBox="0 0 64 64"><title>romantic restaurant</title><g fill="#212121" class="nc-icon-wrapper"><path d="M40.285,12.365,32.716,20.2a1,1,0,0,1-1.438,0l-7.561-7.827a6.2,6.2,0,0,1,0-8.57A5.808,5.808,0,0,1,32,3.682c.022-.023.045-.046.069-.068a5.647,5.647,0,0,1,4.145-1.609A5.769,5.769,0,0,1,40.281,3.8,6.19,6.19,0,0,1,40.285,12.365Z" data-color="color-2"></path><path d="M18.8,23.971l-5.8,5.8-5.8-5.8A4.081,4.081,0,1,1,13,18.232a4.081,4.081,0,1,1,5.8,5.739Z" data-color="color-2"></path><path d="M56.8,23.971l-5.8,5.8-5.8-5.8A4.081,4.081,0,1,1,51,18.232a4.081,4.081,0,1,1,5.8,5.739Z" data-color="color-2"></path><path d="M21,47H5.877L3.993,32.868a1,1,0,1,0-1.988.22l.006.044L4,48.066V61a1,1,0,0,0,2,0V51H20V61a1,1,0,0,0,2,0V48A1,1,0,0,0,21,47Z" fill="#212121"></path><path d="M61.134,32.009a1,1,0,0,0-1.123.859L58.127,47H43a1,1,0,0,0-1,1V61a1,1,0,0,0,2,0V51H58V61a1,1,0,0,0,2,0V48.066l1.991-14.934A1,1,0,0,0,61.134,32.009Z" fill="#212121"></path><path d="M48,38H16a1,1,0,1,0,0,2H31V58.054a7.5,7.5,0,0,0-4.923,2.29A1,1,0,0,0,26.833,62H37.171a1,1,0,0,0,.754-1.656A7.505,7.505,0,0,0,33,58.054V40H48a1,1,0,1,0,0-2Z" fill="#212121"></path><path d="M33,27.07V26a1,1,0,0,0-2,0v1.07A7.981,7.981,0,0,0,24,35v1H40V35A7.981,7.981,0,0,0,33,27.07Z" fill="#212121"></path></g></svg>