<svg xmlns="http://www.w3.org/2000/svg" height="64" width="64" viewBox="0 0 64 64"><title>save for later</title><g fill="#212121" class="nc-icon-wrapper"><path d="M52,27A14.953,14.953,0,0,1,37.558,8H6a4,4,0,0,0-4,4V58a4,4,0,0,0,4,4H52a4,4,0,0,0,4-4V26.442A14.925,14.925,0,0,1,52,27Zm2,31a2,2,0,0,1-2,2H6a2,2,0,0,1-2-2V50a2,2,0,0,1,2-2H52a2,2,0,0,1,2,2Z" fill="#212121"></path><path d="M52,0A12,12,0,1,0,64,12,12,12,0,0,0,52,0Zm5,13H53v4a1,1,0,0,1-2,0V13H47a1,1,0,0,1,0-2h4V7a1,1,0,0,1,2,0v4h4a1,1,0,0,1,0,2Z" data-color="color-2"></path></g></svg>