<svg xmlns="http://www.w3.org/2000/svg" height="64" width="64" viewBox="0 0 64 64"><title>savings</title><g fill="#212121" class="nc-icon-wrapper"><path d="M32,1A13,13,0,1,0,45,14,13.015,13.015,0,0,0,32,1Zm5.707,13.707-5,5a1,1,0,0,1-1.414,0l-5-5a1,1,0,0,1,0-1.414l5-5a1,1,0,0,1,1.414,0l5,5A1,1,0,0,1,37.707,14.707Z" data-color="color-2"></path><path d="M19.367,49l1.641,13.124A1,1,0,0,0,22,63H42a1,1,0,0,0,.992-.876L44.633,49Z" fill="#212121"></path><path d="M59.22,33.25A16.966,16.966,0,0,0,33,38.017V28.95c-.332.021-.662.05-1,.05s-.668-.029-1-.05v9.067A16.966,16.966,0,0,0,4.78,33.25a1,1,0,0,0,0,1.5,16.932,16.932,0,0,0,21.749.577A14.952,14.952,0,0,1,30.949,45H20a1,1,0,0,0-.992,1.124l.109.876H44.883l.109-.876A1,1,0,0,0,44,45H33.051a14.952,14.952,0,0,1,4.42-9.673A16.932,16.932,0,0,0,59.22,34.75a1,1,0,0,0,0-1.5Z" fill="#212121"></path></g></svg>