<svg xmlns="http://www.w3.org/2000/svg" height="64" width="64" viewBox="0 0 64 64"><title>smiling face glasses</title><g fill="#212121" class="nc-icon-wrapper"><path d="M20,21a7,7,0,1,0,7,7A7.008,7.008,0,0,0,20,21Zm0,10a3,3,0,1,1,3-3A3,3,0,0,1,20,31Z" fill="#212121"></path> <path d="M44,21a7,7,0,1,0,7,7A7.008,7.008,0,0,0,44,21Zm0,10a3,3,0,1,1,3-3A3,3,0,0,1,44,31Z" fill="#212121"></path> <path d="M32,3A29,29,0,1,0,61,32,29.032,29.032,0,0,0,32,3Zm0,49A11,11,0,0,1,21.051,42h21.9A11,11,0,0,1,32,52ZM44,37a9.011,9.011,0,0,1-9-9,3,3,0,0,0-6,0,9.017,9.017,0,1,1-.663-3.377,4.945,4.945,0,0,1,7.326,0A9,9,0,1,1,44,37Z" fill="#212121"></path></g></svg>