<svg xmlns="http://www.w3.org/2000/svg" height="64" width="64" viewBox="0 0 64 64"><title>snowboarding</title><g fill="#212121" class="nc-icon-wrapper"><circle cx="40" cy="10" r="6" fill="#212121"></circle> <path d="M37.158,43.218l2.415.531L37.794,54.422l6.009.445,2.156-12.936a3,3,0,0,0-2.308-3.422l-6.013-1.328a4.948,4.948,0,0,1,.234,2.943Z" fill="#212121"></path> <path data-color="color-2" d="M59,60q-.038,0-.075,0l-54-4A1,1,0,0,1,5.074,54l54,4A1,1,0,0,1,59,60Z"></path> <path d="M52.325,31.053,37.11,17.637A5.891,5.891,0,0,0,34.093,16.1L12.12,11.972a2.559,2.559,0,0,0-1.029,5.013l15.71,3.5-6.793,10.19a5.968,5.968,0,0,0,3.581,9.146l5.82,1.4L26.554,53.59l6.054.448,3.315-14.363a3,3,0,0,0-2.218-3.591l-5.5-1.251,3.918-.706,5.614-8.421,11.29,9.226a2.545,2.545,0,0,0,3.3-3.879Z" fill="#212121"></path></g></svg>