<svg xmlns="http://www.w3.org/2000/svg" height="64" width="64" viewBox="0 0 64 64"><title>soft drink</title><g fill="#212121" class="nc-icon-wrapper"><path d="M25.007,32.2A3,3,0,0,1,28,29h6.038a57.62,57.62,0,0,0-3.377-13.071C29.77,13.4,29,11.211,29,10V7H19v3c0,1.211-.77,3.4-1.661,5.929C15.845,20.172,13.8,25.982,13.8,31.8a79.009,79.009,0,0,0,.815,11.619,38.181,38.181,0,0,1,.454,5.143,18.027,18.027,0,0,1-.98,5.6,12.346,12.346,0,0,0-.713,3.579C13.375,60.229,15.274,63,18,63H28.861a6.975,6.975,0,0,1-2.1-4.534Z" fill="#212121"></path> <path d="M29,2a1,1,0,0,0-1-1H20a1,1,0,0,0-1,1V5H29Z" data-color="color-2"></path> <path d="M33.742,59H46.258a1,1,0,0,0,1-.934l.867-13a1,1,0,0,0-1-1.066H32.875a1,1,0,0,0-1,1.066l.867,13A1,1,0,0,0,33.742,59Z" data-color="color-2"></path> <path d="M52.73,31.316A1,1,0,0,0,52,31H28a1,1,0,0,0-1,1.066l1.751,26.266A5.015,5.015,0,0,0,33.742,63H46.258a5.015,5.015,0,0,0,4.989-4.668L53,32.066A1,1,0,0,0,52.73,31.316ZM49.251,58.2A3.008,3.008,0,0,1,46.258,61H33.742a3.008,3.008,0,0,1-2.993-2.8L29.069,33H50.931Z" fill="#212121"></path></g></svg>