<svg xmlns="http://www.w3.org/2000/svg" height="64" width="64" viewBox="0 0 64 64"><title>statistics</title><g fill="#212121" class="nc-icon-wrapper"><rect x="3" y="42" width="10" height="16" rx="1" fill="#212121"></rect><rect x="35" y="42" width="10" height="16" rx="1" fill="#212121"></rect><rect x="19" y="26" width="10" height="32" rx="1" fill="#212121"></rect><rect x="51" y="26" width="10" height="32" rx="1" fill="#212121"></rect><path d="M18.4,15.184l-7.649,7.649a5.015,5.015,0,1,0,1.414,1.414L19.816,16.6A7.017,7.017,0,0,1,18.4,15.184Z" data-color="color-2"></path><circle cx="24" cy="11" r="5" data-color="color-2"></circle><path d="M50.4,15.184l-7.649,7.649a4.966,4.966,0,0,0-5.506,0L29.6,15.184A7.017,7.017,0,0,1,28.184,16.6l7.649,7.649a5,5,0,1,0,8.334,0L51.816,16.6A7.017,7.017,0,0,1,50.4,15.184Z" data-color="color-2"></path><circle cx="56" cy="11" r="5" data-color="color-2"></circle></g></svg>