<svg xmlns="http://www.w3.org/2000/svg" height="64" width="64" viewBox="0 0 64 64"><title>thumb up</title><g fill="#212121" class="nc-icon-wrapper"><rect data-color="color-2" x="1" y="27" width="11" height="32" rx="4" ry="4"></rect> <path d="M63.091,38.545a6.366,6.366,0,0,0-2.283-4.9,6.382,6.382,0,0,0,.919-3.279A6.641,6.641,0,0,0,55,24H31V10c0-8.9-5.93-9-6-9a1,1,0,0,0-.942.666L14,29V57.406A57.893,57.893,0,0,0,31,60H52.545a5.1,5.1,0,0,0,5.091-5.091,5.029,5.029,0,0,0-.671-2.522,6.427,6.427,0,0,0,2.857-8.252A6.443,6.443,0,0,0,63.091,38.545Z" fill="#212121"></path></g></svg>