<svg xmlns="http://www.w3.org/2000/svg" height="64" width="64" viewBox="0 0 64 64"><title>time clock</title><g fill="#212121" class="nc-icon-wrapper"><path d="M32,2A30,30,0,1,0,62,32,30.034,30.034,0,0,0,32,2ZM31,9a1,1,0,0,1,2,0v5a1,1,0,0,1-2,0ZM14,33H9a1,1,0,0,1,0-2h5a1,1,0,0,1,0,2ZM33,55a1,1,0,0,1-2,0V50a1,1,0,0,1,2,0ZM44.414,22.414l-11,11a2,2,0,0,1-2.828,0l-16-16a2,2,0,1,1,2.828-2.828L32,29.171l9.586-9.585a2,2,0,0,1,2.828,2.828ZM55,33H50a1,1,0,0,1,0-2h5a1,1,0,0,1,0,2Z" fill="#212121"></path></g></svg>