<svg xmlns="http://www.w3.org/2000/svg" height="64" width="64" viewBox="0 0 64 64"><title>time machine</title><g fill="#212121" class="nc-icon-wrapper"><path d="M32,2A30.034,30.034,0,0,0,2,32a2,2,0,0,0,4,0A26.008,26.008,0,1,1,16.031,52.514l4.65-4.314a1,1,0,0,0-.455-1.707l-15-3.467a1,1,0,0,0-1.211,1.143l2.57,15a1,1,0,0,0,.665.778A.981.981,0,0,0,7.57,60a1.006,1.006,0,0,0,.681-.267l4.819-4.471A30,30,0,1,0,32,2Z" fill="#212121"></path><path data-color="color-2" d="M35.471,36.885l9.822,9.822,1.414-1.414-9.822-9.822A6.045,6.045,0,0,1,35.471,36.885Z"></path><path data-color="color-2" d="M41.586,19.586l-8.563,8.563a3.581,3.581,0,0,0-2.046,0L20.414,17.586a2,2,0,0,0-2.828,2.828L28.149,30.977a4,4,0,1,0,7.7,0l8.563-8.563a2,2,0,0,0-2.828-2.828Z"></path></g></svg>