<svg xmlns="http://www.w3.org/2000/svg" height="64" width="64" viewBox="0 0 64 64"><title>translation</title><g fill="#212121" class="nc-icon-wrapper"><path d="M46.006,34.275q-.34,1.313-1.939,6.491h3.908q-1.509-4.851-1.7-5.487T46.006,34.275Z" fill="#212121"></path><path d="M58,24H34a5.006,5.006,0,0,0-5,5V51a5.006,5.006,0,0,0,5,5H47.7l7.748,5.165A1,1,0,0,0,57,60.333V56h1a5.006,5.006,0,0,0,5-5V29A5.006,5.006,0,0,0,58,24ZM49.82,47l-1.088-3.568H43.268L42.181,47H38.756l5.291-15.053h3.887L53.244,47Z" fill="#212121"></path><path d="M14.941,14.791a11.022,11.022,0,0,0,1.206,2.719,10.787,10.787,0,0,0,1.513,2.016,9.8,9.8,0,0,0,1.423-2,10.266,10.266,0,0,0,1.08-2.736Z" data-color="color-2"></path><path d="M30,2H6A5.006,5.006,0,0,0,1,7V29a5.006,5.006,0,0,0,5,5H7v4.333a1,1,0,0,0,1.555.832L16.3,34H27V29a7.009,7.009,0,0,1,7-7h1V7A5.006,5.006,0,0,0,30,2ZM24.754,26.692a20.539,20.539,0,0,1-7.022-3.51,21.284,21.284,0,0,1-7.22,3.529A9.375,9.375,0,0,0,9,24.01a18.4,18.4,0,0,0,6.68-2.719,16.173,16.173,0,0,1-2.269-3.15,15.546,15.546,0,0,1-1.387-3.35h-.36c-.864,0-1.674.036-2.394.107v-2.79a19.509,19.509,0,0,0,2.466.126h4.285V11.082a6.55,6.55,0,0,0-.107-1.225h3.114a6.346,6.346,0,0,0-.107,1.207v1.17h4.555a19.821,19.821,0,0,0,2.485-.126V14.9a23.312,23.312,0,0,0-2.377-.107H23.17a14.4,14.4,0,0,1-1.3,3.529,14.655,14.655,0,0,1-2.07,2.971,16.377,16.377,0,0,0,6.536,2.557A9.531,9.531,0,0,0,24.754,26.692Z" data-color="color-2"></path></g></svg>