<svg xmlns="http://www.w3.org/2000/svg" height="64" width="64" viewBox="0 0 64 64"><title>upload file</title><g fill="#212121" class="nc-icon-wrapper"><path data-color="color-2" d="M20,20h9V46a3,3,0,0,0,6,0V20h9a1,1,0,0,0,.8-1.6l-12-16a1.036,1.036,0,0,0-1.6,0l-12,16A1,1,0,0,0,20,20Z"></path><path d="M60.964,58.734l-8-29A1,1,0,0,0,52,29H40a1,1,0,0,0,0,2H51.238l7.449,27H5.313l7.449-27H24a1,1,0,0,0,0-2H12a1,1,0,0,0-.964.734l-8,29A1,1,0,0,0,4,60H60a1,1,0,0,0,.964-1.266Z" fill="#212121"></path></g></svg>