<svg xmlns="http://www.w3.org/2000/svg" height="64" width="64" viewBox="0 0 64 64"><title>web hyperlink</title><g fill="#212121" class="nc-icon-wrapper"><path d="M43,42H20V38H43a3,3,0,0,0,3-3V14a3,3,0,0,0-3-3H8a3,3,0,0,0-3,3V35a3,3,0,0,0,3,3h4v4H8a7.008,7.008,0,0,1-7-7V14A7.008,7.008,0,0,1,8,7H43a7.008,7.008,0,0,1,7,7V35A7.008,7.008,0,0,1,43,42Z" fill="#212121"></path><path data-color="color-2" d="M56,57H21a7.008,7.008,0,0,1-7-7V29a7.008,7.008,0,0,1,7-7H44v4H21a3,3,0,0,0-3,3V50a3,3,0,0,0,3,3H56a3,3,0,0,0,3-3V29a3,3,0,0,0-3-3H52V22h4a7.008,7.008,0,0,1,7,7V50A7.008,7.008,0,0,1,56,57Z"></path></g></svg>