<svg xmlns="http://www.w3.org/2000/svg" height="48" width="48" viewBox="0 0 48 48"><title>armchair</title><g class="nc-icon-wrapper"><path d="M12,2H36a5,5,0,0,1,5,5V34H7V7A5,5,0,0,1,12,2Z" fill="#a2703f"></path><polygon points="11.333 42 8 41 8 46 10 46 11.333 42" fill="#7d5731"></polygon><polygon points="36.667 42 38 46 40 46 40 41 36.667 42" fill="#7d5731"></polygon><path d="M9,42a5,5,0,0,1-5-5V25.977A4.992,4.992,0,1,1,12,22V34H36V22a5,5,0,1,1,8,3.977V37a5,5,0,0,1-5,5Z" fill="#a2703f"></path><path d="M34,22v2H14V22a7,7,0,0,0-7-7v2a5,5,0,0,1,5,5V34H36V22a5,5,0,0,1,5-5V15A7,7,0,0,0,34,22ZM14,32V26H34v6Z" fill="#7d5731"></path><circle cx="7" cy="22" r="2" fill="#7d5731"></circle><circle cx="41" cy="22" r="2" fill="#7d5731"></circle></g></svg>