<svg xmlns="http://www.w3.org/2000/svg" height="48" width="48" viewBox="0 0 48 48"><title>automated logistics</title><g class="nc-icon-wrapper"><rect x="28" y="27" width="16" height="12" rx="1" fill="#d0ab86"></rect><rect x="4" y="19" width="20" height="20" rx="1" fill="#d0ab86"></rect><path d="M43.651,15.242,38,10.4V2a1,1,0,0,0-1-1H35a1,1,0,0,0-1,1v8.4l-5.651,4.844A1,1,0,0,0,28,16v5a1,1,0,0,0,2,0V16.46l6-5.143,6,5.143V21a1,1,0,0,0,2,0V16A1,1,0,0,0,43.651,15.242Z" fill="#c8c8c8"></path><path d="M44,41H4a3,3,0,0,0,0,6H44a3,3,0,0,0,0-6Z" fill="#363636"></path><path d="M4,45a1,1,0,0,1,0-2H44a1,1,0,0,1,0,2Z" fill="#7b7b7b"></path><rect x="12" y="19" width="4" height="20" fill="#ddc2a7"></rect><rect x="34" y="27" width="4" height="12" fill="#ddc2a7"></rect><path d="M17,25H11a1,1,0,0,1,0-2h6a1,1,0,0,1,0,2Z" fill="#7d5731"></path></g></svg>