<svg xmlns="http://www.w3.org/2000/svg" height="24" width="24" viewBox="0 0 24 24"><title>augmented reality</title><g fill="#212121" class="nc-icon-wrapper"><path d="M17.515,3.143l-5-3a1,1,0,0,0-1.03,0l-5,3A1,1,0,0,0,6,4V9a1,1,0,0,0,.485.857l5,3a1,1,0,0,0,1.03,0l5-3A1,1,0,0,0,18,9V4A1,1,0,0,0,17.515,3.143ZM12,2.166,15.056,4,12,5.834,8.944,4Z" data-color="color-2"></path><path d="M22.671,20.936l-3.81-6.445A1,1,0,0,0,18,14H6a1,1,0,0,0-.861.491L1.344,20.912A1.965,1.965,0,0,0,1,22a2,2,0,0,0,2,2H21a2,2,0,0,0,2-2A1.951,1.951,0,0,0,22.671,20.936ZM4.19,20l2.379-4H17.43L19.8,20Z" fill="#212121"></path></g></svg>