<svg xmlns="http://www.w3.org/2000/svg" height="24" width="24" viewBox="0 0 24 24"><title>automated logistics</title><g fill="#212121" class="nc-icon-wrapper"><path d="M23.6,7.2,20,4.5V0H18V4.5L14.4,7.2A1,1,0,0,0,14,8v3a1,1,0,0,0,1,1h0a1,1,0,0,0,1-1V8.5l3-2.25L22,8.5V11a1,1,0,0,0,1,1h0a1,1,0,0,0,1-1V8A1,1,0,0,0,23.6,7.2Z" data-color="color-2"></path><rect x="14" y="14" width="10" height="6" rx="1" fill="#212121"></rect><rect y="22" width="24" height="2" rx="1" fill="#212121"></rect><path d="M11,8H1A1,1,0,0,0,0,9V19a1,1,0,0,0,1,1H11a1,1,0,0,0,1-1V9A1,1,0,0,0,11,8Z" fill="#212121"></path></g></svg>