<svg xmlns="http://www.w3.org/2000/svg" height="24" width="24" viewBox="0 0 24 24"><title>check all</title><g fill="#212121" class="nc-icon-wrapper"><path data-color="color-2" d="M4.549,19.107.171,14,2,12l3.834,3.006L17,3l2,1L7.664,19.011a2,2,0,0,1-2.8.391A2.04,2.04,0,0,1,4.549,19.107Z"></path><path d="M23,9H20a1,1,0,0,1,0-2h3a1,1,0,0,1,0,2Z" fill="#212121"></path><path d="M23,14H16a1,1,0,0,1,0-2h7a1,1,0,0,1,0,2Z" fill="#212121"></path><path d="M23,19H13a1,1,0,0,1,0-2H23a1,1,0,0,1,0,2Z" fill="#212121"></path></g></svg>