<svg xmlns="http://www.w3.org/2000/svg" height="24" width="24" viewBox="0 0 24 24"><title>content 360deg</title><g fill="#212121" class="nc-icon-wrapper"><path d="M12,9a3,3,0,1,0,3,3A3,3,0,0,0,12,9Z" data-color="color-2"></path><path d="M24,12c0-2.579-2.4-4.827-5.959-6.041C16.827,2.4,14.579,0,12,0,8.134,0,5,5.373,5,12a19.973,19.973,0,0,0,.333,3.655C3.243,14.675,2,13.3,2,12A3.157,3.157,0,0,1,3.105,9.822,20.538,20.538,0,0,1,3.6,7.007C1.379,8.277,0,10.044,0,12c0,2.579,2.4,4.827,5.959,6.041C7.173,21.6,9.421,24,12,24c1.956,0,3.723-1.379,4.993-3.6a20.538,20.538,0,0,1-2.815.491A3.157,3.157,0,0,1,12,22c-1.3,0-2.675-1.243-3.655-3.333A19.973,19.973,0,0,0,12,19C18.627,19,24,15.866,24,12ZM7,12C7,6.106,9.635,2,12,2c1.3,0,2.675,1.243,3.655,3.333A19.973,19.973,0,0,0,12,5q-.612,0-1.208.036a8.652,8.652,0,0,0-1.036,2.1A18.741,18.741,0,0,1,12,7a17.52,17.52,0,0,1,4.446.554A17.52,17.52,0,0,1,17,12a18.741,18.741,0,0,1-.135,2.244,8.652,8.652,0,0,0,2.1-1.036Q19,12.611,19,12a19.973,19.973,0,0,0-.333-3.655C20.757,9.325,22,10.7,22,12c0,2.365-4.106,5-10,5a17.52,17.52,0,0,1-4.446-.554A17.52,17.52,0,0,1,7,12Z" fill="#212121"></path></g></svg>