<svg xmlns="http://www.w3.org/2000/svg" height="24" width="24" viewBox="0 0 24 24"><title>dog leash</title><g fill="#212121" class="nc-icon-wrapper"><path d="M15.371,8.024A1.982,1.982,0,0,1,13.681,9H4A2,2,0,0,1,2,7,1,1,0,0,0,0,7a3.99,3.99,0,0,0,3.578,3.957A3.961,3.961,0,0,0,3,13V23H5l.482-4.817a1.009,1.009,0,0,1,.1-.348L7,15l7.793,1.834a1,1,0,0,1,.767.89L16,23h2V17.11a.988.988,0,0,1,.024-.217l1.508-6.788Z" fill="#212121"></path><path d="M19,4,18,2,16,6.662,19.868,8.6,20,8h2a2,2,0,0,0,2-2V5Z" fill="#212121"></path><path d="M14.11,6H14A5.006,5.006,0,0,1,9,1V0H7V1a7.009,7.009,0,0,0,6.269,6.961Z" data-color="color-2"></path></g></svg>