<svg xmlns="http://www.w3.org/2000/svg" height="24" width="24" viewBox="0 0 24 24"><title>download file</title><g fill="#212121" class="nc-icon-wrapper"><path d="M20.986,9.835A1,1,0,0,0,20,9H16v2h3.153l1.666,10H3.181L4.847,11H8V9H4a1,1,0,0,0-.986.835l-2,12A1.011,1.011,0,0,0,1,22a1,1,0,0,0,1,1H22a1.021,1.021,0,0,0,.165-.014,1,1,0,0,0,.821-1.151Z" fill="#212121"></path><path data-color="color-2" d="M7.5,13a.5.5,0,0,0-.372.835l4.5,5a.5.5,0,0,0,.744,0l4.5-5A.5.5,0,0,0,16.5,13H13V2a1,1,0,0,0-2,0V13Z"></path></g></svg>