<svg xmlns="http://www.w3.org/2000/svg" height="24" width="24" viewBox="0 0 24 24"><title>edit levels</title><g fill="#212121" class="nc-icon-wrapper"><polygon points="0 22 0 19.97 2 18.47 4 19.97 4 22 0 22" fill="#212121"></polygon><polygon points="10 22 10 19.97 12 18.47 14 19.97 14 22 10 22" fill="#212121"></polygon><polygon points="20 22 20 19.97 22 18.47 24 19.97 24 22 20 22" fill="#212121"></polygon><rect x="1" y="7" width="2" height="9" data-color="color-2"></rect><rect x="13" y="4" width="2" height="12" fill="#212121"></rect><rect x="5" y="2" width="2" height="14" fill="#212121"></rect><rect x="9" y="9" width="2" height="7" data-color="color-2"></rect><rect x="17" y="6" width="2" height="10" data-color="color-2"></rect><rect x="21" y="2" width="2" height="14" fill="#212121"></rect></g></svg>