<svg xmlns="http://www.w3.org/2000/svg" height="24" width="24" viewBox="0 0 24 24"><title>logic</title><g fill="#212121" class="nc-icon-wrapper"><circle cx="13" cy="10" r="2" data-color="color-2"></circle><path d="M12.316.023A10.236,10.236,0,0,0,3,10.353v.411L1.106,14.553A1,1,0,0,0,1.553,15.9L3,16.618V19a3,3,0,0,0,3,3H9v2H20V17.127A9.991,9.991,0,0,0,12.316.023ZM18,11H16.858a3.915,3.915,0,0,1-.425,1.019l.809.809a1,1,0,1,1-1.414,1.414l-.809-.809A3.915,3.915,0,0,1,14,13.858V15a1,1,0,0,1-2,0V13.858a3.915,3.915,0,0,1-1.019-.425l-.809.809a1,1,0,0,1-1.414-1.414l.809-.809A3.915,3.915,0,0,1,9.142,11H8A1,1,0,0,1,8,9H9.142a3.915,3.915,0,0,1,.425-1.019l-.809-.809a1,1,0,0,1,1.414-1.414l.809.809A3.915,3.915,0,0,1,12,6.142V5a1,1,0,0,1,2,0V6.142a3.915,3.915,0,0,1,1.019.425l.809-.809a1,1,0,1,1,1.414,1.414l-.809.809A3.915,3.915,0,0,1,16.858,9H18a1,1,0,0,1,0,2Z" fill="#212121"></path></g></svg>