<svg xmlns="http://www.w3.org/2000/svg" height="24" width="24" viewBox="0 0 24 24"><title>new construction</title><g fill="#212121" class="nc-icon-wrapper"><path d="M23.287,3.042l-10-3A1,1,0,0,0,12,1V6h2V2.344l8,2.4V22H16V9a1,1,0,0,0-1-1H5A1,1,0,0,0,4,9V22H2V12H1a1,1,0,0,0-1,1V23a1,1,0,0,0,1,1H23a1,1,0,0,0,1-1V4A1,1,0,0,0,23.287,3.042ZM11.5,21h-3a.5.5,0,0,1-.5-.5v-1a.5.5,0,0,1,.5-.5h3a.5.5,0,0,1,.5.5v1A.5.5,0,0,1,11.5,21Zm0-4h-3a.5.5,0,0,1-.5-.5v-1a.5.5,0,0,1,.5-.5h3a.5.5,0,0,1,.5.5v1A.5.5,0,0,1,11.5,17Zm0-4h-3a.5.5,0,0,1-.5-.5v-1a.5.5,0,0,1,.5-.5h3a.5.5,0,0,1,.5.5v1A.5.5,0,0,1,11.5,13Z" fill="#212121"></path><rect data-color="color-2" x="18" y="8" width="2" height="12" rx="0.5"></rect></g></svg>