<svg xmlns="http://www.w3.org/2000/svg" height="24" width="24" viewBox="0 0 24 24"><title>ranking</title><g fill="#212121" class="nc-icon-wrapper"><path d="M7.342,10.316l.894.448,1.135-2.27,6.048,4.32a.988.988,0,0,0,.762.169,1,1,0,0,0,.651-.428l6-9a1,1,0,0,0-1.664-1.11l-5.427,8.141-6.16-4.4a1,1,0,0,0-1.476.367L6.361,10.042A3.026,3.026,0,0,1,7.342,10.316Z" fill="#212121"></path><path d="M5.292,16H3.382L1.105,20.553a1,1,0,0,0,1.79.894L5.553,16.13Z" fill="#212121"></path><path data-color="color-2" d="M16,19a1.008,1.008,0,0,1-.447-.105L5.764,14H2a1,1,0,0,1,0-2H6a1,1,0,0,1,.447.105l9.481,4.741,5.517-3.678a1,1,0,1,1,1.11,1.664l-6,4A1,1,0,0,1,16,19Z"></path></g></svg>