<svg xmlns="http://www.w3.org/2000/svg" height="24" width="24" viewBox="0 0 24 24"><title>sleeping baby</title><g fill="#212121" class="nc-icon-wrapper"><path d="M21.16,8a10,10,0,0,0-9.149-6,1.5,1.5,0,1,0,.757,2.8,1,1,0,0,1,1,1.73A3.5,3.5,0,0,1,8.519,3.5a3.488,3.488,0,0,1,.13-.9A10,10,0,0,0,2.84,8a3,3,0,0,0-.659,5.883,10,10,0,0,0,19.638,0A3,3,0,0,0,21.16,8ZM6.143,11.333a1,1,0,0,1,1.885-.666.5.5,0,0,0,.944,0,1,1,0,0,1,1.885.666,2.5,2.5,0,0,1-4.714,0ZM12,19a2,2,0,1,1,2-2A2,2,0,0,1,12,19Zm5.857-7.667a2.5,2.5,0,0,1-4.714,0,1,1,0,0,1,1.885-.666.5.5,0,0,0,.944,0,1,1,0,0,1,1.885.666Z" fill="#212121"></path></g></svg>