<svg xmlns="http://www.w3.org/2000/svg" height="24" width="24" viewBox="0 0 24 24"><title>snowboarding</title><g fill="#212121" class="nc-icon-wrapper"><circle cx="14" cy="3" r="3" fill="#212121"></circle> <path d="M6.809,11.907a2.5,2.5,0,0,0,1.808,3.436l2.206.442L10.1,19.4l2.029.1L12.98,15.2A1,1,0,0,0,12.2,14.02l-.354-.071,1.608-3.913,4.8,3.357,1.147-1.639-5.82-4.073a1,1,0,0,0-.126-.076l-3-1.5a1,1,0,0,0-.131-.054L3.368,3.735l-.633,1.9L8.653,7.605Z" fill="#212121"></path> <path d="M16.089,19.7l.981-3.931a1.5,1.5,0,0,0-1.213-1.845l-2.566-.419a1.833,1.833,0,0,1,.67,1.886l-.048.242L15,15.812,14.051,19.6Z" fill="#212121"></path> <rect data-color="color-2" x="11" y="10.487" width="2" height="22.025" transform="translate(-10.074 32.409) rotate(-87.131)"></rect></g></svg>