<svg xmlns="http://www.w3.org/2000/svg" height="24" width="24" viewBox="0 0 24 24"><title>soft drink</title><g fill="#212121" class="nc-icon-wrapper"><path d="M7.938,22.308,7.914,22H5.33c-.186,0-.33-.256-.33-.477a3.533,3.533,0,0,1,.205-.927,7.923,7.923,0,0,0,.421-2.468,15.029,15.029,0,0,0-.18-2.083,28.074,28.074,0,0,1-.289-4.119A16.64,16.64,0,0,1,6.336,6.6,9.027,9.027,0,0,0,7,4V3H9V4a9.027,9.027,0,0,0,.664,2.6l.145.422c.064,0,.126-.02.191-.02h1.911c-.122-.373-.244-.73-.357-1.057A9.388,9.388,0,0,1,11,4V1a1,1,0,0,0-1-1H6A1,1,0,0,0,5,1V4a9.388,9.388,0,0,1-.554,1.943,18.517,18.517,0,0,0-1.289,5.983,29.777,29.777,0,0,0,.307,4.383,13.36,13.36,0,0,1,.162,1.819,6.046,6.046,0,0,1-.335,1.889A5.117,5.117,0,0,0,3,21.523,2.409,2.409,0,0,0,5.33,24H8.485A3.93,3.93,0,0,1,7.938,22.308Z" fill="#212121"></path> <path d="M20.734,9.32A1,1,0,0,0,20,9H10a1,1,0,0,0-1,1.077l.929,12.077A2.01,2.01,0,0,0,11.926,24h6.148a2.008,2.008,0,0,0,1.994-1.846L21,10.077A1,1,0,0,0,20.734,9.32Z" data-color="color-2"></path></g></svg>