<svg xmlns="http://www.w3.org/2000/svg" height="24" width="24" viewBox="0 0 24 24"><title>web hyperlink</title><g fill="#212121" class="nc-icon-wrapper"><path data-color="color-2" d="M21,8.424v2.356c0.609,0.549,1,1.337,1,2.22v4c0,1.654-1.346,3-3,3h-9c-1.654,0-3-1.346-3-3 v-4c0-1.654,1.346-3,3-3h5V8h-5c-2.757,0-5,2.243-5,5v4c0,2.757,2.243,5,5,5h9c2.757,0,5-2.243,5-5v-4 C24,10.955,22.763,9.198,21,8.424z"></path> <path fill="#212121" d="M14,2H5C2.243,2,0,4.243,0,7v4c0,2.045,1.237,3.802,3,4.576V13.22C2.391,12.67,2,11.883,2,11V7 c0-1.654,1.346-3,3-3h9c1.654,0,3,1.346,3,3v4c0,1.654-1.346,3-3,3H9v2h5c2.757,0,5-2.243,5-5V7C19,4.243,16.757,2,14,2z"></path></g></svg>