<svg xmlns="http://www.w3.org/2000/svg" height="48" width="48" viewBox="0 0 48 48"><title>access key</title><g fill="#212121" class="nc-icon-wrapper"><path data-color="color-2" d="M45.707,14.293l-5.586-5.586l4-4c0.391-0.391,0.391-1.024,0-1.414l-1.414-1.414 c-0.391-0.391-1.024-0.391-1.414,0L19.659,23.512c0.536,0.393,1.054,0.817,1.533,1.295c0.482,0.482,0.904,1.001,1.294,1.535 l9.221-9.221l5.586,5.586C37.488,22.902,37.744,23,38,23s0.512-0.098,0.707-0.293l7-7C46.098,15.316,46.098,14.684,45.707,14.293z"></path> <path fill="#212121" d="M19.778,26.222c-4.289-4.289-11.268-4.289-15.557,0c-4.289,4.289-4.289,11.268,0,15.557 c2.145,2.145,4.961,3.216,7.778,3.216s5.634-1.072,7.778-3.216C24.067,37.489,24.067,30.511,19.778,26.222z M10,39 c-1.657,0-3-1.343-3-3s1.343-3,3-3s3,1.343,3,3S11.657,39,10,39z"></path></g></svg>