<svg xmlns="http://www.w3.org/2000/svg" height="48" width="48" viewBox="0 0 48 48"><title>armchair</title><g fill="#212121" class="nc-icon-wrapper"><path d="M41,17a5,5,0,0,0-5,5V34H12V22a5,5,0,1,0-8,3.977V37a5,5,0,0,0,4,4.9V46h2l1.333-4H36.667L38,46h2V41.9A5,5,0,0,0,44,37V25.977A4.985,4.985,0,0,0,41,17Z" fill="#212121"></path><rect data-color="color-2" x="14" y="26" width="20" height="6"></rect><path data-color="color-2" d="M36,2H12A5,5,0,0,0,7,7v8a7,7,0,0,1,7,7v2H34V22a7,7,0,0,1,7-7V7A5,5,0,0,0,36,2Z"></path></g></svg>