<svg xmlns="http://www.w3.org/2000/svg" height="48" width="48" viewBox="0 0 48 48"><title>augmented reality</title><g fill="#212121" class="nc-icon-wrapper"><path d="M42,46H6a3,3,0,0,1,0-6H42a3,3,0,0,1,0,6Z" fill="#212121"></path><path d="M32.447,5.105l-8-4a1,1,0,0,0-.894,0l-8,4A1,1,0,0,0,15,6V16a1,1,0,0,0,.553.895L23,20.618V32a1,1,0,0,0,2,0V20.618L32.447,16.9A1,1,0,0,0,33,16V6A1,1,0,0,0,32.447,5.105ZM24,8.882,18.236,6,24,3.118,29.764,6Z" data-color="color-2"></path><path d="M36.86,28.491A1,1,0,0,0,36,28H27v2h8.429l2.956,5H9.616l2.955-5H21V28H12a1,1,0,0,0-.861.491L5.488,38.052A4.824,4.824,0,0,1,6,38H42a4.817,4.817,0,0,1,.513.052Z" fill="#212121"></path></g></svg>