<svg xmlns="http://www.w3.org/2000/svg" height="48" width="48" viewBox="0 0 48 48"><title>automated logistics</title><g fill="#212121" class="nc-icon-wrapper"><rect x="28" y="27" width="16" height="12" rx="1" fill="#212121"></rect><path d="M43.651,15.242,38,10.4V2a1,1,0,0,0-1-1H35a1,1,0,0,0-1,1v8.4l-5.651,4.844A1,1,0,0,0,28,16v5a1,1,0,0,0,2,0V16.46l6-5.143,6,5.143V21a1,1,0,0,0,2,0V16A1,1,0,0,0,43.651,15.242Z" data-color="color-2"></path><path d="M23,19H5a1,1,0,0,0-1,1V38a1,1,0,0,0,1,1H23a1,1,0,0,0,1-1V20A1,1,0,0,0,23,19Zm-6,6H11a1,1,0,0,1,0-2h6a1,1,0,0,1,0,2Z" fill="#212121"></path><path d="M44,41H4a3,3,0,0,0,0,6H44a3,3,0,0,0,0-6Z" fill="#212121"></path></g></svg>