<svg xmlns="http://www.w3.org/2000/svg" height="48" width="48" viewBox="0 0 48 48"><title>cart</title><g fill="#212121" class="nc-icon-wrapper"><path fill="#212121" d="M46,32H4.135l3.334-4H36c0.437,0,0.822-0.283,0.953-0.699l6-19c0.097-0.304,0.042-0.635-0.146-0.893 C42.618,7.152,42.318,7,42,7H7.469l-4.7-5.64C2.415,0.936,1.785,0.878,1.359,1.232C0.936,1.585,0.878,2.216,1.231,2.64L6,8.362 v18.276L1.231,32.36c-0.248,0.298-0.302,0.713-0.137,1.064C1.259,33.775,1.612,34,2,34h44c0.553,0,1-0.448,1-1S46.553,32,46,32z"></path> <circle data-color="color-2" cx="8" cy="42" r="5"></circle> <circle data-color="color-2" cx="40" cy="42" r="5"></circle></g></svg>