<svg xmlns="http://www.w3.org/2000/svg" height="48" width="48" viewBox="0 0 48 48"><title>chemistry</title><g fill="#212121" class="nc-icon-wrapper"><path d="M36.432,47H11.568a5,5,0,0,1-4.13-7.816L18,23.691V10h2V24a1,1,0,0,1-.174.563L9.09,40.311A3,3,0,0,0,11.568,45H36.432a3,3,0,0,0,2.478-4.689L28.173,24.563A1,1,0,0,1,28,24V10h2V23.691L40.562,39.184A5,5,0,0,1,36.432,47Z" fill="#212121"></path><rect data-color="color-2" x="12" y="1" width="24" height="7" rx="1"></rect><circle cx="24.5" cy="26.5" r="1.5" fill="#212121"></circle><path d="M37.258,41.438,30.141,31H17.858L10.742,41.438A1,1,0,0,0,11.568,43H36.432a1,1,0,0,0,.826-1.562ZM21,39a2,2,0,1,1,2-2A2,2,0,0,1,21,39Z" fill="#212121"></path></g></svg>