<svg xmlns="http://www.w3.org/2000/svg" height="48" width="48" viewBox="0 0 48 48"><title>contactless card</title><g fill="#212121" class="nc-icon-wrapper"><path d="M45,8H3a2,2,0,0,0-2,2V40a2,2,0,0,0,2,2H45a2,2,0,0,0,2-2V10A2,2,0,0,0,45,8ZM33.39,18.209a1,1,0,1,1,1.6-1.2,4.927,4.927,0,0,1,0,5.985,1,1,0,0,1-1.6-1.2,2.936,2.936,0,0,0,0-3.583ZM7,15a1,1,0,0,1,1-1h7a1,1,0,0,1,1,1v5a1,1,0,0,1-1,1H8a1,1,0,0,1-1-1ZM25,35H8a1,1,0,0,1,0-2H25a1,1,0,0,1,0,2Zm4-13a2,2,0,1,1,2-2A2,2,0,0,1,29,22ZM40,35H33a1,1,0,0,1,0-2h7a1,1,0,0,1,0,2Zm-1.008-9a1,1,0,1,1-1.6-1.2,7.953,7.953,0,0,0,0-9.587,1,1,0,1,1,1.6-1.2,9.952,9.952,0,0,1,0,11.989Z" fill="#212121"></path></g></svg>