<svg xmlns="http://www.w3.org/2000/svg" height="48" width="48" viewBox="0 0 48 48"><title>content 360deg</title><g fill="#212121" class="nc-icon-wrapper"><path d="M47,24c0-4.94-4.642-9.151-11.645-11.355C33.151,5.642,28.94,1,24,1,16.71,1,11,11.1,11,24a39.7,39.7,0,0,0,.987,8.947C6.6,30.933,3,27.643,3,24c0-3.1,2.621-5.95,6.726-7.972.164-.872.361-1.715.578-2.537C4.626,15.836,1,19.634,1,24c0,4.94,4.642,9.151,11.645,11.355C14.849,42.358,19.06,47,24,47c4.366,0,8.164-3.626,10.509-9.3-.822.217-1.665.414-2.537.578C29.95,42.379,27.1,45,24,45c-3.643,0-6.933-3.6-8.947-8.987A39.7,39.7,0,0,0,24,37C36.9,37,47,31.29,47,24ZM13,24C13,12.617,18.037,3,24,3c3.643,0,6.933,3.6,8.947,8.987A39.7,39.7,0,0,0,24,11a41.014,41.014,0,0,0-6.588.524c-.306.7-.591,1.441-.849,2.229A37.054,37.054,0,0,1,24,13a36.112,36.112,0,0,1,9.7,1.3A36.112,36.112,0,0,1,35,24a37.054,37.054,0,0,1-.753,7.437c.788-.258,1.53-.543,2.229-.849A41.014,41.014,0,0,0,37,24a39.7,39.7,0,0,0-.987-8.947C41.4,17.067,45,20.357,45,24c0,5.963-9.617,11-21,11a36.112,36.112,0,0,1-9.7-1.3A36.112,36.112,0,0,1,13,24Z" fill="#212121"></path><circle cx="24" cy="24" r="6" data-color="color-2"></circle></g></svg>