<svg xmlns="http://www.w3.org/2000/svg" height="48" width="48" viewBox="0 0 48 48"><title>control panel</title><g fill="#212121" class="nc-icon-wrapper"><path d="M24,6A22.994,22.994,0,0,0,4.728,41.546,1,1,0,0,0,5.565,42h36.87a1,1,0,0,0,.837-.454A22.994,22.994,0,0,0,24,6Zm-1,4a1,1,0,0,1,2,0v5a1,1,0,0,1-2,0ZM10,30H5a1,1,0,0,1,0-2h5a1,1,0,0,1,0,2Zm16.121,1.121a3,3,0,0,1-4.243,0c-.8-.8-10.552-13.1-11.662-14.5a1,1,0,0,1,1.405-1.4c1.4,1.11,13.7,10.862,14.5,11.663A3,3,0,0,1,26.121,31.121ZM33.9,20.1a1,1,0,0,1-.707-1.707l3.536-3.536a1,1,0,0,1,1.414,1.414l-3.536,3.536A1,1,0,0,1,33.9,20.1ZM43,30H38a1,1,0,0,1,0-2h5a1,1,0,0,1,0,2Z" fill="#212121"></path></g></svg>