<svg xmlns="http://www.w3.org/2000/svg" height="48" width="48" viewBox="0 0 48 48"><title>edit levels</title><g fill="#212121" class="nc-icon-wrapper"><path d="M2,43V40.5a1,1,0,0,1,.4-.8L6,37l3.6,2.7a1,1,0,0,1,.4.8V43a1,1,0,0,1-1,1H3A1,1,0,0,1,2,43Z" fill="#212121"></path><path d="M20,43V40.5a1,1,0,0,1,.4-.8L24,37l3.6,2.7a1,1,0,0,1,.4.8V43a1,1,0,0,1-1,1H21A1,1,0,0,1,20,43Z" fill="#212121"></path><path d="M38,43V40.5a1,1,0,0,1,.4-.8L42,37l3.6,2.7a1,1,0,0,1,.4.8V43a1,1,0,0,1-1,1H39A1,1,0,0,1,38,43Z" fill="#212121"></path><path d="M4,16a1,1,0,0,0-2,0V33a1,1,0,0,0,1,1H3a1,1,0,0,0,1-1Z" data-color="color-2"></path><path d="M10,5A1,1,0,0,0,8,5V33a1,1,0,0,0,1,1H9a1,1,0,0,0,1-1Z" fill="#212121"></path><path d="M15,34a1,1,0,0,0,1-1V24a1,1,0,0,0-2,0v9a1,1,0,0,0,1,1Z" data-color="color-2"></path><path d="M21,34a1,1,0,0,0,1-1V18a1,1,0,0,0-2,0V33a1,1,0,0,0,1,1Z" fill="#212121"></path><path d="M27,34a1,1,0,0,0,1-1V5a1,1,0,0,0-2,0V33a1,1,0,0,0,1,1Z" data-color="color-2"></path><path d="M33,34a1,1,0,0,0,1-1V18a1,1,0,0,0-2,0V33a1,1,0,0,0,1,1Z" fill="#212121"></path><path d="M39,34a1,1,0,0,0,1-1V10a1,1,0,0,0-2,0V33a1,1,0,0,0,1,1Z" data-color="color-2"></path><path d="M45,34a1,1,0,0,0,1-1V5a1,1,0,0,0-2,0V33a1,1,0,0,0,1,1Z" fill="#212121"></path></g></svg>