<svg xmlns="http://www.w3.org/2000/svg" height="48" width="48" viewBox="0 0 48 48"><title>eject</title><g fill="#212121" class="nc-icon-wrapper"><path d="M41,2H7A5.006,5.006,0,0,0,2,7V33a5.006,5.006,0,0,0,5,5h4a1,1,0,0,0,0-2H7a3,3,0,0,1-3-3V7A3,3,0,0,1,7,4H41a3,3,0,0,1,3,3V33a3,3,0,0,1-3,3H37a1,1,0,0,0,0,2h4a5.006,5.006,0,0,0,5-5V7A5.006,5.006,0,0,0,41,2Z" fill="#212121"></path><path data-color="color-2" d="M24.824,28.434a1.037,1.037,0,0,0-1.648,0l-11,16A1,1,0,0,0,13,46H35a1,1,0,0,0,.824-1.566Z"></path></g></svg>