<svg xmlns="http://www.w3.org/2000/svg" height="48" width="48" viewBox="0 0 48 48"><title>embryo</title><g fill="#212121" class="nc-icon-wrapper"><path d="M15,15.5a10.521,10.521,0,0,0,6.24,9.587A1,1,0,0,1,20.831,27a.984.984,0,0,1-.407-.087A12.524,12.524,0,0,1,13,15.5,15.526,15.526,0,0,0,3.8,1.348,1.5,1.5,0,1,0,2.576,4.086,12.528,12.528,0,0,1,10,15.5a15.507,15.507,0,0,0,5.591,11.9c-2.826-.555-6.574-1.291-6.574-1.29a5,5,0,0,0-5.132,7.728h0l4.961,7.083-.962.962a3,3,0,0,0,4.242,4.242l1.5-1.5a2.985,2.985,0,0,0,.83-2.627l-.593-4.7A13.917,13.917,0,0,0,23.5,41,15.474,15.474,0,0,0,38.4,21.245,10.507,10.507,0,1,0,28.353,20H24.5A4.5,4.5,0,0,1,20,15.5a2.5,2.5,0,0,0-5,0Z" fill="#212121"></path></g></svg>