<svg xmlns="http://www.w3.org/2000/svg" height="48" width="48" viewBox="0 0 48 48"><title>home 3</title><g fill="#212121" class="nc-icon-wrapper"><path d="M24,6.876,6,21.6V44a2,2,0,0,0,2,2H19V35a1,1,0,0,1,1-1h8a1,1,0,0,1,1,1V46H40a2,2,0,0,0,2-2V21.6ZM27,27H21a1,1,0,0,1-1-1V20a1,1,0,0,1,1-1h6a1,1,0,0,1,1,1v6A1,1,0,0,1,27,27Z" fill="#212121"></path><path data-color="color-2" d="M46.633,20.226l-22-18a1,1,0,0,0-1.266,0L12,11.526V7a1,1,0,0,0-1-1H8A1,1,0,0,0,7,7v8.617L1.367,20.226a1,1,0,0,0,1.266,1.548L24,4.292,45.367,21.774a1,1,0,0,0,1.266-1.548Z"></path></g></svg>