<svg xmlns="http://www.w3.org/2000/svg" height="48" width="48" viewBox="0 0 48 48"><title>incognito</title><g fill="#212121" class="nc-icon-wrapper"><path d="M38.5,16,35.361,4.227A3,3,0,0,0,32.464,2H15.536a3,3,0,0,0-2.9,2.227L9.5,16Z" fill="#212121"></path><path d="M46.6,23.2,39.666,18H8.334L1.4,23.2A1,1,0,0,0,2,25H46a1,1,0,0,0,.6-1.8Z" fill="#212121"></path><path d="M35.5,29a8.505,8.505,0,0,0-7.715,4.955,7.978,7.978,0,0,0-7.57,0,8.538,8.538,0,1,0,.633,1.972,6.056,6.056,0,0,1,6.3,0A8.5,8.5,0,1,0,35.5,29Zm-23,15A6.5,6.5,0,1,1,19,37.5,6.508,6.508,0,0,1,12.5,44Zm23,0A6.5,6.5,0,1,1,42,37.5,6.508,6.508,0,0,1,35.5,44Z" data-color="color-2"></path></g></svg>