<svg xmlns="http://www.w3.org/2000/svg" height="48" width="48" viewBox="0 0 48 48"><title>logic</title><g fill="#212121" class="nc-icon-wrapper"><circle cx="26" cy="20" r="3" data-color="color-2"></circle><path d="M25.267,1.014C14.985,1.4,7,10.178,7,20.467v1.3L3.553,28.658a2,2,0,0,0,.894,2.684L7,32.618V38a5,5,0,0,0,5,5h7v4H39V33.829A18.981,18.981,0,0,0,25.267,1.014ZM36,21a.5.5,0,0,1-.465.5l-2.75.2A6.962,6.962,0,0,1,32,23.6L33.8,25.684a.5.5,0,0,1-.025.68l-1.414,1.414a.5.5,0,0,1-.68.025L29.6,26a6.962,6.962,0,0,1-1.9.789l-.2,2.75A.5.5,0,0,1,27,30H25a.5.5,0,0,1-.5-.465l-.2-2.75A6.962,6.962,0,0,1,22.4,26L20.316,27.8a.5.5,0,0,1-.68-.025l-1.414-1.414a.5.5,0,0,1-.025-.68L20,23.6a6.962,6.962,0,0,1-.789-1.9l-2.75-.2A.5.5,0,0,1,16,21V19a.5.5,0,0,1,.465-.5l2.75-.2A6.942,6.942,0,0,1,20,16.4L18.2,14.317a.5.5,0,0,1,.025-.681l1.414-1.414a.5.5,0,0,1,.68-.025L22.4,14a6.968,6.968,0,0,1,1.9-.789l.2-2.751A.5.5,0,0,1,25,10h2a.5.5,0,0,1,.5.464l.2,2.751A6.968,6.968,0,0,1,29.6,14L31.684,12.2a.5.5,0,0,1,.68.025l1.414,1.414a.5.5,0,0,1,.025.681L32,16.4a6.942,6.942,0,0,1,.789,1.9l2.75.2A.5.5,0,0,1,36,19Z" fill="#212121"></path></g></svg>