<svg xmlns="http://www.w3.org/2000/svg" height="48" width="48" viewBox="0 0 48 48"><title>penguin</title><g fill="#212121" class="nc-icon-wrapper"><path d="M46,18l-6.075-3.471A15,15,0,0,0,10,16V34c0,4.569-5.7,11.282-5.76,11.35A1,1,0,0,0,5,47H24V42A15.017,15.017,0,0,1,39,27h1V21.429ZM28,22a6,6,0,1,1,6-6A6,6,0,0,1,28,22Z" fill="#212121"></path> <path data-color="color-2" d="M26,42v4.949A15.006,15.006,0,0,0,40,32V29H39A13.015,13.015,0,0,0,26,42Z"></path> <circle data-color="color-2" cx="28" cy="16" r="3"></circle></g></svg>