<svg xmlns="http://www.w3.org/2000/svg" height="48" width="48" viewBox="0 0 48 48"><title>privacy policy</title><g fill="#212121" class="nc-icon-wrapper"><circle cx="10" cy="10" r="5" fill="#212121"></circle> <path d="M40,17c-4.813,0-7.195,2.958-9.3,5.568-1.5,1.866-2.929,3.625-5.226,4.487.042.075.1.141.132.218a3.97,3.97,0,0,1,.163,3.058,3.911,3.911,0,0,1-.266.593A1.959,1.959,0,0,0,26,31a1.985,1.985,0,0,0,.665-.115A14.317,14.317,0,0,0,33,26.077V42a1,1,0,0,0,1,1H46a1,1,0,0,0,1-1V24A7.009,7.009,0,0,0,40,17Z" data-color="color-2"></path> <path d="M22.665,27.114c-2.384-.841-3.833-2.64-5.367-4.546C15.2,19.958,12.813,17,8,17a7.009,7.009,0,0,0-7,7V42a1,1,0,0,0,1,1H14a1,1,0,0,0,1-1V26.077a14.317,14.317,0,0,0,6.335,4.809,2,2,0,0,0,1.33-3.772Z" fill="#212121"></path> <circle cx="38" cy="10" r="5" data-color="color-2"></circle></g></svg>