<svg xmlns="http://www.w3.org/2000/svg" height="48" width="48" viewBox="0 0 48 48"><title>ranking</title><g fill="#212121" class="nc-icon-wrapper"><path d="M13.188,22.434l1.194.657,3.675-7.35,12.571,8.98a1.5,1.5,0,0,0,2.093-.349L46.093,5.651,43.651,3.907l-12.5,17.5L18.372,12.279a1.5,1.5,0,0,0-2.214.55l-4.59,9.18A3.5,3.5,0,0,1,13.188,22.434Z" fill="#212121"></path> <polygon points="10.601 29 8.073 29 1.487 42.171 4.171 43.513 11.249 29.357 10.601 29" fill="#212121"></polygon> <path d="M31.5,38a1.5,1.5,0,0,1-.723-.186L11.114,27H2V24h9.5a1.488,1.488,0,0,1,.723.186l19.145,10.53L44.286,24.9,46.1,27.286,32.407,37.694A1.5,1.5,0,0,1,31.5,38Z" data-color="color-2"></path></g></svg>