<svg xmlns="http://www.w3.org/2000/svg" height="48" width="48" viewBox="0 0 48 48"><title>rice</title><g fill="#212121" class="nc-icon-wrapper"><path d="M46,23H2a1,1,0,0,0-1,1A23.057,23.057,0,0,0,14.458,44.909a1,1,0,0,0,.416.091H33.126a1,1,0,0,0,.416-.091A23.057,23.057,0,0,0,47,24,1,1,0,0,0,46,23Z" fill="#212121"></path> <circle cx="8" cy="9" r="1" fill="#212121"></circle> <circle cx="23" cy="6" r="1" fill="#212121"></circle> <path d="M46.555,1.168a1,1,0,0,0-1.387.277l-7.8,11.692a6.948,6.948,0,0,0-5.435,1.174c-.114-.182-.243-.351-.372-.521l3.375-9.454a1,1,0,1,0-1.882-.672l-3.072,8.6a6.92,6.92,0,0,0-6.617-.751,6.986,6.986,0,0,0-11.693,1.5A6.937,6.937,0,0,0,5.08,21H42.92a6.913,6.913,0,0,0-3.609-7.165l7.521-11.28A1,1,0,0,0,46.555,1.168ZM18,17a1,1,0,1,1,1-1A1,1,0,0,1,18,17Z" data-color="color-2"></path></g></svg>