<svg xmlns="http://www.w3.org/2000/svg" height="48" width="48" viewBox="0 0 48 48"><title>savings</title><g fill="#212121" class="nc-icon-wrapper"><path d="M24,0A11,11,0,1,0,35,11,11.013,11.013,0,0,0,24,0Zm4.707,11.707-4,4a1,1,0,0,1-1.414,0l-4-4a1,1,0,0,1,0-1.414l4-4a1,1,0,0,1,1.414,0l4,4A1,1,0,0,1,28.707,11.707Z" data-color="color-2"></path><path d="M13.486,38l1.528,9.164A1,1,0,0,0,16,48H32a1,1,0,0,0,.986-.836L34.514,38Z" fill="#212121"></path><path d="M44.58,24.249A12.98,12.98,0,0,0,24,29.008,12.98,12.98,0,0,0,3.42,24.249a1,1,0,0,0,0,1.5,12.949,12.949,0,0,0,16.456.577A10.968,10.968,0,0,1,23,34H14a1,1,0,0,0-.986,1.164l.139.836H34.847l.139-.836A1,1,0,0,0,34,34H25a10.968,10.968,0,0,1,3.124-7.672,12.949,12.949,0,0,0,16.456-.577,1,1,0,0,0,0-1.5Z" fill="#212121"></path></g></svg>