<svg xmlns="http://www.w3.org/2000/svg" height="48" width="48" viewBox="0 0 48 48"><title>settings</title><g fill="#212121" class="nc-icon-wrapper"><path d="M35.629,24.383A11.321,11.321,0,0,0,45.977,14.034a12.35,12.35,0,0,0-.485-4.291L39.48,15.754,32.251,8.525l6.011-6.012a12.342,12.342,0,0,0-4.29-.477,11.321,11.321,0,0,0-10.35,10.348,12.345,12.345,0,0,0,.479,4.295L3.046,35.688a3.171,3.171,0,0,0-.226,4.478c.036.04.072.078.11.115l4.793,4.794a3.17,3.17,0,0,0,4.483-.008c.037-.036.072-.074.107-.112L31.333,23.9A12.354,12.354,0,0,0,35.629,24.383Z" fill="#212121"></path><path data-color="color-2" d="M8.414,14H11l6.208,6.208,3.153-2.847L14,11V8.414a1,1,0,0,0-.293-.707L8,2,2,8l5.707,5.707A1,1,0,0,0,8.414,14Z"></path><path data-color="color-2" d="M43.989,35.373,33.556,26.346a14.457,14.457,0,0,1-1.539-.215l-6.42,7.1,9.776,10.753q.1.116.213.225a6.1,6.1,0,0,0,8.627,0c.073-.073.144-.148.213-.224A6.1,6.1,0,0,0,43.989,35.373Z"></path></g></svg>