<svg xmlns="http://www.w3.org/2000/svg" height="48" width="48" viewBox="0 0 48 48"><title>sleeping baby</title><g fill="#212121" class="nc-icon-wrapper"><path d="M43,19c-.094,0-.182.023-.274.028A19.988,19.988,0,0,0,24,6a3,3,0,0,0,0,6,2,2,0,0,0,2-2,1,1,0,0,1,2,0,4,4,0,0,1-4,4,5.006,5.006,0,0,1-5-5,4.944,4.944,0,0,1,.71-2.526A20.028,20.028,0,0,0,5.274,19.028C5.182,19.023,5.094,19,5,19a4.99,4.99,0,0,0-.763,9.923,19.974,19.974,0,0,0,39.526,0A4.99,4.99,0,0,0,43,19ZM16.5,26a4.462,4.462,0,0,1-4.053-2.569,1,1,0,0,1,1.805-.862,2.481,2.481,0,0,0,4.5,0,1,1,0,0,1,1.8.862A4.462,4.462,0,0,1,16.5,26ZM24,40a4,4,0,1,1,4-4A4,4,0,0,1,24,40ZM35.539,23.43a4.459,4.459,0,0,1-8.078,0,1,1,0,0,1,1.807-.86,2.457,2.457,0,0,0,4.464,0,1,1,0,0,1,1.807.86Z" fill="#212121"></path><path d="M47,9H41a1,1,0,0,1-.759-1.65L44.826,2H41a1,1,0,0,1,0-2h6a1,1,0,0,1,.759,1.65L43.174,7H47a1,1,0,0,1,0,2Z" data-color="color-2"></path></g></svg>