<svg xmlns="http://www.w3.org/2000/svg" height="48" width="48" viewBox="0 0 48 48"><title>smiling face glasses</title><g fill="#212121" class="nc-icon-wrapper"><path d="M14,15a6,6,0,1,0,6,6A6.006,6.006,0,0,0,14,15Zm0,9a3,3,0,1,1,3-3A3,3,0,0,1,14,24Z" fill="#212121"></path> <path d="M34,15a6,6,0,1,0,6,6A6.006,6.006,0,0,0,34,15Zm0,9a3,3,0,1,1,3-3A3,3,0,0,1,34,24Z" fill="#212121"></path> <path d="M24,2A22,22,0,1,0,46,24,22.025,22.025,0,0,0,24,2Zm0,38a8,8,0,0,1-8-8H32A8,8,0,0,1,24,40ZM34,29a8.009,8.009,0,0,1-8-8V19a2,2,0,0,0-4,0v2a8.025,8.025,0,1,1-1.264-4.3,3.981,3.981,0,0,1,6.528,0A8,8,0,1,1,34,29Z" fill="#212121"></path></g></svg>