<svg xmlns="http://www.w3.org/2000/svg" height="48" width="48" viewBox="0 0 48 48"><title>soft drink</title><g fill="#212121" class="nc-icon-wrapper"><path d="M22,2a1,1,0,0,0-1-1H14a1,1,0,0,0-1,1V5h9Z" data-color="color-2"></path> <path d="M26.653,43h6.694a1,1,0,0,0,1-.909l.909-10a1,1,0,0,0-1-1.091H25.744a1,1,0,0,0-1,1.091l.909,10A1,1,0,0,0,26.653,43Z" data-color="color-2"></path> <path d="M18.012,24.271A3,3,0,0,1,21,21h4.483a44.717,44.717,0,0,0-2.32-8.786A17.681,17.681,0,0,1,22,8V7H13V8a17.681,17.681,0,0,1-1.163,4.214c-1.065,3.078-2.524,7.292-2.524,11.639a58.6,58.6,0,0,0,.606,8.631,27.633,27.633,0,0,1,.334,3.771,13.1,13.1,0,0,1-.715,4.069A9.362,9.362,0,0,0,9,43.047,3.819,3.819,0,0,0,12.66,47h8.161a5,5,0,0,1-.974-2.547Z" fill="#212121"></path> <path d="M39.738,23.325A1,1,0,0,0,39,23H21a1,1,0,0,0-1,1.091l1.835,20.18A2.985,2.985,0,0,0,24.826,47H35.174a2.985,2.985,0,0,0,2.987-2.729L40,24.091A1,1,0,0,0,39.738,23.325ZM36.169,44.091a1,1,0,0,1-.995.909H24.826a1,1,0,0,1-1-.91L22.1,25h15.81Z" fill="#212121"></path></g></svg>