<svg xmlns="http://www.w3.org/2000/svg" height="48" width="48" viewBox="0 0 48 48"><title>statistics</title><g fill="#212121" class="nc-icon-wrapper"><path d="M33,44H27a1,1,0,0,1-1-1V33a1,1,0,0,1,1-1h6a1,1,0,0,1,1,1V43A1,1,0,0,1,33,44Z" fill="#212121"></path><path d="M14.529,12.885a6.007,6.007,0,0,1-1.414-1.414l-5.1,5.095A3.957,3.957,0,0,0,6,16a4,4,0,1,0,4,4,3.957,3.957,0,0,0-.566-2.02Z" data-color="color-2"></path><circle cx="18" cy="8" r="4" data-color="color-2"></circle><circle cx="42" cy="8" r="4" data-color="color-2"></circle><path d="M38.529,12.885a6.007,6.007,0,0,1-1.414-1.414L32.02,16.566a3.888,3.888,0,0,0-4.04,0l-5.095-5.095a6.007,6.007,0,0,1-1.414,1.414l5.095,5.1A3.957,3.957,0,0,0,26,20a4,4,0,0,0,8,0,3.957,3.957,0,0,0-.566-2.02Z" data-color="color-2"></path><path d="M9,44H3a1,1,0,0,1-1-1V33a1,1,0,0,1,1-1H9a1,1,0,0,1,1,1V43A1,1,0,0,1,9,44Z" fill="#212121"></path><path d="M21,44H15a1,1,0,0,1-1-1V21a1,1,0,0,1,1-1h6a1,1,0,0,1,1,1V43A1,1,0,0,1,21,44Z" fill="#212121"></path><path d="M45,44H39a1,1,0,0,1-1-1V21a1,1,0,0,1,1-1h6a1,1,0,0,1,1,1V43A1,1,0,0,1,45,44Z" fill="#212121"></path></g></svg>