<svg xmlns="http://www.w3.org/2000/svg" height="48" width="48" viewBox="0 0 48 48"><title>thumb up</title><g fill="#212121" class="nc-icon-wrapper"><rect data-color="color-2" x="1" y="20" width="8" height="24" rx="3" ry="3"></rect> <path d="M47,29a4.926,4.926,0,0,0-1.6-3.652A4.926,4.926,0,0,0,46,23a5.006,5.006,0,0,0-5-5H24V8c0-5.537-3.925-7-6-7a1,1,0,0,0-.944.671L11,22V42.613A29.993,29.993,0,0,0,23,45H39a4,4,0,0,0,4-4,3.96,3.96,0,0,0-.4-1.747,4.976,4.976,0,0,0,2.071-6.043A4.989,4.989,0,0,0,47,29Z" fill="#212121"></path></g></svg>