<svg xmlns="http://www.w3.org/2000/svg" height="48" width="48" viewBox="0 0 48 48"><title>upload file</title><g fill="#212121" class="nc-icon-wrapper"><path data-color="color-2" d="M16,15h6V33a2,2,0,0,0,4,0V15h6a1,1,0,0,0,.809-1.588l-8-11a1.038,1.038,0,0,0-1.618,0l-8,11A1,1,0,0,0,16,15Z"></path><path d="M45.953,43.7l-7-22A1,1,0,0,0,38,21H30a1,1,0,0,0,0,2h7.269l6.364,20H4.367l6.364-20H18a1,1,0,0,0,0-2H10a1,1,0,0,0-.953.7l-7,22A1,1,0,0,0,3,45H45a1,1,0,0,0,.953-1.3Z" fill="#212121"></path></g></svg>