<svg xmlns="http://www.w3.org/2000/svg" height="48" width="48" viewBox="0 0 48 48"><title>web hyperlink</title><g fill="#212121" class="nc-icon-wrapper"><path d="M30,32H17V28H30a3,3,0,0,0,3-3V11a3,3,0,0,0-3-3H8a3,3,0,0,0-3,3V25a3,3,0,0,0,3,3H9v4H8a7.008,7.008,0,0,1-7-7V11A7.008,7.008,0,0,1,8,4H30a7.008,7.008,0,0,1,7,7V25A7.008,7.008,0,0,1,30,32Z" fill="#212121"></path><path data-color="color-2" d="M40,44H18a7.008,7.008,0,0,1-7-7V23a7.008,7.008,0,0,1,7-7H31v4H18a3,3,0,0,0-3,3V37a3,3,0,0,0,3,3H40a3,3,0,0,0,3-3V23a3,3,0,0,0-3-3H39V16h1a7.008,7.008,0,0,1,7,7V37A7.008,7.008,0,0,1,40,44Z"></path></g></svg>