<svg xmlns="http://www.w3.org/2000/svg" height="16" width="16" viewBox="0 0 16 16"><title>armchair</title><g stroke-width="1" stroke-linejoin="round" fill="none" stroke="#212121" stroke-linecap="round" class="nc-icon-wrapper"><path d="M12.5,9v1.5h-9V9A1.5,1.5,0,0,0,2,7.5H2A1.5,1.5,0,0,0,.5,9v4.5h15V9A1.5,1.5,0,0,0,14,7.5h0A1.5,1.5,0,0,0,12.5,9Z"></path><path d="M2.5,5.5V2A1.5,1.5,0,0,1,4,.5h8A1.5,1.5,0,0,1,13.5,2V5.5" stroke="#212121"></path><line x1="2.5" y1="13.5" x2="2.5" y2="15.5"></line><line x1="13.5" y1="13.5" x2="13.5" y2="15.5"></line></g></svg>