<svg xmlns="http://www.w3.org/2000/svg" height="16" width="16" viewBox="0 0 16 16"><title>car front</title><g stroke-width="1" stroke-linejoin="round" fill="none" stroke="#212121" stroke-linecap="round" class="nc-icon-wrapper"><polyline points="4.5 12.5 4.5 15.5 0.5 15.5 0.5 12.5" stroke="#212121"></polyline><polyline points="15.5 12.5 15.5 15.5 11.5 15.5 11.5 12.5" stroke="#212121"></polyline><path d="M15.5,12.5H.5V8.914a1,1,0,0,1,.293-.707L1.5,7.5h13l.707.707a1,1,0,0,1,.293.707Z"></path><circle cx="3" cy="10" r="1" fill="#212121" stroke="none"></circle><circle cx="13" cy="10" r="1" fill="#212121" stroke="none"></circle><path d="M1.5,7.5l.816-5.712A1.5,1.5,0,0,1,3.8.5h8.4a1.5,1.5,0,0,1,1.485,1.288L14.5,7.5"></path></g></svg>