<svg xmlns="http://www.w3.org/2000/svg" height="16" width="16" viewBox="0 0 16 16"><title>rice</title><g stroke-width="1" stroke-linejoin="round" fill="none" stroke="#212121" stroke-linecap="round" class="nc-icon-wrapper"><path d="M5.325,15.5h5.35a7.5,7.5,0,0,0,4.825-7H.5A7.5,7.5,0,0,0,5.325,15.5Z"></path> <path d="M14.5,6.5a2,2,0,0,0-3.621-1.163A1.973,1.973,0,0,0,8.05,4.25a1.983,1.983,0,0,0-3.43.593A2,2,0,0,0,1.5,6.5" stroke="#212121"></path> <line x1="13.151" y1="4.61" x2="15.5" y2="0.5" stroke="#212121"></line> <line x1="10.879" y1="5.337" x2="11.708" y2="1.5" stroke="#212121"></line> <circle cx="3.5" cy="2.5" r="0.5" fill="#212121" stroke="none"></circle> <circle cx="8.5" cy="1.5" r="0.5" fill="#212121" stroke="none"></circle></g></svg>