<svg xmlns="http://www.w3.org/2000/svg" height="16" width="16" viewBox="0 0 16 16"><title>romantic restaurant</title><g stroke-width="1" stroke-linejoin="round" fill="none" stroke="#212121" stroke-linecap="round" class="nc-icon-wrapper"><line x1="8" y1="15.5" x2="8" y2="9.5"></line><line x1="3.5" y1="9.5" x2="12.5" y2="9.5"></line><line x1="15.5" y1="8.5" x2="15.5" y2="15.5"></line><polyline points="15.5 12.5 11.5 12.5 11.5 15.5"></polyline><line x1="0.5" y1="8.5" x2="0.5" y2="15.5"></line><polyline points="0.5 12.5 4.5 12.5 4.5 15.5"></polyline><path d="M10.941,1.041A1.925,1.925,0,0,0,8,1.364a1.925,1.925,0,0,0-2.941-.323,1.878,1.878,0,0,0,0,2.673L8,6.625l2.941-2.912A1.877,1.877,0,0,0,10.941,1.041Z" stroke="#212121"></path></g></svg>