<svg xmlns="http://www.w3.org/2000/svg" height="16" width="16" viewBox="0 0 16 16"><title>soft drink</title><g stroke-width="1" stroke-linejoin="round" fill="none" stroke="#212121" stroke-linecap="round" class="nc-icon-wrapper"><path d="M11.633,15.5H8.367a1,1,0,0,1-.99-.859L6.5,8.5h7l-.877,6.141A1,1,0,0,1,11.633,15.5Z" stroke="#212121"></path> <path d="M8.537,6C8.157,4.463,7.5,3.138,7.5,2.5V.5h-3v2c0,.9-1.3,3.155-1.3,5.45s.317,3.093.317,4.191a20.717,20.717,0,0,1-.423,2.3A1.028,1.028,0,0,0,4,15.5H5"></path></g></svg>