<svg xmlns="http://www.w3.org/2000/svg" height="16" width="16" viewBox="0 0 16 16"><title>web hyperlink</title><g stroke-width="1" stroke-linejoin="round" fill="none" stroke="#212121" stroke-linecap="round" class="nc-icon-wrapper"><path d="M2.5,10.5H2A1.5,1.5,0,0,1,.5,9V4A1.5,1.5,0,0,1,2,2.5h8A1.5,1.5,0,0,1,11.5,4V9A1.5,1.5,0,0,1,10,10.5H6.5"></path><path d="M13.5,6.5H14A1.5,1.5,0,0,1,15.5,8v5A1.5,1.5,0,0,1,14,14.5H6A1.5,1.5,0,0,1,4.5,13V8A1.5,1.5,0,0,1,6,6.5H9.5" stroke="#212121"></path> </g></svg>