<svg xmlns="http://www.w3.org/2000/svg" height="12" width="12" viewBox="0 0 12 12"><title>present</title><g fill="#212121" class="nc-icon-wrapper"><path d="M11.5,3H10.268a1.784,1.784,0,0,0,.231-.972A1.934,1.934,0,0,0,8.667,0,3.146,3.146,0,0,0,6,2.066,3.163,3.163,0,0,0,3.3,0h0A1.928,1.928,0,0,0,1.5,2a1.883,1.883,0,0,0,.242,1H.5a.5.5,0,0,0-.5.5v1A.5.5,0,0,0,.5,5h11a.5.5,0,0,0,.5-.5v-1A.5.5,0,0,0,11.5,3ZM8.636,1A.945.945,0,0,1,9.5,2.028.925.925,0,0,1,8.65,3H6.685C6.978,2.228,7.605,1,8.636,1ZM2.5,2.028a.523.523,0,0,0,0-.056A.922.922,0,0,1,3.333,1C4.4,1,5.029,2.227,5.318,3H3.36A.925.925,0,0,1,2.5,2.028Z" data-color="color-2"></path><path d="M5,6H1v4.5A1.5,1.5,0,0,0,2.5,12H5Z" fill="#212121"></path><path d="M7,6v6H9.5A1.5,1.5,0,0,0,11,10.5V6Z" fill="#212121"></path></g></svg>