<svg xmlns="http://www.w3.org/2000/svg" height="12" width="12" viewBox="0 0 12 12"><title>stack</title><g fill="#212121" class="nc-icon-wrapper"><path data-color="color-2" d="M11.671,8.53,11.032,8.3,6.684,9.879a2,2,0,0,1-1.363,0L.968,8.3.329,8.53a.5.5,0,0,0,0,.94l5.5,2a.5.5,0,0,0,.342,0l5.5-2a.5.5,0,0,0,0-.94Z"></path><path data-color="color-2" d="M11.671,5.53,11.032,5.3,6.684,6.879a2,2,0,0,1-1.363,0L.968,5.3.329,5.53a.5.5,0,0,0,0,.94l5.5,2a.5.5,0,0,0,.342,0l5.5-2a.5.5,0,0,0,0-.94Z"></path><path d="M11.671,2.53l-5.5-2a.5.5,0,0,0-.342,0l-5.5,2a.5.5,0,0,0,0,.94l5.5,2a.5.5,0,0,0,.342,0l5.5-2a.5.5,0,0,0,0-.94Z" fill="#212121"></path></g></svg>