<svg xmlns="http://www.w3.org/2000/svg" height="12" width="12" viewBox="0 0 12 12"><title>transactions</title><g fill="#212121" class="nc-icon-wrapper"><path d="M6,4a2,2,0,0,0,1.646-.869A3.779,3.779,0,0,1,9.661,5.685a.751.751,0,0,0,.732.587.759.759,0,0,0,.163-.017.751.751,0,0,0,.57-.895A5.277,5.277,0,0,0,7.964,1.641,2,2,0,1,0,6,4Z" fill="#212121"></path><path d="M2.312,7.032A3.8,3.8,0,0,1,2.25,6.5,3.727,3.727,0,0,1,3.313,3.885.75.75,0,0,0,2.238,2.838,5.22,5.22,0,0,0,.75,6.5a5.323,5.323,0,0,0,.083.883,2,2,0,1,0,1.479-.351Z" fill="#212121"></path><path d="M10,7A2,2,0,0,0,8,9a1.946,1.946,0,0,0,.1.579,3.8,3.8,0,0,1-2.968.568.75.75,0,0,0-.352,1.459,5.183,5.183,0,0,0,4.275-.857A1.972,1.972,0,0,0,10,11a2,2,0,0,0,0-4Z" data-color="color-2"></path></g></svg>