<?xml version="1.0" encoding="iso-8859-1"?>
<!-- Generator: Adobe Illustrator 19.0.0, SVG Export Plug-In . SVG Version: 6.00 Build 0)  -->
<svg version="1.1" id="Layer_1" xmlns="http://www.w3.org/2000/svg" xmlns:xlink="http://www.w3.org/1999/xlink" x="0px" y="0px"
	 viewBox="0 0 512 512" style="enable-background:new 0 0 512 512;" xml:space="preserve">
<g>
	<g>
		<path d="M421.227,0H90.773C40.72,0,0,40.72,0,90.773v330.454C0,471.28,40.72,512,90.773,512h330.454
			C471.28,512,512,471.28,512,421.227V90.773C512,40.72,471.28,0,421.227,0z M491.602,421.227c0,38.805-31.57,70.375-70.375,70.375
			H90.773c-38.805,0-70.374-31.57-70.374-70.375V90.773c0-38.805,31.57-70.375,70.374-70.375h330.454
			c38.805,0,70.375,31.57,70.375,70.375V421.227z"/>
	</g>
</g>
<g>
	<g>
		<path d="M431.597,36.717h-20.569c-5.632,0-10.199,4.566-10.199,10.199c0,5.633,4.567,10.199,10.199,10.199h20.569
			c5.632,0,10.199-4.566,10.199-10.199C441.796,41.283,437.229,36.717,431.597,36.717z"/>
	</g>
</g>
<g>
	<g>
		<path d="M368.191,36.717H80.403c-5.633,0-10.199,4.566-10.199,10.199c0,5.633,4.566,10.199,10.199,10.199h287.788
			c5.632,0,10.199-4.566,10.199-10.199C378.39,41.283,373.823,36.717,368.191,36.717z"/>
	</g>
</g>
<g>
	<g>
		<path d="M369.383,223.81L186.154,99.9c-11.938-8.074-27.262-8.891-39.991-2.132c-12.729,6.759-20.636,19.91-20.636,34.321v247.82
			c0,14.411,7.907,27.563,20.636,34.321c5.733,3.043,11.991,4.551,18.23,4.551c7.614,0,15.199-2.246,21.761-6.682l183.229-123.91
			c10.702-7.237,17.092-19.27,17.092-32.19S380.085,231.048,369.383,223.81z M357.955,271.291l-183.23,123.91
			c-5.756,3.893-12.858,4.273-18.998,1.013c-6.139-3.259-9.803-9.355-9.803-16.304v-247.82c0-6.95,3.665-13.045,9.803-16.304
			c2.772-1.471,5.739-2.201,8.691-2.201c3.587,0,7.15,1.078,10.307,3.214l183.23,123.91c5.16,3.489,8.12,9.063,8.12,15.292
			C366.075,262.228,363.115,267.802,357.955,271.291z"/>
	</g>
</g>
<g>
</g>
<g>
</g>
<g>
</g>
<g>
</g>
<g>
</g>
<g>
</g>
<g>
</g>
<g>
</g>
<g>
</g>
<g>
</g>
<g>
</g>
<g>
</g>
<g>
</g>
<g>
</g>
<g>
</g>
</svg>
