<svg version="1.1" id="Uploaded to svgrepo.com" xmlns="http://www.w3.org/2000/svg" xmlns:xlink="http://www.w3.org/1999/xlink" x="0px" y="0px"
	 width="32px" height="32px" viewBox="0 0 32 32" style="enable-background:new 0 0 32 32;" xml:space="preserve">
<style type="text/css">
	.blueprint_een{fill:#111918;}
</style>
<path class="blueprint_een" d="M26.958,11.076C26.49,5.993,22.203,2,17,2c-4.379,0-8.254,2.899-9.543,7.015
	c-4.26-0.262-7.875,3.381-7.418,7.728C0.419,20.357,3.661,23,7.295,23H12v6c0,0.552,0.448,1,1,1h6c0.552,0,1-0.448,1-1v-6h5.788
	c2.99,0,5.684-2.097,6.139-5.053C32.449,14.557,30.11,11.584,26.958,11.076z M18,21v7h-4v-7h-2.586L16,16.414L20.586,21H18z
	 M25.856,21H22l-5.293-5.293c-0.391-0.391-1.024-0.391-1.414,0L10,21H7.223c-2.61,0-4.945-1.903-5.199-4.5
	C1.733,13.52,4.078,11,7,11c0.345,0,0.693,0.036,1.033,0.107c0.534,0.111,1.035-0.274,1.151-0.807C9.975,6.647,13.257,4,17,4
	c4.395,0,7.974,3.563,8,7.952C25.003,12.51,25.443,13,26.001,13c2.395,0.001,4.305,2.117,3.958,4.578
	C29.678,19.572,27.869,21,25.856,21z"/>
</svg>