<?xml version="1.0" encoding="iso-8859-1"?>
<!-- Generator: Adobe Illustrator 17.1.0, SVG Export Plug-In . SVG Version: 6.00 Build 0)  -->
<!DOCTYPE svg PUBLIC "-//W3C//DTD SVG 1.1//EN" "http://www.w3.org/Graphics/SVG/1.1/DTD/svg11.dtd">
<svg version="1.1" id="Capa_1" xmlns="http://www.w3.org/2000/svg" xmlns:xlink="http://www.w3.org/1999/xlink" x="0px" y="0px"
	 viewBox="0 0 455 455" style="enable-background:new 0 0 455 455;" xml:space="preserve">
<g>
	<path d="M371.346,104.615c-8.104,0-16.048,1.146-23.713,3.412c-7.519-23.752-22.148-45.077-41.788-60.7
		C283.369,29.45,256.278,20,227.5,20s-55.869,9.45-78.345,27.328c-19.64,15.622-34.27,36.948-41.788,60.7
		c-7.665-2.267-15.609-3.412-23.713-3.412C37.527,104.615,0,142.142,0,188.269s37.527,83.654,83.654,83.654H197.5
		c4.143,0,7.5-3.358,7.5-7.5s-3.357-7.5-7.5-7.5H83.654C45.798,256.923,15,226.125,15,188.269s30.798-68.654,68.654-68.654
		c8.97,0,17.697,1.707,25.938,5.073c2.021,0.825,4.298,0.73,6.244-0.262c1.943-0.991,3.359-2.781,3.877-4.9
		C131.877,69.758,176.2,35,227.5,35s95.623,34.758,107.786,84.526c0.518,2.12,1.934,3.909,3.877,4.9
		c1.944,0.992,4.222,1.087,6.244,0.262c8.241-3.366,16.969-5.073,25.938-5.073c37.856,0,68.654,30.798,68.654,68.654
		s-30.798,68.654-68.654,68.654H257.5c-4.143,0-7.5,3.358-7.5,7.5s3.357,7.5,7.5,7.5h113.846c46.127,0,83.654-37.527,83.654-83.654
		S417.473,104.615,371.346,104.615z"/>
	<path d="M253.74,214.109l-20-30c-0.001-0.002-0.003-0.004-0.004-0.006c-0.159-0.238-0.334-0.464-0.518-0.682
		c-0.052-0.061-0.106-0.117-0.16-0.176c-0.136-0.151-0.278-0.296-0.426-0.436c-0.068-0.064-0.136-0.126-0.207-0.188
		c-0.156-0.137-0.319-0.266-0.487-0.389c-0.057-0.042-0.113-0.087-0.171-0.128c-0.233-0.162-0.474-0.312-0.726-0.447
		c-0.008-0.004-0.016-0.007-0.023-0.011c-0.24-0.128-0.489-0.24-0.744-0.341c-0.065-0.026-0.131-0.048-0.196-0.072
		c-0.202-0.074-0.407-0.14-0.616-0.196c-0.079-0.022-0.159-0.042-0.239-0.061c-0.206-0.049-0.416-0.087-0.628-0.118
		c-0.077-0.011-0.152-0.026-0.23-0.035c-0.285-0.033-0.573-0.054-0.866-0.054s-0.582,0.021-0.866,0.054
		c-0.077,0.009-0.153,0.024-0.23,0.035c-0.212,0.031-0.422,0.07-0.628,0.118c-0.08,0.019-0.16,0.04-0.239,0.061
		c-0.209,0.057-0.414,0.122-0.616,0.196c-0.066,0.024-0.132,0.046-0.197,0.072c-0.254,0.102-0.503,0.214-0.743,0.341
		c-0.008,0.004-0.016,0.007-0.023,0.011c-0.251,0.135-0.492,0.285-0.725,0.447c-0.059,0.041-0.114,0.086-0.171,0.128
		c-0.168,0.123-0.33,0.252-0.487,0.389c-0.07,0.061-0.139,0.124-0.207,0.188c-0.148,0.139-0.289,0.285-0.426,0.436
		c-0.053,0.059-0.108,0.115-0.16,0.176c-0.185,0.218-0.359,0.444-0.518,0.682c-0.001,0.002-0.003,0.004-0.004,0.006l-20,30
		c-2.298,3.446-1.366,8.103,2.08,10.401c3.445,2.297,8.103,1.366,10.4-2.08l6.26-9.39V427.5c0,4.142,3.357,7.5,7.5,7.5
		s7.5-3.358,7.5-7.5V213.04l6.26,9.39c1.445,2.168,3.823,3.341,6.247,3.341c1.43,0,2.875-0.408,4.153-1.26
		C255.106,222.212,256.038,217.555,253.74,214.109z"/>
</g>
<g>
</g>
<g>
</g>
<g>
</g>
<g>
</g>
<g>
</g>
<g>
</g>
<g>
</g>
<g>
</g>
<g>
</g>
<g>
</g>
<g>
</g>
<g>
</g>
<g>
</g>
<g>
</g>
<g>
</g>
</svg>
