<?xml version="1.0" encoding="iso-8859-1"?>
<!-- Generator: Adobe Illustrator 19.0.0, SVG Export Plug-In . SVG Version: 6.00 Build 0)  -->
<svg version="1.1" id="Layer_1" xmlns="http://www.w3.org/2000/svg" xmlns:xlink="http://www.w3.org/1999/xlink" x="0px" y="0px"
	 viewBox="0 0 511.995 511.995" style="enable-background:new 0 0 511.995 511.995;" xml:space="preserve">
<path style="fill:#FFFFFF;" d="M102.256,451.394C47.99,451.362,4.03,407.353,4.054,353.095
	c0.024-43.872,29.131-82.412,71.322-94.439l2.963-0.841l-0.08-5.541c-0.032-68.912,55.803-124.811,124.715-124.843
	c49.077-0.024,93.614,28.722,113.801,73.46l1.313,2.891l3.115-0.617c4.804-0.945,9.697-1.425,14.597-1.433
	c32.278,0.04,61.12,20.163,72.291,50.447l0.945,2.578l2.747,0.048c53.537,1.153,96.401,44.761,96.633,98.315
	c-0.072,54.25-44.049,98.211-98.299,98.275L102.256,451.394L102.256,451.394z"/>
<path style="fill:#CCCCCC;" d="M203.109,131.427c47.444,0.08,90.451,27.882,110.013,71.106l2.618,5.789l6.23-1.225
	c4.556-0.897,9.184-1.353,13.829-1.361c30.596,0.048,57.925,19.122,68.519,47.828l1.89,5.165l5.501,0.096
	c51.351,1.105,92.477,42.928,92.701,94.295c-0.072,52.04-42.255,94.207-94.295,94.271h-307.86
	C50.2,447.342,8.049,405.095,8.097,353.039c0.04-42.047,27.93-78.977,68.359-90.531l5.909-1.674l-0.088-6.142v-2.402
	C82.35,185.581,136.4,131.515,203.109,131.427 M203.109,123.419c-71.13,0.08-128.775,57.717-128.855,128.847c0,0.849,0,1.69,0,2.538
	c-54.306,15.478-85.791,72.058-70.313,126.365c12.516,43.92,52.641,74.22,98.315,74.228h307.86
	c56.508-0.24,102.118-46.243,101.878-102.751c-0.24-55.491-44.665-100.677-100.14-101.862
	c-11.635-31.957-42.063-53.193-76.07-53.089c-5.165,0-10.313,0.512-15.374,1.513c-20.843-46.098-66.726-75.75-117.316-75.814
	L203.109,123.419z"/>
<polygon style="fill:#E21B1B;" points="226.411,331.939 285.954,329.954 285.954,175.331 353.68,175.331 256.182,56.598 
	158.684,175.331 226.411,175.331 "/>
<rect x="92.103" y="342.741" style="fill:#999999;" width="328.15" height="8.007"/>
<circle style="fill:#FFFFFF;" cx="256.182" cy="346.721" r="33.167"/>
<path style="fill:#999999;" d="M256.182,383.923c-20.531,0-37.17-16.639-37.17-37.17s16.639-37.17,37.17-37.17
	c20.523,0,37.162,16.639,37.17,37.162C293.336,367.268,276.705,383.907,256.182,383.923z M256.182,317.59
	c-16.103,0-29.163,13.06-29.163,29.163c0,16.103,13.06,29.163,29.163,29.163c16.103,0,29.163-13.06,29.163-29.163l0,0
	C285.337,330.658,272.285,317.606,256.182,317.59L256.182,317.59z"/>
<g>
</g>
<g>
</g>
<g>
</g>
<g>
</g>
<g>
</g>
<g>
</g>
<g>
</g>
<g>
</g>
<g>
</g>
<g>
</g>
<g>
</g>
<g>
</g>
<g>
</g>
<g>
</g>
<g>
</g>
</svg>
