<?xml version="1.0" encoding="iso-8859-1"?>
<!-- Generator: Adobe Illustrator 19.0.0, SVG Export Plug-In . SVG Version: 6.00 Build 0)  -->
<svg version="1.1" id="Layer_1" xmlns="http://www.w3.org/2000/svg" xmlns:xlink="http://www.w3.org/1999/xlink" x="0px" y="0px"
	 viewBox="0 0 512 512" style="enable-background:new 0 0 512 512;" xml:space="preserve">
<g>
	<g>
		<g>
			<path d="M335.074,272.916l-63.979-63.979c-1.984-1.984-4.331-3.541-6.955-4.629c-5.205-2.155-11.093-2.155-16.299,0
				c-2.624,1.088-4.971,2.645-6.955,4.629l-63.979,63.979c-8.341,8.341-8.341,21.824,0,30.165c8.341,8.341,21.824,8.341,30.165,0
				l27.584-27.584v204.501c0,11.797,9.557,21.333,21.333,21.333c11.776,0,21.333-9.536,21.333-21.333V275.498l27.584,27.584
				c4.16,4.16,9.621,6.251,15.083,6.251s10.923-2.091,15.083-6.251C343.415,294.74,343.415,281.258,335.074,272.916z"/>
			<path d="M446.784,164.78c-9.749-73.387-76.949-154.112-157.76-154.112c-43.328,0-87.381,21.291-116.8,55.445
				c-9.408-3.435-19.371-5.205-29.525-5.205c-45.973,0-83.648,36.224-85.952,81.643C22.784,164.438,0,204.865,0,245.334
				c0,25.344,8.405,53.461,23.061,77.12c19.413,31.381,55.019,50.88,92.907,50.88H192v-21.333c-17.109,0-33.173-6.677-45.248-18.752
				C134.656,321.174,128,305.089,128,288.001s6.656-33.173,18.752-45.248l63.979-63.979c5.888-5.952,12.949-10.645,20.843-13.909
				c7.701-3.2,15.957-4.843,24.427-4.843c8.469,0,16.704,1.643,24.533,4.885c7.787,3.221,14.827,7.915,20.8,13.952l63.915,63.893
				C377.344,254.828,384,270.913,384,288.001s-6.656,33.173-18.752,45.248c-12.096,12.075-28.16,18.752-45.248,18.752v21.333h82.453
				c55.36,0,103.168-41.216,108.843-93.845c0.469-4.203,0.704-8.491,0.704-12.821C512,217.686,486.912,179.35,446.784,164.78z"/>
		</g>
	</g>
</g>
<g>
</g>
<g>
</g>
<g>
</g>
<g>
</g>
<g>
</g>
<g>
</g>
<g>
</g>
<g>
</g>
<g>
</g>
<g>
</g>
<g>
</g>
<g>
</g>
<g>
</g>
<g>
</g>
<g>
</g>
</svg>
