<svg xmlns="http://www.w3.org/2000/svg" height="32" width="32" viewBox="0 0 32 32"><title>armchair</title><g stroke-linecap="square" stroke-width="2" fill="none" stroke="#212121" stroke-linejoin="miter" class="nc-icon-wrapper" stroke-miterlimit="10"><line x1="5" y1="31" x2="5" y2="28"></line><line x1="27" y1="31" x2="27" y2="28"></line><path d="M31,28V17.5A3.5,3.5,0,0,0,27.5,14h0A3.5,3.5,0,0,0,24,17.5V21H8V17.5A3.5,3.5,0,0,0,4.5,14h0A3.5,3.5,0,0,0,1,17.5V28Z"></path><path d="M27,10V4a3,3,0,0,0-3-3H8A3,3,0,0,0,5,4v6" stroke="#212121"></path></g></svg>