<svg xmlns="http://www.w3.org/2000/svg" height="32" width="32" viewBox="0 0 32 32"><title>edit levels</title><g stroke-linecap="square" stroke-width="2" fill="none" stroke="#212121" stroke-linejoin="miter" class="nc-icon-wrapper" stroke-miterlimit="10"><polygon points="1 29 1 26 4 24 7 26 7 29 1 29"></polygon><polygon points="13 29 13 26 16 24 19 26 19 29 13 29"></polygon><polygon points="25 29 25 26 28 24 31 26 31 29 25 29"></polygon><line x1="2" y1="20" x2="2" y2="9" stroke="#212121"></line><line x1="14" y1="20" x2="14" y2="11"></line><line x1="26" y1="20" x2="26" y2="5" stroke="#212121"></line><line x1="30" y1="20" x2="30" y2="3"></line><line x1="6" y1="20" x2="6" y2="3"></line><line x1="10" y1="20" x2="10" y2="16" stroke="#212121"></line><line x1="18" y1="20" x2="18" y2="3" stroke="#212121"></line><line x1="22" y1="20" x2="22" y2="11"></line></g></svg>