<svg xmlns="http://www.w3.org/2000/svg" height="32" width="32" viewBox="0 0 32 32"><title>embryo</title><g stroke-linecap="square" stroke-width="2" fill="none" stroke="#212121" stroke-linejoin="miter" class="nc-icon-wrapper" stroke-miterlimit="10"><path d="M10,1l.823,1.234a3,3,0,0,1-.1,3.464l-.617.824a3,3,0,0,0-.288,3.133l2.75,5.542" data-cap="butt" stroke-linecap="butt" stroke="#212121"></path><path d="M5,22H3a2,2,0,0,1-2-2V17a2,2,0,0,1,4,0H5v1"></path><path d="M13,17a4,4,0,0,0-8,0H5" data-cap="butt" stroke-linecap="butt"></path><line x1="5" y1="17" x2="5" y2="18"></line><path d="M9.079,18A7.955,7.955,0,0,0,8,22c0,3.314,3,6,7,6,7.351,0,11.325-5.066,11.921-11.32a6,6,0,0,0,4.052-6.253A6.068,6.068,0,0,0,25.1,5a5.993,5.993,0,0,0-4.146,10.418L17.993,16.6"></path><path d="M19.828,19.828A4,4,0,0,1,13,17h.014a3.989,3.989,0,0,1,2.618-3.759l3.449-1.255-.215.078"></path></g></svg>