<svg xmlns="http://www.w3.org/2000/svg" height="32" width="32" viewBox="0 0 32 32"><title>present</title><g stroke-linecap="square" stroke-width="2" fill="none" stroke="#212121" stroke-linejoin="miter" class="nc-icon-wrapper" stroke-miterlimit="10"><path d="M28,17V27a3,3,0,0,1-3,3H7a3,3,0,0,1-3-3V17"></path> <rect x="1" y="8" width="30" height="5"></rect> <path d="M7,5a3,3,0,0,1,3-3c4.438,0,6,6,6,6H10A3,3,0,0,1,7,5Z" stroke="#212121"></path> <path d="M25,5a3,3,0,0,0-3-3c-4.438,0-6,6-6,6h6A3,3,0,0,0,25,5Z" stroke="#212121"></path> <rect x="13" y="8" width="6" height="22" stroke="#212121"></rect></g></svg>