<svg xmlns="http://www.w3.org/2000/svg" height="32" width="32" viewBox="0 0 32 32"><title>rice</title><g stroke-linecap="square" stroke-width="2" fill="none" stroke="#212121" stroke-linejoin="miter" class="nc-icon-wrapper" stroke-miterlimit="10"><path d="M10.65,30h10.7A14.991,14.991,0,0,0,31,16H1A14.991,14.991,0,0,0,10.65,30Z"></path> <path d="M29,12a3.993,3.993,0,0,0-7.243-2.326A3.943,3.943,0,0,0,16.1,7.5,3.967,3.967,0,0,0,9.239,8.685,4,4,0,0,0,3,12" stroke="#212121"></path> <line x1="26.764" y1="8.413" x2="31" y2="1" stroke="#212121" data-cap="butt" stroke-linecap="butt"></line> <line x1="23.517" y1="8.289" x2="25" y2="2" stroke="#212121" data-cap="butt" stroke-linecap="butt"></line> <circle cx="6" cy="4" r="1" fill="#212121" stroke="none"></circle> <circle cx="17" cy="2" r="1" fill="#212121" stroke="none"></circle></g></svg>