<svg xmlns="http://www.w3.org/2000/svg" height="32" width="32" viewBox="0 0 32 32"><title>romantic restaurant</title><g stroke-linecap="square" stroke-width="2" fill="none" stroke="#212121" stroke-linejoin="miter" class="nc-icon-wrapper" stroke-miterlimit="10"><line x1="8" y1="20" x2="24" y2="20"></line><line x1="16" y1="31" x2="16" y2="20"></line><line x1="31" y1="18" x2="31" y2="31"></line><polyline points="31 25 23 25 23 31"></polyline><line x1="1" y1="18" x2="1" y2="31"></line><polyline points="1 25 9 25 9 31"></polyline><path d="M21.881,2.157A3.74,3.74,0,0,0,16,2.768a3.741,3.741,0,0,0-5.882-.611,4.051,4.051,0,0,0,0,5.589L16,13.834l5.883-6.088A4.049,4.049,0,0,0,21.881,2.157Z" stroke="#212121"></path></g></svg>