<svg xmlns="http://www.w3.org/2000/svg" height="32" width="32" viewBox="0 0 32 32"><title>sleeping baby</title><g stroke-linecap="square" stroke-width="2" fill="none" stroke="#212121" stroke-linejoin="miter" class="nc-icon-wrapper" stroke-miterlimit="10"><circle cx="16" cy="25" r="2" stroke="#212121"></circle><path d="M9.071,16.5a1.99,1.99,0,0,0,3.858,0" stroke="#212121"></path><path d="M19,16.5a1.991,1.991,0,0,0,3.859,0" stroke="#212121"></path><polyline points="25 1 30 1 26 6 31 6" stroke="#212121"></polyline><path d="M28,15a2.95,2.95,0,0,0-.668.081,11.986,11.986,0,0,0-22.664,0A2.95,2.95,0,0,0,4,15a3,3,0,0,0,0,6c.061,0,.117-.014.177-.018a11.986,11.986,0,0,0,23.646,0c.06,0,.116.018.177.018a3,3,0,0,0,0-6Z"></path><path d="M16,7a3,3,0,1,0,2.121,5.121" data-cap="butt" stroke-linecap="butt"></path></g></svg>