<svg xmlns="http://www.w3.org/2000/svg" height="32" width="32" viewBox="0 0 32 32"><title>smiling face sunglasses</title><g stroke-linecap="square" stroke-width="2" fill="none" stroke="#212121" stroke-linejoin="miter" class="nc-icon-wrapper" stroke-miterlimit="10"><circle cx="16" cy="16" r="15"></circle> <path d="M21.2,22A6,6,0,0,1,10.8,22" stroke="#212121"></path> <path d="M9.64,9A4.534,4.534,0,0,0,5.608,11.25,4.483,4.483,0,0,0,7.265,17.4a4.545,4.545,0,0,0,6.187-1.646l1.578-2.714a1.025,1.025,0,0,1,1.94,0l1.578,2.714A4.545,4.545,0,0,0,24.735,17.4a4.483,4.483,0,0,0,1.657-6.146A4.534,4.534,0,0,0,22.36,9Z" fill-rule="evenodd" stroke="none" fill="#212121"></path></g></svg>