<svg xmlns="http://www.w3.org/2000/svg" height="32" width="32" viewBox="0 0 32 32"><title>soft drink</title><g stroke-linecap="square" stroke-width="2" fill="none" stroke="#212121" stroke-linejoin="miter" class="nc-icon-wrapper" stroke-miterlimit="10"><path d="M23.129,31H16.871a2,2,0,0,1-1.995-1.867L14,16H26l-.876,13.133A2,2,0,0,1,23.129,31Z" stroke="#212121"></path> <path d="M16.074,12C15.314,8.926,14,6.276,14,5V1H10V5c0,1.8-2.6,6.31-2.6,10.9s.635,6.187.635,8.382-.846,3.341-.846,4.59A2.057,2.057,0,0,0,9,31h2"></path> <line x1="14.533" y1="24" x2="25.467" y2="24" data-cap="butt" stroke-linecap="butt" stroke="#212121"></line></g></svg>