<svg xmlns="http://www.w3.org/2000/svg" height="16" width="16" viewBox="0 0 16 16"><title>alarm disable</title><g fill="#212121" class="nc-icon-wrapper"><path d="M10,14H6a2,2,0,0,0,4,0Z" fill="#212121"></path><path d="M1,13H3l9.694-9.694A4.928,4.928,0,0,0,8,0,4.951,4.951,0,0,0,3,5V8a4.351,4.351,0,0,1-1.5,3H1a1,1,0,0,0,0,2Z" fill="#212121"></path><path d="M15,11h-.5A4.351,4.351,0,0,1,13,8V7.242L7.242,13H15a1,1,0,0,0,0-2Z" fill="#212121"></path><path data-color="color-2" d="M1,16a1,1,0,0,1-.707-1.707l14-14a1,1,0,0,1,1.414,1.414l-14,14A1,1,0,0,1,1,16Z"></path> </g></svg>