<svg xmlns="http://www.w3.org/2000/svg" height="16" width="16" viewBox="0 0 16 16"><title>blockchain</title><g fill="#212121" class="nc-icon-wrapper"><path d="M15.724,8.053l-4-2a.5.5,0,0,0-.448,0l-4,2A.5.5,0,0,0,7,8.5v5a.5.5,0,0,0,.276.447l4,2a.5.5,0,0,0,.448,0l4-2A.5.5,0,0,0,16,13.5v-5A.5.5,0,0,0,15.724,8.053ZM14.335,9.929l-2.5,1.25a.75.75,0,0,1-.67,0l-2.5-1.25a.75.75,0,0,1,.67-1.342L11.5,9.669l2.165-1.082a.75.75,0,0,1,.67,1.342Z" fill="#212121"></path><path d="M8.724,2.053l-4-2a.5.5,0,0,0-.448,0l-4,2A.5.5,0,0,0,0,2.5v5a.5.5,0,0,0,.276.447l4,2a.5.5,0,0,0,.448,0L5,9.809V8.5A2.486,2.486,0,0,1,6.38,6.265L9,4.955V2.5A.5.5,0,0,0,8.724,2.053ZM7.335,3.929l-2.5,1.25a.75.75,0,0,1-.67,0l-2.5-1.25a.75.75,0,0,1,.67-1.342L4.5,3.669,6.665,2.587a.75.75,0,1,1,.67,1.342Z" data-color="color-2"></path></g></svg>