<svg xmlns="http://www.w3.org/2000/svg" height="16" width="16" viewBox="0 0 16 16"><title>car front</title><g fill="#212121" class="nc-icon-wrapper"><path fill="#212121" d="M15.7,8.3l-0.8-0.8l-1-6.7C13.9,0.4,13.5,0,13,0H3C2.5,0,2.1,0.4,2,0.9l-1,6.7L0.3,8.3C0.1,8.5,0,8.7,0,9v4 c0,0.6,0.4,1,1,1v1c0,0.6,0.4,1,1,1h2c0.6,0,1-0.4,1-1v-1h6v1c0,0.6,0.4,1,1,1h2c0.6,0,1-0.4,1-1v-1c0.6,0,1-0.4,1-1V9 C16,8.7,15.9,8.5,15.7,8.3z M3,12c-0.6,0-1-0.4-1-1s0.4-1,1-1s1,0.4,1,1S3.6,12,3,12z M3.2,7l0.7-5h8.3l0.7,5H3.2z M13,12 c-0.6,0-1-0.4-1-1s0.4-1,1-1s1,0.4,1,1S13.6,12,13,12z"></path></g></svg>