<svg xmlns="http://www.w3.org/2000/svg" height="16" width="16" viewBox="0 0 16 16"><title>grid interface</title><g fill="#212121" class="nc-icon-wrapper"><path fill="#212121" d="M6,0H1C0.4,0,0,0.4,0,1v5c0,0.6,0.4,1,1,1h5c0.6,0,1-0.4,1-1V1C7,0.4,6.6,0,6,0z"></path> <path data-color="color-2" d="M15,0h-5C9.4,0,9,0.4,9,1v5c0,0.6,0.4,1,1,1h5c0.6,0,1-0.4,1-1V1C16,0.4,15.6,0,15,0z"></path> <path data-color="color-2" d="M6,9H1c-0.6,0-1,0.4-1,1v5c0,0.6,0.4,1,1,1h5c0.6,0,1-0.4,1-1v-5C7,9.4,6.6,9,6,9z"></path> <path fill="#212121" d="M15,9h-5c-0.6,0-1,0.4-1,1v5c0,0.6,0.4,1,1,1h5c0.6,0,1-0.4,1-1v-5C16,9.4,15.6,9,15,9z"></path></g></svg>