<svg xmlns="http://www.w3.org/2000/svg" height="16" width="16" viewBox="0 0 16 16"><title>img</title><g fill="#212121" class="nc-icon-wrapper"><path data-color="color-2" d="M10.447,6.276A.5.5,0,0,0,10.023,6a.469.469,0,0,0-.447.234L7.409,9.7,5.854,8.146A.525.525,0,0,0,5.451,8a.5.5,0,0,0-.367.221l-2,3A.5.5,0,0,0,3.5,12h9a.5.5,0,0,0,.447-.724Z"></path><path d="M14,0H2A2,2,0,0,0,0,2V14a2,2,0,0,0,2,2H14a2,2,0,0,0,2-2V2A2,2,0,0,0,14,0ZM2,14V2H14l0,12Z" fill="#212121"></path><circle data-color="color-2" cx="5" cy="5" r="1"></circle></g></svg>