<svg xmlns="http://www.w3.org/2000/svg" height="16" width="16" viewBox="0 0 16 16"><title>incognito</title><g fill="#212121" class="nc-icon-wrapper"><path data-color="color-2" d="M12,10a2.993,2.993,0,0,0-2.5,1.347,3.42,3.42,0,0,0-3,0,3.006,3.006,0,1,0,.455,2.106,1.522,1.522,0,0,1,2.092,0A3,3,0,1,0,12,10ZM4,14a1,1,0,1,1,1-1A1,1,0,0,1,4,14Zm8,0a1,1,0,1,1,1-1A1,1,0,0,1,12,14Z"></path><path d="M12.8,4,12.08.4a.5.5,0,0,0-.49-.4H4.41a.5.5,0,0,0-.49.4L3.2,4Z" fill="#212121"></path><path d="M13,5H3L.427,7.573A.25.25,0,0,0,.6,8H15.4a.25.25,0,0,0,.177-.427Z" fill="#212121"></path></g></svg>