<svg xmlns="http://www.w3.org/2000/svg" height="16" width="16" viewBox="0 0 16 16"><title>phone call</title><g fill="#212121" class="nc-icon-wrapper"><path d="M13.167,11.021,10.45,9.814a1.4,1.4,0,0,0-1.662.4l-.783.979A10.7,10.7,0,0,1,4.8,8l.979-.783a1.4,1.4,0,0,0,.4-1.661l-1.2-2.724a1.4,1.4,0,0,0-1.632-.787l-2.3.6A1.4,1.4,0,0,0,.014,4.2,13.911,13.911,0,0,0,11.806,15.986a1.4,1.4,0,0,0,1.552-1.037l.6-2.3A1.394,1.394,0,0,0,13.167,11.021Z" fill="#212121"></path><path data-color="color-2" d="M10,8a1,1,0,0,0,2,0A4,4,0,0,0,8,4,1,1,0,0,0,8,6,2,2,0,0,1,10,8Z"></path><path data-color="color-2" d="M8,0A1,1,0,0,0,8,2a6.006,6.006,0,0,1,6,6,1,1,0,0,0,2,0A8.009,8.009,0,0,0,8,0Z"></path></g></svg>