<svg xmlns="http://www.w3.org/2000/svg" height="16" width="16" viewBox="0 0 16 16"><title>present</title><g fill="#212121" class="nc-icon-wrapper"><path data-color="color-2" d="M.5,7h15a.5.5,0,0,0,.5-.5v-2a.5.5,0,0,0-.5-.5H13.8a2.677,2.677,0,0,0,.154-1.492A3.08,3.08,0,0,0,10.8.005,3.6,3.6,0,0,0,8,1.7,3.6,3.6,0,0,0,5.2.005a3.08,3.08,0,0,0-3.15,2.5A2.677,2.677,0,0,0,2.2,4H.5a.5.5,0,0,0-.5.5v2A.5.5,0,0,0,.5,7ZM11,2a.945.945,0,0,1,1,1,.945.945,0,0,1-1,1H9.2C9.4,3.1,9.9,2,11,2ZM5,2C6.1,2,6.6,3.1,6.8,4H5A.945.945,0,0,1,4,3,.945.945,0,0,1,5,2Z"></path><path d="M12,9v5H9V9H7v5H4V9H2v5a2,2,0,0,0,2,2h8a2,2,0,0,0,2-2V9Z" fill="#212121"></path></g></svg>