<svg xmlns="http://www.w3.org/2000/svg" height="16" width="16" viewBox="0 0 16 16"><title>privacy policy</title><g fill="#212121" class="nc-icon-wrapper"><circle cx="2.75" cy="3.25" r="1.75" fill="#212121"></circle> <circle cx="13.25" cy="3.25" r="1.75" data-color="color-2"></circle> <path d="M13.5,6a4.761,4.761,0,0,0-3.474,2.032,6.853,6.853,0,0,1-.879.868,1.666,1.666,0,0,1,.331,1.558A5.227,5.227,0,0,0,11,9.191V14a1,1,0,0,0,1,1h3a1,1,0,0,0,1-1V8.5A2.5,2.5,0,0,0,13.5,6Z" data-color="color-2"></path> <path d="M7.8,9.25c-.693,0-1.144-.463-1.823-1.218A4.761,4.761,0,0,0,2.5,6,2.5,2.5,0,0,0,0,8.5V14a1,1,0,0,0,1,1H4a1,1,0,0,0,1-1V9.191A3.717,3.717,0,0,0,7.8,10.75a.75.75,0,1,0,0-1.5Z" fill="#212121"></path></g></svg>