<svg xmlns="http://www.w3.org/2000/svg" height="16" width="16" viewBox="0 0 16 16"><title>ranking</title><g fill="#212121" class="nc-icon-wrapper"><path d="M5.562,7.048l.459.367L6.4,6.553,9.4,8.8a1,1,0,0,0,1.432-.245l4-6a1,1,0,0,0-1.664-1.11L9.754,6.566,6.6,4.2a1,1,0,0,0-1.514.394L4.23,6.52A2.5,2.5,0,0,1,5.562,7.048Z" fill="#212121"></path><path d="M3.123,11.5H2.016l-.93,2.094a1,1,0,0,0,.508,1.32A.987.987,0,0,0,2,15a1,1,0,0,0,.915-.594l1.008-2.267Z" fill="#212121"></path><path data-color="color-2" d="M9,14a1,1,0,0,1-.625-.219L3.649,10H1A1,1,0,0,1,1,8H4a1,1,0,0,1,.625.219l4.457,3.566,4.4-2.642a1,1,0,0,1,1.03,1.714l-5,3A1,1,0,0,1,9,14Z"></path></g></svg>