<svg xmlns="http://www.w3.org/2000/svg" height="16" width="16" viewBox="0 0 16 16"><title>rat</title><g fill="#212121" class="nc-icon-wrapper"><path d="M13.548,9.055a4.92,4.92,0,0,0-.222-4.545A5.34,5.34,0,0,0,8.089,2.046a8.932,8.932,0,0,0-2.426.6A3,3,0,0,0,3.609,1.063a.507.507,0,0,0-.609.5V4.309A8.958,8.958,0,0,0,.077,9.876a1,1,0,0,0,.243.786.991.991,0,0,0,.68.323L13,11a1,1,0,0,1,0,2H9a1,1,0,0,0,0,2h3.859a3.1,3.1,0,0,0,3.119-2.63A3,3,0,0,0,13.548,9.055ZM4,8A1,1,0,1,1,5,7,1,1,0,0,1,4,8Z" fill="#212121"></path></g></svg>