<svg xmlns="http://www.w3.org/2000/svg" height="16" width="16" viewBox="0 0 16 16"><title>rice</title><g fill="#212121" class="nc-icon-wrapper"><path d="M15.5,7H.5a.5.5,0,0,0-.5.5,8.043,8.043,0,0,0,5.146,7.467A.5.5,0,0,0,5.325,15h5.35a.5.5,0,0,0,.179-.033A8.043,8.043,0,0,0,16,7.5.5.5,0,0,0,15.5,7Z" fill="#212121"></path> <path d="M1.5,5h13a.5.5,0,0,0,.5-.5,2.494,2.494,0,0,0-4-1.992,2.509,2.509,0,0,0-2.829-.86,2.479,2.479,0,0,0-3.773.517A2.5,2.5,0,0,0,1,4.5.5.5,0,0,0,1.5,5Z" data-color="color-2"></path></g></svg>