<svg xmlns="http://www.w3.org/2000/svg" height="16" width="16" viewBox="0 0 16 16"><title>save for later</title><g fill="#212121" class="nc-icon-wrapper"><path data-color="color-2" d="M13.5,0h-1a.5.5,0,0,0-.5.5V2H10.5a.5.5,0,0,0-.5.5v1a.5.5,0,0,0,.5.5H12V5.5a.5.5,0,0,0,.5.5h1a.5.5,0,0,0,.5-.5V4h1.5a.5.5,0,0,0,.5-.5v-1a.5.5,0,0,0-.5-.5H14V.5A.5.5,0,0,0,13.5,0Z"></path><path d="M11.494,7.772A4.963,4.963,0,0,1,8.228,4.506,5.069,5.069,0,0,1,8.1,2H1A1,1,0,0,0,0,3V15a1,1,0,0,0,1,1H13a1,1,0,0,0,1-1V7.9A5.069,5.069,0,0,1,11.494,7.772ZM12,14H2V12H12Z" fill="#212121"></path></g></svg>