<svg xmlns="http://www.w3.org/2000/svg" height="16" width="16" viewBox="0 0 16 16"><title>screen maximize</title><g fill="#212121" class="nc-icon-wrapper"><path d="M2,2H6V0H2A2,2,0,0,0,0,2V6H2Z" fill="#212121"></path><path d="M14,0H10V2h4V6h2V2A2,2,0,0,0,14,0Z" fill="#212121"></path><path d="M14,14H10v2h4a2,2,0,0,0,2-2V10H14Z" fill="#212121"></path><path d="M2,10H0v4a2,2,0,0,0,2,2H6V14H2Z" fill="#212121"></path><rect data-color="color-2" x="4" y="6" width="8" height="4" rx="0.5"></rect></g></svg>