<svg xmlns="http://www.w3.org/2000/svg" height="16" width="16" viewBox="0 0 16 16"><title>sleeping baby</title><g fill="#212121" class="nc-icon-wrapper"><path d="M14.333,5.034a6.988,6.988,0,0,0-12.666,0,1.989,1.989,0,0,0-.626,3.711,7,7,0,0,0,13.918,0,1.989,1.989,0,0,0-.626-3.711ZM3.274,6.938a.75.75,0,0,1,1.452-.376.542.542,0,0,0,1.013,0,.75.75,0,1,1,1.452.376,2.022,2.022,0,0,1-3.917,0ZM8,13a1.5,1.5,0,1,1,1.5-1.5A1.5,1.5,0,0,1,8,13Zm4.726-6.062a2.022,2.022,0,0,1-3.917,0,.75.75,0,1,1,1.452-.376.542.542,0,0,0,1.013,0,.75.75,0,0,1,1.452.376Z" fill="#212121"></path></g></svg>