<svg xmlns="http://www.w3.org/2000/svg" height="16" width="16" viewBox="0 0 16 16"><title>smiling face glasses</title><g fill="#212121" class="nc-icon-wrapper"><path fill="#212121" d="M16,5c0-2.2-1.8-4-4-4c0,0-0.1,0-0.1,0C9.5-0.3,6.5-0.3,4.1,1C4.1,1,4,1,4,1C1.8,1,0,2.8,0,5 c0,0.4,0.1,0.8,0.2,1.2C0.1,6.8,0,7.4,0,8c0,4.4,3.6,8,8,8s8-3.6,8-8c0-0.6-0.1-1.2-0.2-1.8C15.9,5.8,16,5.4,16,5z M14,5 c0,1.1-0.9,2-2,2s-2-0.9-2-2s0.9-2,2-2S14,3.9,14,5z M4,3c1.1,0,2,0.9,2,2S5.1,7,4,7S2,6.1,2,5S2.9,3,4,3z M8,14 c-3.2,0-5.7-2.4-6-5.5C2.6,8.8,3.3,9,4,9c2.2,0,4-1.8,4-4c0-1.1-0.5-2.1-1.2-2.9C7.6,2,8.4,2,9.2,2.1C8.5,2.9,8,3.9,8,5 c0,2.2,1.8,4,4,4c0.7,0,1.4-0.2,2-0.5C13.7,11.6,11.2,14,8,14z"></path> <path data-color="color-2" d="M8,13c1.7,0,3-1.3,3-3H5C5,11.7,6.3,13,8,13z"></path></g></svg>