<svg xmlns="http://www.w3.org/2000/svg" height="16" width="16" viewBox="0 0 16 16"><title>smiling face sunglasses</title><g fill="#212121" class="nc-icon-wrapper"><path data-color="color-2" d="M8,13c1.7,0,3-1.3,3-3H5C5,11.7,6.3,13,8,13z"></path> <path fill="#212121" d="M16,5c0-1-0.8-1.9-1.8-2C12.7,1.1,10.4,0,8,0C5.6,0,3.3,1.1,1.8,3C0.8,3.1,0,4,0,5v3c0,4.4,3.6,8,8,8 s8-3.6,8-8V5z M14,6l0,1h-3V5h3L14,6L14,6C14,6,14,6,14,6z M11.3,3H11C9.9,3,9,3.9,9,5H7c0-1.1-0.9-2-2-2H4.7c1-0.6,2.1-1,3.3-1 C9.2,2,10.3,2.4,11.3,3z M2,5h3l0,2H2V5z M8,14c-3,0-5.4-2.2-5.9-5H5c1.1,0,2-0.9,2-2h2c0,1.1,0.9,2,2,2h2.9C13.4,11.8,11,14,8,14z"></path></g></svg>