<svg xmlns="http://www.w3.org/2000/svg" height="16" width="16" viewBox="0 0 16 16"><title>statistics</title><g fill="#212121" class="nc-icon-wrapper"><rect y="12" width="4" height="4" rx="0.5" fill="#212121"></rect><rect x="6" y="7" width="4" height="9" rx="0.5" fill="#212121"></rect><rect x="12" y="11" width="4" height="5" rx="0.5" fill="#212121"></rect><path d="M7.063,3.757a1.928,1.928,0,0,0,1.874,0L12.1,6.4A1.977,1.977,0,0,0,12,7a2.025,2.025,0,1,0,1.063-1.757L9.9,2.6A1.977,1.977,0,0,0,10,2,2,2,0,0,0,6,2a1.977,1.977,0,0,0,.1.6L2.937,5.243A1.979,1.979,0,0,0,2,5,2,2,0,1,0,4,7a1.977,1.977,0,0,0-.1-.6Z" data-color="color-2"></path></g></svg>