<svg xmlns="http://www.w3.org/2000/svg" height="16" width="16" viewBox="0 0 16 16"><title>transactions</title><g fill="#212121" class="nc-icon-wrapper"><path d="M14.446,9.335a2.5,2.5,0,0,0-3.522,3.194A4.906,4.906,0,0,1,8,13.5a4.979,4.979,0,0,1-1.113-.135,4.436,4.436,0,0,1-1.343,1.682,6.91,6.91,0,0,0,6.9-1.165,2.5,2.5,0,0,0,2-4.547Z" data-color="color-2"></path><path d="M10.431,1.938a2.5,2.5,0,1,0-.4,2.014A5.027,5.027,0,0,1,12.754,7.03,4.374,4.374,0,0,1,13.2,7a4.5,4.5,0,0,1,1.7.334A7.023,7.023,0,0,0,10.431,1.938Z" fill="#212121"></path><path d="M4.969,10.25A2.49,2.49,0,0,0,3.037,9.016,4.624,4.624,0,0,1,3,8.5,4.97,4.97,0,0,1,4.348,5.109,4.456,4.456,0,0,1,3.56,3.093,6.989,6.989,0,0,0,1,8.5a6.888,6.888,0,0,0,.11,1.166,2.5,2.5,0,1,0,3.859.584Z" fill="#212121"></path></g></svg>