<svg xmlns="http://www.w3.org/2000/svg" height="48" width="48" viewBox="0 0 48 48"><title>car front</title><g stroke-linecap="square" stroke-width="2" fill="none" stroke="#212121" stroke-linejoin="miter" class="nc-icon-wrapper" stroke-miterlimit="10"><path data-cap="butt" d="M42,21,40.415,7.533A4,4,0,0,0,36.443,4H11.557A4,4,0,0,0,7.585,7.533L6,21" stroke-linecap="butt"></path><polyline points="13 41 13 44 5 44 5 41" stroke="#212121"></polyline><polyline points="43 41 43 44 35 44 35 41" stroke="#212121"></polyline><path d="M46,37H2V27.4a4,4,0,0,1,.876-2.5L6,21H42l3.124,3.905A4,4,0,0,1,46,27.4Z"></path><circle cx="38" cy="29" r="3" stroke="#212121"></circle><circle cx="10" cy="29" r="3" stroke="#212121"></circle><line x1="20" y1="29" x2="28" y2="29" stroke="#212121"></line></g></svg>