<svg xmlns="http://www.w3.org/2000/svg" height="48" width="48" viewBox="0 0 48 48"><title>contactless card</title><g stroke-linecap="square" stroke-width="2" fill="none" stroke="#212121" stroke-linejoin="miter" class="nc-icon-wrapper" stroke-miterlimit="10"><line x1="10" y1="33" x2="24" y2="33"></line><line x1="32" y1="33" x2="38" y2="33"></line><path d="M43,41H5a2.946,2.946,0,0,1-3-3V12A2.946,2.946,0,0,1,5,9H43a2.946,2.946,0,0,1,3,3V38A2.946,2.946,0,0,1,43,41Z"></path><path d="M31.189,23.392a3.933,3.933,0,0,0,0-4.784" stroke="#212121"></path><path d="M35.991,26.993a9.943,9.943,0,0,0,0-11.986" stroke="#212121"></path><circle cx="26" cy="21" r="2" stroke="none" fill="#212121"></circle><rect x="10" y="17" width="7" height="6"></rect></g></svg>