<svg xmlns="http://www.w3.org/2000/svg" height="48" width="48" viewBox="0 0 48 48"><title>coughing</title><g stroke-linecap="square" stroke-width="2" fill="none" stroke="#212121" stroke-linejoin="miter" class="nc-icon-wrapper" stroke-miterlimit="10"><line x1="37.938" y1="31.275" x2="33.5" y2="29.5" stroke="#212121"></line><circle cx="43.5" cy="33.5" r="0.5" stroke="none" fill="#212121"></circle><circle cx="39.5" cy="41.5" r="0.5" stroke="none" fill="#212121"></circle><circle cx="31.5" cy="45.5" r="0.5" stroke="none" fill="#212121"></circle><circle cx="43.5" cy="33.5" r="0.5" stroke="#212121"></circle><circle cx="39.5" cy="41.5" r="0.5" stroke="#212121"></circle><line x1="27.5" y1="35.5" x2="29.275" y2="39.938" stroke="#212121"></line><circle cx="31.5" cy="45.5" r="0.5" stroke="#212121"></circle><path d="M6.367,44.683a6,6,0,0,1-2.684-8.05h0L5,34l6.633,3.317a6,6,0,0,0,8.05-2.684h0L21,32l-4-6h9.081L27,22l7-1L30.97,7.872A25.8,25.8,0,0,0,33,4"></path><path d="M5,7.413A14,14,0,0,0,9,8a13.945,13.945,0,0,0,9.789-4"></path></g></svg>