<svg xmlns="http://www.w3.org/2000/svg" height="48" width="48" viewBox="0 0 48 48"><title>drums</title><g stroke-linecap="square" stroke-width="2" fill="none" stroke="#212121" stroke-linejoin="miter" class="nc-icon-wrapper" stroke-miterlimit="10"><path d="M4,18V36c0,4.418,8.954,8,20,8s20-3.582,20-8V18" data-cap="butt" stroke-linecap="butt"></path><line x1="44" y1="3" x2="16" y2="17" stroke="#212121"></line><line x1="4" y1="3" x2="32" y2="17" stroke="#212121"></line><line x1="19" y1="43.748" x2="19" y2="31.741" data-cap="butt" stroke-linecap="butt"></line><line x1="10" y1="29.797" x2="10" y2="41.712" data-cap="butt" stroke-linecap="butt"></line><line x1="29" y1="43.747" x2="29" y2="31.741" data-cap="butt" stroke-linecap="butt"></line><line x1="38" y1="29.797" x2="38" y2="41.712" data-cap="butt" stroke-linecap="butt"></line><path d="M10.812,12C6.644,13.462,4,15.605,4,18c0,4.418,8.954,8,20,8s20-3.582,20-8c0-2.221-2.265-4.229-5.918-5.679" data-cap="butt" stroke-linecap="butt"></path><path d="M4,26.944C8.769,30.033,15.957,32,24,32s15.231-1.967,20-5.056" data-cap="butt" stroke-linecap="butt"></path></g></svg>