<svg xmlns="http://www.w3.org/2000/svg" height="48" width="48" viewBox="0 0 48 48"><title>edit levels</title><g stroke-linecap="square" stroke-width="2" fill="none" stroke="#212121" stroke-linejoin="miter" class="nc-icon-wrapper" stroke-miterlimit="10"><polygon points="2 43 2 39 6 36 10 39 10 43 2 43"></polygon><polygon points="20 43 20 39 24 36 28 39 28 43 20 43"></polygon><polygon points="38 43 38 39 42 36 46 39 46 43 38 43"></polygon><line x1="15" y1="29" x2="15" y2="23" stroke="#212121"></line><line x1="3" y1="29" x2="3" y2="15" stroke="#212121"></line><line x1="21" y1="29" x2="21" y2="17"></line><line x1="9" y1="29" x2="9" y2="5"></line><line x1="27" y1="29" x2="27" y2="5" stroke="#212121"></line><line x1="39" y1="29" x2="39" y2="9" stroke="#212121"></line><line x1="45" y1="29" x2="45" y2="5"></line><line x1="33" y1="29" x2="33" y2="17"></line></g></svg>