<svg xmlns="http://www.w3.org/2000/svg" height="48" width="48" viewBox="0 0 48 48"><title>logic</title><g stroke-linecap="square" stroke-width="2" fill="none" stroke="#212121" stroke-linejoin="miter" class="nc-icon-wrapper" stroke-miterlimit="10"><path d="M38,46V33.39A17.992,17.992,0,1,0,8,20v2L4,30l4,2v6a4,4,0,0,0,4,4h8v4"></path><circle cx="26" cy="20" r="7" stroke="#212121"></circle><line x1="26" y1="13" x2="26" y2="10" stroke="#212121"></line><line x1="30.95" y1="15.05" x2="33.071" y2="12.929" stroke="#212121"></line><line x1="33" y1="20" x2="36" y2="20" stroke="#212121"></line><line x1="30.95" y1="24.95" x2="33.071" y2="27.071" stroke="#212121"></line><line x1="26" y1="27" x2="26" y2="30" stroke="#212121"></line><line x1="21.05" y1="24.95" x2="18.929" y2="27.071" stroke="#212121"></line><line x1="19" y1="20" x2="16" y2="20" stroke="#212121"></line><line x1="21.05" y1="15.05" x2="18.929" y2="12.929" stroke="#212121"></line><circle cx="26" cy="20" r="2" stroke="#212121"></circle></g></svg>