<svg xmlns="http://www.w3.org/2000/svg" height="48" width="48" viewBox="0 0 48 48"><title>romantic restaurant</title><g stroke-linecap="square" stroke-width="2" fill="none" stroke="#212121" stroke-linejoin="miter" class="nc-icon-wrapper" stroke-miterlimit="10"><path d="M29.882,3.136a3.782,3.782,0,0,0-5.882.6,3.781,3.781,0,0,0-5.882-.6,3.925,3.925,0,0,0,0,5.487L24,14.6l5.883-5.977A3.926,3.926,0,0,0,29.882,3.136Z" stroke="#212121"></path><line x1="14" y1="31" x2="34" y2="31"></line><line x1="24" y1="46" x2="24" y2="31"></line><line x1="5" y1="38" x2="5" y2="46"></line><polyline points="3 26 5 38 16 38 16 46"></polyline><line x1="43" y1="38" x2="43" y2="46"></line><polyline points="45 26 43 38 32 38 32 46"></polyline><path d="M18,31V29a6,6,0,0,1,12,0v2"></path><line x1="24" y1="21" x2="24" y2="23"></line></g></svg>