<svg xmlns="http://www.w3.org/2000/svg" height="48" width="48" viewBox="0 0 48 48"><title>sleeping baby</title><g stroke-linecap="square" stroke-width="2" fill="none" stroke="#212121" stroke-linejoin="miter" class="nc-icon-wrapper" stroke-miterlimit="10"><circle cx="24" cy="36" r="3" stroke="#212121"></circle><path d="M13.35,24a3.481,3.481,0,0,0,6.3,0" stroke="#212121"></path><path d="M28.35,24a3.481,3.481,0,0,0,6.3,0" stroke="#212121"></path><polyline points="40 2 46 2 46 3 40 8 40 9 46 9" stroke="#212121"></polyline><path d="M42,21a3.937,3.937,0,0,0-.995.14A17.98,17.98,0,0,0,7,21.14,3.937,3.937,0,0,0,6,21a4,4,0,0,0,0,8c.04,0,.076-.01.115-.012a17.995,17.995,0,0,0,35.77,0c.039,0,.075.012.115.012a4,4,0,0,0,0-8Z"></path><path d="M24,9a4,4,0,1,0,2.828,6.828" data-cap="butt" stroke-linecap="butt"></path></g></svg>