<svg xmlns="http://www.w3.org/2000/svg" height="48" width="48" viewBox="0 0 48 48"><title>soft drink</title><g stroke-linecap="square" stroke-width="2" fill="none" stroke="#212121" stroke-linejoin="miter" class="nc-icon-wrapper" stroke-miterlimit="10"><path d="M35.174,46H24.827a2,2,0,0,1-1.992-1.819L21,24H39L37.165,44.181A2,2,0,0,1,35.174,46Z" stroke="#212121"></path> <line x1="14" y1="6" x2="21" y2="6" data-cap="butt" stroke-linecap="butt" stroke="#212121"></line> <path d="M23.906,18C22.824,13.592,21,9.87,21,8V2H14V8c0,2.658-3.687,9.06-3.687,15.852s.94,9.155.94,12.4S10,41.2,10,43.047A2.839,2.839,0,0,0,12.66,46H17"></path> <line x1="22" y1="35" x2="38" y2="35" data-cap="butt" stroke-linecap="butt" stroke="#212121"></line></g></svg>