<svg xmlns="http://www.w3.org/2000/svg" height="64" width="64" viewBox="0 0 64 64"><title>accessibility</title><g stroke-linecap="square" stroke-width="2" fill="none" stroke="#212121" stroke-linejoin="miter" class="nc-icon-wrapper" stroke-miterlimit="10"><circle cx="32" cy="7.996" r="6" stroke="#212121"></circle><path d="M34,41V58.827A3.115,3.115,0,0,0,36.839,62,3,3,0,0,0,40,59.161c0-.055,0-.11,0-.165V25l15.573-.865A2.57,2.57,0,0,0,58,21.565h0A2.569,2.569,0,0,0,55.431,19H8.569A2.569,2.569,0,0,0,6,21.565H6a2.57,2.57,0,0,0,2.427,2.566L24,25V58.827A3.115,3.115,0,0,0,26.839,62,3,3,0,0,0,30,59.161c0-.055,0-.11,0-.165V41Z"></path></g></svg>