<svg xmlns="http://www.w3.org/2000/svg" height="64" width="64" viewBox="0 0 64 64"><title>armchair</title><g stroke-linecap="square" stroke-width="2" fill="none" stroke="#212121" stroke-linejoin="miter" class="nc-icon-wrapper" stroke-miterlimit="10"><line x1="18" y1="34" x2="46" y2="34" stroke="#212121"></line><line x1="12" y1="60" x2="12" y2="56"></line><line x1="52" y1="60" x2="52" y2="56"></line><path d="M53,25V9a5,5,0,0,0-5-5H16a5,5,0,0,0-5,5V25" stroke="#212121"></path><path d="M60,32a7,7,0,0,0-14,0V45H18V32A7,7,0,1,0,7,37.74V51a5,5,0,0,0,5,5H52a5,5,0,0,0,5-5V37.74A6.987,6.987,0,0,0,60,32Z"></path><line x1="23" y1="16" x2="23" y2="22" stroke="#212121"></line><line x1="20" y1="19" x2="26" y2="19" stroke="#212121"></line><line x1="41" y1="16" x2="41" y2="22" stroke="#212121"></line><line x1="38" y1="19" x2="44" y2="19" stroke="#212121"></line></g></svg>