<svg xmlns="http://www.w3.org/2000/svg" height="64" width="64" viewBox="0 0 64 64"><title>blockchain</title><g stroke-linecap="square" stroke-width="2" fill="none" stroke="#212121" stroke-linejoin="miter" class="nc-icon-wrapper" stroke-miterlimit="10"><polyline points="48 45.091 51 47 62 40 62 28 51 20.977 40 28 40 31" stroke="#212121"></polyline><line x1="32" y1="46.614" x2="32" y2="58.887" data-cap="butt" stroke-linecap="butt"></line><polyline points="21 40 32 46.999 43 40" data-cap="butt" stroke-linecap="butt"></polyline><line x1="32" y1="46.999" x2="32" y2="59" data-cap="butt" stroke-linecap="butt"></line><polyline points="21 15.88 32 22.879 43 15.88" data-cap="butt" stroke-linecap="butt"></polyline><line x1="32" y1="22.879" x2="32" y2="28" data-cap="butt" stroke-linecap="butt"></line><polyline points="24 28 13 34.999 2 28" data-cap="butt" stroke-linecap="butt" stroke="#212121"></polyline><line x1="13" y1="34.999" x2="13" y2="47" data-cap="butt" stroke-linecap="butt" stroke="#212121"></line><polyline points="40 28 51 34.999 62 28" data-cap="butt" stroke-linecap="butt" stroke="#212121"></polyline><line x1="51" y1="34.999" x2="51" y2="47" data-cap="butt" stroke-linecap="butt" stroke="#212121"></line><polyline points="43 20 43 15.88 32 8.856 21 15.88 21 20"></polyline><polyline points="23.999 32 24 28 13 20.977 2 28 2 40 13 47 16 45.091" stroke="#212121"></polyline><polygon points="43 40 32 32.976 21 40 21 52 32 59 43 52 43 40" data-cap="butt" stroke-linecap="butt"></polygon></g></svg>