<svg xmlns="http://www.w3.org/2000/svg" height="64" width="64" viewBox="0 0 64 64"><title>car front</title><g stroke-linecap="square" stroke-width="2" fill="none" stroke="#212121" stroke-linejoin="miter" class="nc-icon-wrapper" stroke-miterlimit="10"><line data-cap="butt" x1="32" y1="29" x2="41" y2="19" stroke-linecap="butt"></line><path data-cap="butt" d="M57,29,52.829,8.98A5,5,0,0,0,47.934,5H16.066a5,5,0,0,0-4.895,3.98L7,29" stroke-linecap="butt"></path><polyline points="16 54 16 58 6 58 6 54" stroke="#212121"></polyline><path d="M62,49H2V36.066a4.99,4.99,0,0,1,1.465-3.532L7,29H57l3.535,3.535A5,5,0,0,1,62,36.071Z"></path><circle cx="11" cy="40" r="3" stroke="#212121"></circle><polyline points="58 54 58 58 48 58 48 54" stroke="#212121"></polyline><circle cx="53" cy="40" r="3" stroke="#212121"></circle><line x1="25" y1="40" x2="39" y2="40" stroke="#212121"></line></g></svg>