<svg xmlns="http://www.w3.org/2000/svg" height="64" width="64" viewBox="0 0 64 64"><title>contactless card</title><g stroke-linecap="square" stroke-width="2" fill="none" stroke="#212121" stroke-linejoin="miter" class="nc-icon-wrapper" stroke-miterlimit="10"><path d="M2,50V14a4,4,0,0,1,4-4H58a4,4,0,0,1,4,4V50a4,4,0,0,1-4,4H6A4,4,0,0,1,2,50Z"></path><line x1="12" y1="44" x2="36" y2="44"></line><line x1="44" y1="44" x2="52" y2="44"></line><rect x="12" y="20" width="10" height="8"></rect><circle cx="40" cy="26" r="2" stroke="none" fill="#212121"></circle><path d="M45.02,28.948a4.924,4.924,0,0,0,0-5.9" stroke="#212121"></path><path d="M49.861,32.5a10.94,10.94,0,0,0,0-13" stroke="#212121"></path></g></svg>