<svg xmlns="http://www.w3.org/2000/svg" height="64" width="64" viewBox="0 0 64 64"><title>coughing</title><g stroke-linecap="square" stroke-width="2" fill="none" stroke="#212121" stroke-linejoin="miter" class="nc-icon-wrapper" stroke-miterlimit="10"><line x1="50.501" y1="41.167" x2="44" y2="39" stroke="#212121"></line><circle cx="59" cy="44" r="1" stroke="#212121"></circle><circle cx="42" cy="61" r="1" stroke="#212121"></circle><line x1="37" y1="46" x2="39.167" y2="52.501" stroke="#212121"></line><circle cx="53" cy="55" r="1" stroke="#212121"></circle><path d="M7.367,60.683a6,6,0,0,1-2.684-8.05L8,46l8.845,4.422a8,8,0,0,0,10.733-3.577L30,42l-6-8H36l1-5,9-1L42.066,10.3A37.9,37.9,0,0,0,45.3,4"></path><line x1="45" y1="47" x2="48" y2="50" stroke="#212121"></line><path d="M3,10.832A21.859,21.859,0,0,0,10,12,21.964,21.964,0,0,0,27.745,3"></path></g></svg>