<svg xmlns="http://www.w3.org/2000/svg" height="64" width="64" viewBox="0 0 64 64"><title>data settings</title><g stroke-linecap="square" stroke-width="2" fill="none" stroke="#212121" stroke-linejoin="miter" class="nc-icon-wrapper" stroke-miterlimit="10"><circle cx="49" cy="49" r="3" stroke="#212121"></circle><path d="M58,49a9.034,9.034,0,0,0-.1-1.293l3.361-3.475-2-3.464-4.686,1.173a8.958,8.958,0,0,0-2.246-1.3L51,36H47l-1.326,4.643a8.958,8.958,0,0,0-2.246,1.3l-4.686-1.173-2,3.464L40.1,47.707a8.167,8.167,0,0,0,0,2.586l-3.361,3.475,2,3.464,4.686-1.173a8.958,8.958,0,0,0,2.246,1.3L47,62h4l1.326-4.643a8.958,8.958,0,0,0,2.246-1.3l4.686,1.173,2-3.464L57.9,50.293A9.034,9.034,0,0,0,58,49Z" stroke="#212121"></path><polyline points="31 56 5 56 56 5 56 31"></polyline></g></svg>