<svg xmlns="http://www.w3.org/2000/svg" height="64" width="64" viewBox="0 0 64 64"><title>dog leash</title><g stroke-linecap="square" stroke-width="2" fill="none" stroke="#212121" stroke-linejoin="miter" class="nc-icon-wrapper" stroke-miterlimit="10"><line x1="40.429" y1="23.143" x2="52.88" y2="27.293" data-cap="butt" stroke-linecap="butt" stroke="#212121"></line><path d="M35,20A16,16,0,0,1,19,4" stroke="#212121"></path><path d="M51,12,48,8,40.382,23.236A5,5,0,0,1,35.91,26H13A11,11,0,0,1,2.425,18,10.96,10.96,0,0,0,10,31.575V60h6l.955-12.419a2.007,2.007,0,0,1,.394-1.047L23,39l16.628,4.619a2,2,0,0,1,1.461,1.8L42,60h6V44l6-22h3a5,5,0,0,0,5-5V14Z" data-cap="butt" stroke-linecap="butt"></path></g></svg>