<svg xmlns="http://www.w3.org/2000/svg" height="64" width="64" viewBox="0 0 64 64"><title>drums</title><g stroke-linecap="square" stroke-width="2" fill="none" stroke="#212121" stroke-linejoin="miter" class="nc-icon-wrapper" stroke-miterlimit="10"><path d="M4,24V48c0,6.627,12.536,12,28,12s28-5.373,28-12V24" data-cap="butt" stroke-linecap="butt"></path><line x1="40" y1="59.502" x2="40" y2="43.496" data-cap="butt" stroke-linecap="butt"></line><line x1="24" y1="59.502" x2="24" y2="43.496" data-cap="butt" stroke-linecap="butt"></line><line x1="11" y1="40.15" x2="11" y2="55.937" data-cap="butt" stroke-linecap="butt"></line><line x1="53.006" y1="40.147" x2="53" y2="55.937" data-cap="butt" stroke-linecap="butt"></line><path d="M4,36.2C10.132,40.909,20.38,44,32,44s21.868-3.091,28-7.8" data-cap="butt" stroke-linecap="butt"></path><line x1="58" y1="4" x2="18" y2="24" stroke="#212121"></line><line x1="6" y1="4" x2="46" y2="24" stroke="#212121"></line><path d="M49.881,14.768C56.062,16.969,60,20.287,60,24c0,6.627-12.536,12-28,12S4,30.627,4,24c0-3.713,3.938-7.031,10.119-9.232" data-cap="butt" stroke-linecap="butt"></path></g></svg>