<svg xmlns="http://www.w3.org/2000/svg" height="64" width="64" viewBox="0 0 64 64"><title>edit levels</title><g stroke-linecap="square" stroke-width="2" fill="none" stroke="#212121" stroke-linejoin="miter" class="nc-icon-wrapper" stroke-miterlimit="10"><polygon points="4 58 4 54 8 51 12 54 12 58 4 58"></polygon><polygon points="28 58 28 54 32 51 36 54 36 58 28 58"></polygon><polygon points="52 58 52 54 56 51 60 54 60 58 52 58"></polygon><line x1="4" y1="44" x2="4" y2="22" stroke="#212121"></line><line x1="28" y1="44" x2="28" y2="24"></line><line x1="52" y1="44" x2="52" y2="12" stroke="#212121"></line><line x1="60" y1="44" x2="60" y2="6"></line><line x1="12" y1="44" x2="12" y2="6"></line><line x1="20" y1="44" x2="20" y2="35" stroke="#212121"></line><line x1="36" y1="44" x2="36" y2="6" stroke="#212121"></line><line x1="44" y1="44" x2="44" y2="24"></line></g></svg>