<svg xmlns="http://www.w3.org/2000/svg" height="64" width="64" viewBox="0 0 64 64"><title>present</title><g stroke-linecap="square" stroke-width="2" fill="none" stroke="#212121" stroke-linejoin="miter" class="nc-icon-wrapper" stroke-miterlimit="10"><path d="M56,30V54a5,5,0,0,1-5,5H13a5,5,0,0,1-5-5V30"></path><rect x="2" y="14" width="60" height="10"></rect><path d="M14,8a6,6,0,0,1,6-6c8.875,0,12,12,12,12H20A6,6,0,0,1,14,8Z" stroke="#212121"></path><path d="M50,8a6,6,0,0,0-6-6C35.125,2,32,14,32,14H44A6,6,0,0,0,50,8Z" stroke="#212121"></path><polyline points="38 14 38 59 26 59 26 14" stroke="#212121"></polyline></g></svg>