<svg xmlns="http://www.w3.org/2000/svg" height="64" width="64" viewBox="0 0 64 64"><title>rat</title><g stroke-linecap="square" stroke-width="2" fill="none" stroke="#212121" stroke-linejoin="miter" class="nc-icon-wrapper" stroke-miterlimit="10"><circle cx="12.5" cy="27.5" r="1.5" stroke="none" fill="#212121"></circle><path d="M34.953,22.579a6.636,6.636,0,0,0,.75,10.047A6.639,6.639,0,0,0,33,37.96L56,38a5,5,0,0,1,0,10H40a5,5,0,0,0,0,10h5"></path><path d="M37,10.014V10a38.753,38.753,0,0,0-18.857,4.881A8.978,8.978,0,0,0,12.3,10L9.21,21.684a39.152,39.152,0,0,0-6.753,9.232A4.038,4.038,0,0,0,2.365,34.5L4,38H52.965A17.919,17.919,0,0,0,56,27.677C55.821,17.682,46.989,9.807,37,10.014Z"></path></g></svg>