<svg xmlns="http://www.w3.org/2000/svg" height="64" width="64" viewBox="0 0 64 64"><title>rice</title><g stroke-linecap="square" stroke-width="2" fill="none" stroke="#212121" stroke-linejoin="miter" class="nc-icon-wrapper" stroke-miterlimit="10"><line x1="50.224" y1="19.108" x2="60" y2="2" stroke="#212121" data-cap="butt" stroke-linecap="butt"></line> <line x1="43.61" y1="20.5" x2="48" y2="4" stroke="#212121" data-cap="butt" stroke-linecap="butt"></line> <circle cx="13.5" cy="11.5" r="1.5" fill="#212121" stroke="none"></circle> <circle cx="26.5" cy="24.5" r="1.5" fill="#212121" stroke="none"></circle> <circle cx="33.5" cy="8.5" r="1.5" fill="#212121" stroke="none"></circle> <path d="M19.394,57H44.606A27.993,27.993,0,0,0,60,32H4A27.993,27.993,0,0,0,19.394,57Z"></path> <path d="M56,26a7,7,0,0,0-12.009-4.885A7.984,7.984,0,0,0,32.147,18.65,7,7,0,0,0,19.19,20.4,6.991,6.991,0,0,0,8,26" stroke="#212121"></path></g></svg>