<svg xmlns="http://www.w3.org/2000/svg" height="64" width="64" viewBox="0 0 64 64"><title>romantic restaurant</title><g stroke-linecap="square" stroke-width="2" fill="none" stroke="#212121" stroke-linejoin="miter" class="nc-icon-wrapper" stroke-miterlimit="10"><line x1="16" y1="40" x2="48" y2="40"></line><line x1="32" y1="61" x2="32" y2="40"></line><polyline points="3 35 5 50 5 61"></polyline><polyline points="5 50 21 50 21 61"></polyline><polyline points="61 35 59 50 59 61"></polyline><polyline points="59 50 43 50 43 61"></polyline><path d="M39.562,4.443A4.9,4.9,0,0,0,32,5.2a4.916,4.916,0,1,0-7.562,6.206L32,19l7.563-7.59A4.939,4.939,0,0,0,39.562,4.443Z" stroke="#212121"></path><path d="M16.882,16.122A3.81,3.81,0,0,0,11,16.714a3.824,3.824,0,1,0-5.882,4.827L11,27.444l5.883-5.9A3.842,3.842,0,0,0,16.882,16.122Z" stroke="#212121"></path><path d="M58.882,16.122A3.81,3.81,0,0,0,53,16.714a3.824,3.824,0,1,0-5.882,4.827L53,27.444l5.883-5.9A3.842,3.842,0,0,0,58.882,16.122Z" stroke="#212121"></path><path d="M24,40V38a8,8,0,0,1,16,0v2"></path><line x1="32" y1="30" x2="32" y2="27"></line></g></svg>