<svg xmlns="http://www.w3.org/2000/svg" height="64" width="64" viewBox="0 0 64 64"><title>sleeping baby</title><g stroke-linecap="square" stroke-width="2" fill="none" stroke="#212121" stroke-linejoin="miter" class="nc-icon-wrapper" stroke-miterlimit="10"><circle cx="32" cy="48" r="4" stroke="#212121"></circle><path d="M37.422,32a4.993,4.993,0,0,0,9.156,0" stroke="#212121"></path><path d="M17.422,32a4.993,4.993,0,0,0,9.156,0" stroke="#212121"></path><polyline points="53 3 61 3 61 4 53 11 53 12 61 12" stroke="#212121"></polyline><path d="M56,28a6,6,0,0,0-1.336.161,23.972,23.972,0,0,0-45.328,0A6,6,0,1,0,8,40c.121,0,.235-.029.354-.036a23.971,23.971,0,0,0,47.292,0c.119.007.233.036.354.036a6,6,0,0,0,0-12Z"></path><path d="M32,12a5,5,0,1,0,3.536,8.536" data-cap="butt" stroke-linecap="butt"></path></g></svg>