<svg xmlns="http://www.w3.org/2000/svg" height="64" width="64" viewBox="0 0 64 64"><title>smiling face sunglasses</title><g stroke-linecap="square" stroke-width="2" fill="none" stroke="#212121" stroke-linejoin="miter" class="nc-icon-wrapper" stroke-miterlimit="10"><circle cx="32" cy="32" r="28"></circle> <path d="M42.4,43a12,12,0,0,1-20.79,0" stroke="#212121"></path> <path d="M19.279,19a9.4,9.4,0,0,0-8.455,5.242A9.048,9.048,0,0,0,26.9,32.5l2.5-4.3c1.429-2.459,3.767-2.459,5.2,0l2.343,4.03a9.3,9.3,0,0,0,12,3.844A8.971,8.971,0,0,0,52.785,23.5,9.137,9.137,0,0,0,44.719,19Z" stroke="#212121"></path></g></svg>