<svg xmlns="http://www.w3.org/2000/svg" height="64" width="64" viewBox="0 0 64 64"><title>snowboarding</title><g stroke-linecap="square" stroke-width="2" fill="none" stroke="#212121" stroke-linejoin="miter" class="nc-icon-wrapper" stroke-miterlimit="10"><circle cx="40" cy="9" r="6"></circle> <line x1="4" y1="57" x2="58" y2="61" stroke="#212121"></line> <path data-cap="butt" d="M37.715,37.4l5.241,1.76a3,3,0,0,1,1.986,3.432l-2,10a3,3,0,0,1-5.884-1.176L38.54,44l-5.163-1.72" stroke-linecap="butt"></path> <path d="M27,33.737l4.824,1.378a3,3,0,0,1,2.141,3.341l-2,13A3,3,0,0,1,29,54a2.67,2.67,0,0,1-2.234-1.162,3.733,3.733,0,0,1-.656-2.809l1.519-9.871-5.154-1.4A5,5,0,0,1,19.541,31.3l6.477-10.433L11.033,17.019a2.587,2.587,0,0,1-1.894-3.013h0a2.587,2.587,0,0,1,3.044-2.029l15.405,3.081a2.988,2.988,0,0,1,.752.258l12,6a2.988,2.988,0,0,1,.665.454l10.352,9.316a2.526,2.526,0,0,1,.188,3.567h0a2.525,2.525,0,0,1-3.462.277L37,26l-2.412,4.825"></path></g></svg>