<svg xmlns="http://www.w3.org/2000/svg" height="64" width="64" viewBox="0 0 64 64"><title>soft drink</title><g stroke-linecap="square" stroke-width="2" fill="none" stroke="#212121" stroke-linejoin="miter" class="nc-icon-wrapper" stroke-miterlimit="10"><path d="M46.258,62H33.742a4,4,0,0,1-3.991-3.734L28,32H52L50.249,58.266A4,4,0,0,1,46.258,62Z" stroke="#212121"></path> <line x1="20" y1="7" x2="28" y2="7" data-cap="butt" stroke-linecap="butt" stroke="#212121"></line> <path d="M32.593,26C31.22,19.017,28,12.826,28,10V2H20v8c0,3.592-5.2,12.621-5.2,21.8s1.27,12.373,1.27,16.763-1.693,6.684-1.693,9.18C14.375,59.762,15.884,62,18,62h6"></path> <line x1="29.067" y1="48" x2="50.933" y2="48" data-cap="butt" stroke-linecap="butt" stroke="#212121"></line></g></svg>