<svg xmlns="http://www.w3.org/2000/svg" height="64" width="64" viewBox="0 0 64 64"><title>translation</title><g stroke-linecap="square" stroke-width="2" fill="none" stroke="#212121" stroke-linejoin="miter" class="nc-icon-wrapper" stroke-miterlimit="10"><path d="M34,19V7a4,4,0,0,0-4-4H6A4,4,0,0,0,2,7V29a4,4,0,0,0,4,4H8v5.333L16,33h8" stroke="#212121"></path><path d="M30,51V29a4,4,0,0,1,4-4H58a4,4,0,0,1,4,4V51a4,4,0,0,1-4,4H56v5.333L48,55H34A4,4,0,0,1,30,51Z"></path><polyline points="41 46 45 32 47 32 51 46"></polyline><line data-cap="butt" x1="42.143" y1="42" x2="49.857" y2="42" stroke-linecap="butt"></line><line x1="10" y1="13" x2="26" y2="13" stroke="#212121"></line><line x1="18" y1="10" x2="18" y2="13" stroke="#212121"></line><path d="M13.5,13c0,4,4.5,10,11.5,12" stroke="#212121"></path><path d="M22.5,13c0,4-4.5,10-11.5,12" stroke="#212121"></path></g></svg>