<svg xmlns="http://www.w3.org/2000/svg" height="24" width="24" viewBox="0 0 24 24"><title>armchair</title><g stroke-linecap="square" stroke-width="2" fill="none" stroke="#212121" stroke-linejoin="miter" class="nc-icon-wrapper" stroke-miterlimit="10"><line x1="4" y1="23" x2="4" y2="21"></line><line x1="20" y1="23" x2="20" y2="21"></line><path d="M20,7V3a2,2,0,0,0-2-2H6A2,2,0,0,0,4,3V7" stroke="#212121"></path><path d="M23,21V12.5A2.5,2.5,0,0,0,20.5,10h0A2.5,2.5,0,0,0,18,12.5V16H6V12.5A2.5,2.5,0,0,0,3.5,10h0A2.5,2.5,0,0,0,1,12.5V21Z"></path></g></svg>