<svg xmlns="http://www.w3.org/2000/svg" height="24" width="24" viewBox="0 0 24 24"><title>blockchain</title><g stroke-linecap="square" stroke-width="2" fill="none" stroke="#212121" stroke-linejoin="miter" class="nc-icon-wrapper" stroke-miterlimit="10"><polyline points="2 4 7 6.5 12 4" data-cap="butt" stroke-linecap="butt"></polyline><polygon points="12 4 7 1.5 2 4 2 10.5 7 13 12 10.5 12 4"></polygon><line x1="7" y1="6.5" x2="7" y2="13" data-cap="butt" stroke-linecap="butt"></line><polyline points="12 4 17 6.5 22 4" data-cap="butt" stroke-linecap="butt"></polyline><polygon points="22 4 17 1.5 12 4 12 10.5 17 13 22 10.5 22 4"></polygon><line x1="17" y1="6.5" x2="17" y2="13" data-cap="butt" stroke-linecap="butt"></line><polyline points="7 13 12 15.5 17 13" data-cap="butt" stroke-linecap="butt" stroke="#212121"></polyline><line x1="12" y1="15.5" x2="12" y2="22" data-cap="butt" stroke-linecap="butt" stroke="#212121"></line><polygon points="17 13 12 10.5 7 13 7 19.5 12 22 17 19.5 17 13" stroke="#212121"></polygon></g></svg>