<svg xmlns="http://www.w3.org/2000/svg" height="24" width="24" viewBox="0 0 24 24"><title>car front</title><g stroke-linecap="square" stroke-width="2" fill="none" stroke="#212121" stroke-linejoin="miter" class="nc-icon-wrapper" stroke-miterlimit="10"><path data-cap="butt" d="M21,10,19.348,2.566A2,2,0,0,0,17.4,1H6.6A2,2,0,0,0,4.652,2.566L3,10" stroke-linecap="butt"></path><polyline points="6 21 6 23 2 23 2 21" stroke="#212121"></polyline><polyline points="22 21 22 23 18 23 18 21" stroke="#212121"></polyline><path d="M23,18H1V12.828a2,2,0,0,1,.586-1.414L3,10H21l1.414,1.414A2,2,0,0,1,23,12.828Z"></path><circle cx="5" cy="14" r="1" fill="#212121" stroke="none"></circle><circle cx="19" cy="14" r="1" fill="#212121" stroke="none"></circle></g></svg>