<svg xmlns="http://www.w3.org/2000/svg" height="24" width="24" viewBox="0 0 24 24"><title>content 360deg</title><g stroke-linecap="square" stroke-width="2" fill="none" stroke="#212121" stroke-linejoin="miter" class="nc-icon-wrapper" stroke-miterlimit="10"><path d="M11,6.027C11.329,6.01,11.662,6,12,6c6.075,0,11,2.686,11,6s-4.925,6-11,6S1,15.314,1,12A4.475,4.475,0,0,1,3,8.565"></path><path d="M17.973,13c.017-.329.027-.662.027-1,0-6.075-2.686-11-6-11S6,5.925,6,12s2.686,11,6,11a4.475,4.475,0,0,0,3.435-2"></path><circle cx="12" cy="12" r="1" stroke="#212121"></circle></g></svg>