<svg xmlns="http://www.w3.org/2000/svg" height="24" width="24" viewBox="0 0 24 24"><title>dog leash</title><g stroke-linecap="square" stroke-width="2" fill="none" stroke="#212121" stroke-linejoin="miter" class="nc-icon-wrapper" stroke-miterlimit="10"><line x1="14.706" y1="8.353" x2="19.556" y2="10.778" data-cap="butt" stroke-linecap="butt" stroke="#212121"></line><path d="M19,5,17,3,14.26,9.394a1,1,0,0,1-.919.606H6a2,2,0,0,0-2,2V22H7V19.236a.993.993,0,0,1,.106-.447L9,15l5.316,1.772a1,1,0,0,1,.684.949V22h3V17l2-8h1a2,2,0,0,0,2-2V5Z" data-cap="butt" stroke-linecap="butt"></path><path d="M12,7A6,6,0,0,1,6,1" stroke="#212121"></path><path d="M1,7a3,3,0,0,0,3,3H5"></path></g></svg>