<svg xmlns="http://www.w3.org/2000/svg" height="24" width="24" viewBox="0 0 24 24"><title>edit levels</title><g stroke-linecap="square" stroke-width="2" fill="none" stroke="#212121" stroke-linejoin="miter" class="nc-icon-wrapper" stroke-miterlimit="10"><polygon points="1 22 1 19.5 3 18 5 19.5 5 22 1 22"></polygon><polygon points="10 22 10 19.5 12 18 14 19.5 14 22 10 22"></polygon><polygon points="19 22 19 19.5 21 18 23 19.5 23 22 19 22"></polygon><line x1="2" y1="14" x2="2" y2="7" stroke="#212121"></line><line x1="14" y1="14" x2="14" y2="4"></line><line x1="6" y1="14" x2="6" y2="2"></line><line x1="10" y1="14" x2="10" y2="9" stroke="#212121"></line><line x1="18" y1="14" x2="18" y2="6" stroke="#212121"></line><line x1="22" y1="14" x2="22" y2="2"></line></g></svg>