<svg xmlns="http://www.w3.org/2000/svg" height="24" width="24" viewBox="0 0 24 24"><title>logic</title><g stroke-linecap="square" stroke-width="2" fill="none" stroke="#212121" stroke-linejoin="miter" class="nc-icon-wrapper" stroke-miterlimit="10"><path d="M19,23V16.7A9,9,0,1,0,4,10v1L2,15l2,1v3a2,2,0,0,0,2,2h4v2"></path><circle cx="13" cy="10" r="3" stroke="#212121"></circle><line x1="13" y1="7" x2="13" y2="5" stroke="#212121"></line><line x1="15.121" y1="7.879" x2="16.536" y2="6.464" stroke="#212121"></line><line x1="16" y1="10" x2="18" y2="10" stroke="#212121"></line><line x1="15.121" y1="12.121" x2="16.536" y2="13.536" stroke="#212121"></line><line x1="13" y1="13" x2="13" y2="15" stroke="#212121"></line><line x1="10.879" y1="12.121" x2="9.464" y2="13.536" stroke="#212121"></line><line x1="10" y1="10" x2="8" y2="10" stroke="#212121"></line><line x1="10.879" y1="7.879" x2="9.464" y2="6.464" stroke="#212121"></line></g></svg>