<svg xmlns="http://www.w3.org/2000/svg" height="24" width="24" viewBox="0 0 24 24"><title>present</title><g stroke-linecap="square" stroke-width="2" fill="none" stroke="#212121" stroke-linejoin="miter" class="nc-icon-wrapper" stroke-miterlimit="10"><path d="M4,3.5A2.587,2.587,0,0,1,6.667,1C10.611,1,12,6,12,6H6.667A2.587,2.587,0,0,1,4,3.5Z" stroke="#212121"></path> <path d="M17.333,6H12s1.389-5,5.333-5A2.587,2.587,0,0,1,20,3.5,2.587,2.587,0,0,1,17.333,6Z" stroke="#212121"></path> <path d="M21,13v8a2,2,0,0,1-2,2H5a2,2,0,0,1-2-2V13"></path> <rect x="1" y="6" width="22" height="4"></rect> <line x1="12" y1="6" x2="12" y2="23" stroke="#212121"></line></g></svg>