<svg xmlns="http://www.w3.org/2000/svg" height="24" width="24" viewBox="0 0 24 24"><title>rice</title><g stroke-linecap="square" stroke-width="2" fill="none" stroke="#212121" stroke-linejoin="miter" class="nc-icon-wrapper" stroke-miterlimit="10"><path d="M7.437,22h9.126A10.993,10.993,0,0,0,23,12H1A10.993,10.993,0,0,0,7.437,22Z"></path> <line x1="19" y1="7" x2="23" y2="1" stroke="#212121" data-cap="butt" stroke-linecap="butt"></line> <line x1="15.215" y1="7" x2="17" y2="2" stroke="#212121" data-cap="butt" stroke-linecap="butt"></line> <path d="M20.829,9a2.99,2.99,0,0,0-5.023-1.033A2.962,2.962,0,0,0,11.53,6.4a2.984,2.984,0,0,0-5.352.618C6.118,7.014,6.061,7,6,7A3,3,0,0,0,3.171,9" stroke="#212121"></path> <circle cx="4" cy="3" r="1" fill="#212121" stroke="none"></circle> <circle cx="12" cy="2" r="1" fill="#212121" stroke="none"></circle></g></svg>