<svg xmlns="http://www.w3.org/2000/svg" height="24" width="24" viewBox="0 0 24 24"><title>romantic restaurant</title><g stroke-linecap="square" stroke-width="2" fill="none" stroke="#212121" stroke-linejoin="miter" class="nc-icon-wrapper" stroke-miterlimit="10"><line x1="7" y1="15" x2="17" y2="15"></line><line x1="12" y1="23" x2="12" y2="15"></line><line x1="23" y1="13" x2="23" y2="23"></line><polyline points="23 19 17 19 17 23"></polyline><line x1="1" y1="13" x2="1" y2="23"></line><polyline points="1 19 7 19 7 23"></polyline><path d="M16.2,1.812A2.7,2.7,0,0,0,12,2.24a2.7,2.7,0,0,0-4.2-.428,2.8,2.8,0,0,0,0,3.919L12,10l4.2-4.269A2.8,2.8,0,0,0,16.2,1.812Z" stroke="#212121"></path></g></svg>