<svg xmlns="http://www.w3.org/2000/svg" height="24" width="24" viewBox="0 0 24 24"><title>sleeping baby</title><g stroke-linecap="square" stroke-width="2" fill="none" stroke="#212121" stroke-linejoin="miter" class="nc-icon-wrapper" stroke-miterlimit="10"><circle cx="12" cy="16" r="1" stroke="#212121"></circle><path d="M9.915,11a1.5,1.5,0,0,1-2.83,0" stroke="#212121"></path><path d="M14.085,11a1.5,1.5,0,0,0,2.83,0" stroke="#212121"></path><path d="M21,9a1.981,1.981,0,0,0-.5.07A8.991,8.991,0,0,0,3.5,9.07,2,2,0,1,0,3,13c.02,0,.038-.005.058-.006a9,9,0,0,0,17.884,0c.02,0,.038.006.058.006a2,2,0,0,0,0-4Z"></path><path d="M13,6.732A2,2,0,1,1,12,3" data-cap="butt" stroke-linecap="butt"></path></g></svg>