<svg xmlns="http://www.w3.org/2000/svg" height="24" width="24" viewBox="0 0 24 24"><title>web hyperlink</title><g stroke-linecap="square" stroke-width="2" fill="none" stroke="#212121" stroke-linejoin="miter" class="nc-icon-wrapper" stroke-miterlimit="10"><path d=" M21.645,9.999C22.476,10.732,23,11.805,23,13v4c0,2.209-1.791,4-4,4h-9c-2.209,0-4-1.791-4-4v-4c0-2.209,1.791-4,4-4h4" stroke="#212121"></path> <path d="M2.355,14.001 C1.524,13.268,1,12.195,1,11V7c0-2.209,1.791-4,4-4h9c2.209,0,4,1.791,4,4v4c0,2.209-1.791,4-4,4h-4"></path></g></svg>