<svg xmlns="http://www.w3.org/2000/svg" height="24" width="24" viewBox="0 0 24 24"><title>world</title><g stroke-linecap="square" stroke-width="2" fill="none" stroke="#212121" stroke-linejoin="miter" class="nc-icon-wrapper" stroke-miterlimit="10"><polyline data-cap="butt" points="5.11 3.425 6.722 4.75 8.367 6.506 7.963 9.246 5.369 10.558 4 11.726 4.667 12.864 5.974 14.264 6.68 16.737 4.717 18.384 4.358 19.912" stroke-linecap="butt" stroke="#212121"></polyline><polyline data-cap="butt" points="20.32 4.805 18.843 5.643 15.843 6 13.559 4.162 12.939 2.349 12.127 1" stroke-linecap="butt" stroke="#212121"></polyline><polygon points="19.007 12.903 18.079 15.001 17.125 17.152 15.362 18.793 13.023 18.943 11.629 17.253 12.097 15.083 11.694 12.94 13.287 10.943 15.514 10.161 17.872 10.725 19.007 12.903" stroke="#212121"></polygon><circle cx="12" cy="12" r="11"></circle></g></svg>