<svg xmlns="http://www.w3.org/2000/svg" height="32" width="32" viewBox="0 0 32 32"><title>access key</title><g fill="#212121" class="nc-icon-wrapper"><path data-color="color-2" d="M30.707,8.293L27.414,5l2.293-2.293c0.391-0.391,0.391-1.023,0-1.414s-1.023-0.391-1.414,0 L14.329,15.257c0.257,0.211,0.504,0.435,0.742,0.672c0.238,0.238,0.461,0.485,0.672,0.742L22,10.414l3.293,3.293 C25.488,13.902,25.744,14,26,14s0.512-0.098,0.707-0.293l4-4C31.098,9.316,31.098,8.684,30.707,8.293z"></path> <path fill="#212121" d="M13.657,17.343C12.146,15.832,10.137,15,8,15s-4.146,0.832-5.657,2.343C0.832,18.854,0,20.863,0,23 s0.832,4.146,2.343,5.657C3.854,30.168,5.863,31,8,31s4.146-0.832,5.657-2.343C15.168,27.146,16,25.137,16,23 S15.168,18.854,13.657,17.343z"></path></g></svg>