<svg xmlns="http://www.w3.org/2000/svg" height="32" width="32" viewBox="0 0 32 32"><title>augmented reality</title><g fill="#212121" class="nc-icon-wrapper"><path d="M22.447,4.105l-6-3a1,1,0,0,0-.894,0l-6,3A1,1,0,0,0,9,5v7a1,1,0,0,0,.553.895l6,3a1,1,0,0,0,.894,0l6-3A1,1,0,0,0,23,12V5A1,1,0,0,0,22.447,4.105ZM16,3.118,19.764,5,16,6.882,12.236,5Z" data-color="color-2"></path><path d="M29.591,27.131l-5.236-8.649A1,1,0,0,0,23.5,18H8.5a1,1,0,0,0-.855.482L2.424,27.108A2.5,2.5,0,0,0,4.5,31h23a2.5,2.5,0,0,0,2.091-3.869ZM5.43,26l3.633-6H22.936l3.632,6Z" fill="#212121"></path></g></svg>