<svg xmlns="http://www.w3.org/2000/svg" height="32" width="32" viewBox="0 0 32 32"><title>automated logistics</title><g fill="#212121" class="nc-icon-wrapper"><path d="M31.625,10.219,27,6.519V0H25V6.519l-4.625,3.7A1,1,0,0,0,20,11v4a1,1,0,0,0,2,0V11.48l4-3.2,4,3.2V15a1,1,0,0,0,2,0V11A1,1,0,0,0,31.625,10.219Z" data-color="color-2"></path><rect x="20" y="20" width="12" height="8" rx="1" fill="#212121"></rect><path d="M31,30H1a1,1,0,0,0,0,2H31a1,1,0,0,0,0-2Z" fill="#212121"></path><path d="M1,28H15a1,1,0,0,0,1-1V13a1,1,0,0,0-1-1H1a1,1,0,0,0-1,1V27A1,1,0,0,0,1,28ZM6,16h4a1,1,0,0,1,0,2H6a1,1,0,0,1,0-2Z" fill="#212121"></path></g></svg>