<svg xmlns="http://www.w3.org/2000/svg" height="32" width="32" viewBox="0 0 32 32"><title>basket</title><g fill="#212121" class="nc-icon-wrapper"><path data-color="color-2" d="M25.966,9,20.857.485a1,1,0,0,0-1.733,1l.019.031L23.634,9H8.366l4.491-7.485A1,1,0,1,0,11.162.454l-.019.031L6.034,9H1a1,1,0,0,0-1,1v2a1,1,0,0,0,1,1H31a1,1,0,0,0,1-1V10a1,1,0,0,0-1-1Z"></path><path d="M3,15V28a4,4,0,0,0,4,4H25a4,4,0,0,0,4-4V15Zm7.5,12h-1a.5.5,0,0,1-.5-.5v-7a.5.5,0,0,1,.5-.5h1a.5.5,0,0,1,.5.5v7A.5.5,0,0,1,10.5,27Zm6,0h-1a.5.5,0,0,1-.5-.5v-7a.5.5,0,0,1,.5-.5h1a.5.5,0,0,1,.5.5v7A.5.5,0,0,1,16.5,27Zm6,0h-1a.5.5,0,0,1-.5-.5v-7a.5.5,0,0,1,.5-.5h1a.5.5,0,0,1,.5.5v7A.5.5,0,0,1,22.5,27Z" fill="#212121"></path></g></svg>