<svg xmlns="http://www.w3.org/2000/svg" height="32" width="32" viewBox="0 0 32 32"><title>car front</title><g fill="#212121" class="nc-icon-wrapper"><path data-color="color-2" d="M8,31H3a1,1,0,0,1-1-1V27H9v3A1,1,0,0,1,8,31Z"></path><path data-color="color-2" d="M29,31H24a1,1,0,0,1-1-1V27h7v3A1,1,0,0,1,29,31Z"></path><path d="M31.121,15.707,28.934,13.52,27.265,3.507A2.99,2.99,0,0,0,24.306,1H7.694A2.99,2.99,0,0,0,4.735,3.507L3.066,13.519.878,15.709A2.979,2.979,0,0,0,0,17.829V24a1,1,0,0,0,1,1H31a1,1,0,0,0,1-1V17.828A2.978,2.978,0,0,0,31.121,15.707ZM6.708,3.835A1,1,0,0,1,7.694,3H24.306a1,1,0,0,1,.986.835L26.82,13H5.18ZM6,22a2,2,0,1,1,2-2A2,2,0,0,1,6,22Zm20,0a2,2,0,1,1,2-2A2,2,0,0,1,26,22Z" fill="#212121"></path></g></svg>