<svg xmlns="http://www.w3.org/2000/svg" height="32" width="32" viewBox="0 0 32 32"><title>check all</title><g fill="#212121" class="nc-icon-wrapper"><path data-color="color-2" d="M7.324,26.324l-6.97-6.97a.5.5,0,0,1,0-.708L1.71,17.29a.5.5,0,0,1,.631-.063L8,21,21.746,5.291a.5.5,0,0,1,.6-.118l1.143.571a.5.5,0,0,1,.19.729L10.37,26.066a2,2,0,0,1-2.788.476A2.066,2.066,0,0,1,7.324,26.324Z"></path><path d="M31,11H26a1,1,0,0,1,0-2h5a1,1,0,0,1,0,2Z" fill="#212121"></path><path d="M31,18H22a1,1,0,0,1,0-2h9a1,1,0,0,1,0,2Z" fill="#212121"></path><path d="M31,25H17a1,1,0,0,1,0-2H31a1,1,0,0,1,0,2Z" fill="#212121"></path></g></svg>