<svg xmlns="http://www.w3.org/2000/svg" height="32" width="32" viewBox="0 0 32 32"><title>content 360deg</title><g fill="#212121" class="nc-icon-wrapper"><path d="M32,16c0-3.426-3.244-6.345-8.132-7.868C22.344,3.244,19.426,0,16,0,10.953,0,7,7.028,7,16a28.009,28.009,0,0,0,.543,5.525C4.2,20.232,2,18.219,2,16c0-1.688,1.274-3.257,3.35-4.482q.189-1.3.485-2.516C2.254,10.639,0,13.143,0,16c0,3.426,3.244,6.345,8.132,7.868C9.656,28.756,12.574,32,16,32c2.853,0,5.355-2.248,6.992-5.822-.811.2-1.65.368-2.523.495C19.246,28.737,17.682,30,16,30c-2.22,0-4.232-2.2-5.525-5.543A28,28,0,0,0,16,25C24.972,25,32,21.047,32,16ZM9,16C9,8.411,12.206,2,16,2c2.22,0,4.232,2.2,5.525,5.543A28,28,0,0,0,16,7a29.453,29.453,0,0,0-3.174.172,15.368,15.368,0,0,0-.849,2.137A26.257,26.257,0,0,1,16,9a25.248,25.248,0,0,1,6.233.767A25.248,25.248,0,0,1,23,16a26.293,26.293,0,0,1-.308,4.016,15.342,15.342,0,0,0,2.136-.842A29.439,29.439,0,0,0,25,16a28.009,28.009,0,0,0-.543-5.525C27.8,11.768,30,13.781,30,16c0,3.794-6.411,7-14,7a25.248,25.248,0,0,1-6.233-.767A25.248,25.248,0,0,1,9,16Z" fill="#212121"></path><path d="M20,16a4,4,0,1,0-4,4A4,4,0,0,0,20,16Z" data-color="color-2"></path></g></svg>