<svg xmlns="http://www.w3.org/2000/svg" height="32" width="32" viewBox="0 0 32 32"><title>contactless card</title><g fill="#212121" class="nc-icon-wrapper"><path d="M30,4H2A2,2,0,0,0,0,6V26a2,2,0,0,0,2,2H30a2,2,0,0,0,2-2V6A2,2,0,0,0,30,4ZM5.5,9h6a.5.5,0,0,1,.5.5v4a.5.5,0,0,1-.5.5h-6a.5.5,0,0,1-.5-.5v-4A.5.5,0,0,1,5.5,9Zm11,14H5.5a.5.5,0,0,1-.5-.5v-1a.5.5,0,0,1,.5-.5h11a.5.5,0,0,1,.5.5v1A.5.5,0,0,1,16.5,23ZM18,13a1,1,0,1,1,1-1A1,1,0,0,1,18,13Zm2.455-2.364,1.769-.983a3.936,3.936,0,0,1,0,4.694l-1.769-.983A1.979,1.979,0,0,0,20.455,10.636ZM26.5,23h-5a.5.5,0,0,1-.5-.5v-1a.5.5,0,0,1,.5-.5h5a.5.5,0,0,1,.5.5v1A.5.5,0,0,1,26.5,23Zm-.764-6.7-1.747-.971a5.98,5.98,0,0,0,0-6.654L25.736,7.7A7.939,7.939,0,0,1,25.736,16.3Z" fill="#212121"></path></g></svg>