<svg xmlns="http://www.w3.org/2000/svg" height="32" width="32" viewBox="0 0 32 32"><title>coughing</title><g fill="#212121" class="nc-icon-wrapper"><path d="M24.25,22.084a1,1,0,0,1-.316-.052l-3.25-1.083a1,1,0,1,1,.632-1.9l3.251,1.084a1,1,0,0,1-.317,1.949Z" data-color="color-2"></path><circle cx="28.5" cy="22.5" r="1.5" data-color="color-2"></circle><circle cx="20.5" cy="30.5" r="1.5" data-color="color-2"></circle><path d="M19.083,27.251a1,1,0,0,1-.948-.684l-1.084-3.251a1,1,0,1,1,1.9-.632l1.083,3.25a1,1,0,0,1-.949,1.317Z" data-color="color-2"></path><circle cx="25.5" cy="27.5" r="1.5" data-color="color-2"></circle><path d="M9.237,32H1a1,1,0,0,1-1-1V1A1,1,0,0,1,1,0H24.4l-.438,1.315A19.845,19.845,0,0,1,22.1,5.34l1.876,8.443a1,1,0,0,1-.866,1.211l-3.773.419L18.981,17.2A1,1,0,0,1,18,18H13l2.529,2.729a1,1,0,0,1,.161,1.127l-.916,1.833A5.28,5.28,0,0,1,12.4,26.132a4.981,4.981,0,0,1-4.422-.027L4.447,24.342,3.236,26.764a2,2,0,0,0,.9,2.684Z" fill="#212121"></path></g></svg>