<svg xmlns="http://www.w3.org/2000/svg" height="32" width="32" viewBox="0 0 32 32"><title>data settings</title><g fill="#212121" class="nc-icon-wrapper"><path data-color="color-2" d="M31.562,24l-1.727-.216a4.964,4.964,0,0,0-.561-1.348l1.071-1.376a.5.5,0,0,0-.041-.66L29.6,19.7a.5.5,0,0,0-.66-.041L27.56,20.726a4.964,4.964,0,0,0-1.348-.561L26,18.438A.5.5,0,0,0,25.5,18h-1a.5.5,0,0,0-.5.438l-.216,1.727a4.964,4.964,0,0,0-1.348.561l-1.376-1.071a.5.5,0,0,0-.66.041L19.7,20.4a.5.5,0,0,0-.041.66l1.071,1.376a4.964,4.964,0,0,0-.561,1.348L18.437,24a.5.5,0,0,0-.437.5v1a.5.5,0,0,0,.437.5l1.728.216a4.964,4.964,0,0,0,.561,1.348l-1.071,1.376a.5.5,0,0,0,.041.66l.708.708a.5.5,0,0,0,.354.146.5.5,0,0,0,.306-.105l1.376-1.071a4.964,4.964,0,0,0,1.348.561L24,31.562a.5.5,0,0,0,.5.438h1a.5.5,0,0,0,.5-.438l.216-1.727a4.964,4.964,0,0,0,1.348-.561l1.376,1.071a.5.5,0,0,0,.306.105A.5.5,0,0,0,29.6,30.3L30.3,29.6a.5.5,0,0,0,.041-.66L29.274,27.56a4.964,4.964,0,0,0,.561-1.348L31.562,26A.5.5,0,0,0,32,25.5v-1A.5.5,0,0,0,31.562,24ZM25,27a2,2,0,1,1,2-2A2,2,0,0,1,25,27Z"></path><path d="M16,25a8.985,8.985,0,0,1,13-8.053V.5a.5.5,0,0,0-.854-.354l-28,28A.5.5,0,0,0,.5,29H16.947A8.938,8.938,0,0,1,16,25Z" fill="#212121"></path></g></svg>