<svg xmlns="http://www.w3.org/2000/svg" height="32" width="32" viewBox="0 0 32 32"><title>dog leash</title><g fill="#212121" class="nc-icon-wrapper"><path d="M19.092,11.164A4,4,0,0,1,16.646,12H5A3,3,0,0,1,2,9,1,1,0,0,0,0,9a4.99,4.99,0,0,0,4.578,4.957A3.961,3.961,0,0,0,4,16V31H6l.969-5.813a.987.987,0,0,1,.129-.35L10,20l10.354,2.824a1,1,0,0,1,.729.84L22,31h2V23l2.085-8.339Z" fill="#212121"></path><path d="M25,5,24,3,20.356,9.56l6.226,3.113L27,11h2a3,3,0,0,0,3-3V7Z" fill="#212121"></path><path d="M18,10H17A9.01,9.01,0,0,1,8,1V0h2V1a7.008,7.008,0,0,0,7,7h1Z" data-color="color-2"></path></g></svg>