<svg xmlns="http://www.w3.org/2000/svg" height="32" width="32" viewBox="0 0 32 32"><title>download file</title><g fill="#212121" class="nc-icon-wrapper"><path data-color="color-2" d="M10.11,16.542a1,1,0,0,0,.077,1.039l5,7a1.035,1.035,0,0,0,1.626,0l5-7A1,1,0,0,0,21,16H17V3a1,1,0,0,0-2,0V16H11A1,1,0,0,0,10.11,16.542Z"></path><path d="M27,11H20v2h6.161l2.647,15H3.192L5.839,13H12V11H5a1,1,0,0,0-.985.826l-3,17A1,1,0,0,0,2,30H30a1,1,0,0,0,.985-1.174l-3-17A1,1,0,0,0,27,11Z" fill="#212121"></path></g></svg>