<svg xmlns="http://www.w3.org/2000/svg" height="32" width="32" viewBox="0 0 32 32"><title>embryo</title><g fill="#212121" class="nc-icon-wrapper"><path d="M10,9a7.976,7.976,0,0,0,4.354,7.111A1,1,0,0,1,13.9,18a.987.987,0,0,1-.457-.111A9.969,9.969,0,0,1,8,9,12.006,12.006,0,0,0,4.223.271,1,1,0,1,0,2.855,1.729,10,10,0,0,1,6,9a11.934,11.934,0,0,0,3.751,8.706l-3.486-.622A6.437,6.437,0,0,0,5.5,17a3.482,3.482,0,0,0-3.161,4.981H2.33L5.372,27.8l-.786.787a2,2,0,0,0,2.828,2.828l1.5-1.5a2,2,0,0,0,.55-1.791h0v0L8.7,24.509A10.488,10.488,0,0,0,26.253,13.623,7,7,0,1,0,20.408,13H18a4,4,0,0,1-4-4,2,2,0,0,0-4,0Z" fill="#212121"></path></g></svg>