<svg xmlns="http://www.w3.org/2000/svg" height="32" width="32" viewBox="0 0 32 32"><title>file text</title><g fill="#212121" class="nc-icon-wrapper"><polygon data-color="color-2" points="22 1 22 8 29 8 22 1"></polygon><path d="M20,10V0H3A1,1,0,0,0,2,1V31a1,1,0,0,0,1,1H29a1,1,0,0,0,1-1V10ZM8.5,8h7a.5.5,0,0,1,.5.5v1a.5.5,0,0,1-.5.5h-7A.5.5,0,0,1,8,9.5v-1A.5.5,0,0,1,8.5,8Zm15,16H8.5a.5.5,0,0,1-.5-.5v-1a.5.5,0,0,1,.5-.5h15a.5.5,0,0,1,.5.5v1A.5.5,0,0,1,23.5,24Zm0-7H8.5a.5.5,0,0,1-.5-.5v-1a.5.5,0,0,1,.5-.5h15a.5.5,0,0,1,.5.5v1A.5.5,0,0,1,23.5,17Z" fill="#212121"></path></g></svg>