<svg xmlns="http://www.w3.org/2000/svg" height="32" width="32" viewBox="0 0 32 32"><title>home 3</title><g fill="#212121" class="nc-icon-wrapper"><path d="M16,5.842l-12,9.6V30a1,1,0,0,0,1,1h8V24.5a.5.5,0,0,1,.5-.5h5a.5.5,0,0,1,.5.5V31h8a1,1,0,0,0,1-1V15.442ZM18.5,20h-5a.5.5,0,0,1-.5-.5v-4a.5.5,0,0,1,.5-.5h5a.5.5,0,0,1,.5.5v4A.5.5,0,0,1,18.5,20Z" fill="#212121"></path><path data-color="color-2" d="M31.624,13.219l-15-12a1,1,0,0,0-1.249,0L8,7.119V4.5A.5.5,0,0,0,7.5,4h-2a.5.5,0,0,0-.5.5V9.519l-4.625,3.7a1,1,0,0,0,1.249,1.562L16,3.28l14.375,11.5a1,1,0,1,0,1.25-1.561Z"></path></g></svg>