<svg xmlns="http://www.w3.org/2000/svg" height="32" width="32" viewBox="0 0 32 32"><title>incognito</title><g fill="#212121" class="nc-icon-wrapper"><polygon points="0 17 32 17 26 12 6 12 0 17" fill="#212121"></polygon><path d="M24,19a6,6,0,0,0-5.066,2.8,5.786,5.786,0,0,0-5.868,0,6.035,6.035,0,1,0,.779,1.866,4.037,4.037,0,0,1,4.31,0A6,6,0,1,0,24,19ZM8,29a4,4,0,1,1,4-4A4,4,0,0,1,8,29Zm16,0a4,4,0,1,1,4-4A4,4,0,0,1,24,29Z" data-color="color-2"></path><path d="M25.455,10,23.2,1.737A1,1,0,0,0,22.236,1H9.764a1,1,0,0,0-.965.737L6.545,10Z" fill="#212121"></path></g></svg>