<svg xmlns="http://www.w3.org/2000/svg" height="32" width="32" viewBox="0 0 32 32"><title>logic</title><g fill="#212121" class="nc-icon-wrapper"><circle cx="17" cy="13" r="2" data-color="color-2"></circle><path d="M16.346.016A13.249,13.249,0,0,0,4,13.377v.406l-2.41,5.3a1,1,0,0,0,.4,1.272L4,21.566V25a4,4,0,0,0,4,4h4v3H26V22.362A12.988,12.988,0,0,0,16.346.016ZM24,13.5a.5.5,0,0,1-.438.5l-1.727.216a4.964,4.964,0,0,1-.561,1.348l1.071,1.376a.5.5,0,0,1-.041.66L21.6,18.3a.5.5,0,0,1-.354.146.5.5,0,0,1-.306-.105L19.56,17.274a4.964,4.964,0,0,1-1.348.561L18,19.562a.5.5,0,0,1-.5.438h-1a.5.5,0,0,1-.5-.438l-.216-1.727a4.964,4.964,0,0,1-1.348-.561l-1.376,1.071a.5.5,0,0,1-.306.105A.5.5,0,0,1,12.4,18.3L11.7,17.6a.5.5,0,0,1-.041-.66l1.071-1.376a4.964,4.964,0,0,1-.561-1.348L10.438,14A.5.5,0,0,1,10,13.5v-1a.5.5,0,0,1,.438-.5l1.727-.216a4.964,4.964,0,0,1,.561-1.348L11.655,9.064A.5.5,0,0,1,11.7,8.4L12.4,7.7a.5.5,0,0,1,.66-.041L14.44,8.726a4.964,4.964,0,0,1,1.348-.561L16,6.438A.5.5,0,0,1,16.5,6h1a.5.5,0,0,1,.5.438l.216,1.727a4.964,4.964,0,0,1,1.348.561l1.376-1.071a.5.5,0,0,1,.66.041L22.3,8.4a.5.5,0,0,1,.041.66L21.274,10.44a4.964,4.964,0,0,1,.561,1.348L23.562,12a.5.5,0,0,1,.438.5Z" fill="#212121"></path></g></svg>