<svg xmlns="http://www.w3.org/2000/svg" height="32" width="32" viewBox="0 0 32 32"><title>open in browser</title><g fill="#212121" class="nc-icon-wrapper"><path data-color="color-2" d="M22,20a1,1,0,0,0,.759-1.65l-6-7a1.031,1.031,0,0,0-1.457-.061c-.021.019-.041.04-.061.061l-6,7A1,1,0,0,0,10,20h5V31a1,1,0,0,0,2,0V20Z"></path><path d="M28,0H4A4,4,0,0,0,0,4V21a4,4,0,0,0,4,4h6a1,1,0,0,0,0-2H4a2,2,0,0,1-2-2V8H30V21a2,2,0,0,1-2,2H22a1,1,0,0,0,0,2h6a4,4,0,0,0,4-4V4A4,4,0,0,0,28,0ZM10,4.5a.5.5,0,0,1-.5.5h-5A.5.5,0,0,1,4,4.5v-1A.5.5,0,0,1,4.5,3h5a.5.5,0,0,1,.5.5Z" fill="#212121"></path></g></svg>