<svg xmlns="http://www.w3.org/2000/svg" height="32" width="32" viewBox="0 0 32 32"><title>privacy policy</title><g fill="#212121" class="nc-icon-wrapper"><circle cx="6.5" cy="6.5" r="3.5" fill="#212121"></circle> <circle cx="25.5" cy="6.5" r="3.5" data-color="color-2"></circle> <path d="M15.55,19.6a10.182,10.182,0,0,1-4.612-3.921C9.637,13.956,8.163,12,5,12a4.848,4.848,0,0,0-5,5V28a1,1,0,0,0,1,1H9a1,1,0,0,0,1-1V19.291A11.527,11.527,0,0,0,14.45,22.4a1.5,1.5,0,1,0,1.1-2.792Z" fill="#212121"></path> <path d="M27,12c-3.163,0-4.637,1.956-5.938,3.683a11.663,11.663,0,0,1-3.254,3.24,3.386,3.386,0,0,1,.512,3.137A11.53,11.53,0,0,0,22,19.291V28a1,1,0,0,0,1,1h8a1,1,0,0,0,1-1V17A4.848,4.848,0,0,0,27,12Z" data-color="color-2"></path></g></svg>