<svg xmlns="http://www.w3.org/2000/svg" height="32" width="32" viewBox="0 0 32 32"><title>ranking</title><g fill="#212121" class="nc-icon-wrapper"><path d="M9.571,14.444l.631.388,2.147-4.294,8.037,6.252a1,1,0,0,0,1.436-.221l9-13a1,1,0,1,0-1.644-1.138l-8.4,12.131L12.614,8.21a1,1,0,0,0-1.509.343L8.369,14.026A3,3,0,0,1,9.571,14.444Z" fill="#212121"></path><path d="M7.15,20H5.382L1.105,28.553a1,1,0,0,0,1.79.894L7.508,20.22Z" fill="#212121"></path><path data-color="color-2" d="M21,26a1,1,0,0,1-.524-.148L7.717,18H2a1,1,0,0,1,0-2H8a1,1,0,0,1,.524.148l12.41,7.637,8.452-6.575a1,1,0,0,1,1.228,1.58l-9,7A1,1,0,0,1,21,26Z"></path></g></svg>