<svg xmlns="http://www.w3.org/2000/svg" height="32" width="32" viewBox="0 0 32 32"><title>rice</title><g fill="#212121" class="nc-icon-wrapper"><path d="M31,15H1a1,1,0,0,0-1,1A16.087,16.087,0,0,0,10.292,30.934,1,1,0,0,0,10.65,31h10.7a1,1,0,0,0,.358-.066A16.087,16.087,0,0,0,32,16,1,1,0,0,0,31,15Z" fill="#212121"></path> <path d="M3,13H29a1,1,0,0,0,1-1,4.97,4.97,0,0,0-1.907-3.9L31.868,1.5,30.132.5,26.308,7.2a4.6,4.6,0,0,0-2.762.033l1.415-4.955-1.922-.548L21.422,7.384A5,5,0,0,0,16.336,6.3,4.954,4.954,0,0,0,8.791,7.33,5,5,0,0,0,2,12,1,1,0,0,0,3,13Z" data-color="color-2"></path> <circle cx="6" cy="4" r="1" fill="#212121"></circle> <circle cx="17" cy="2" r="1" fill="#212121"></circle></g></svg>