<svg xmlns="http://www.w3.org/2000/svg" height="32" width="32" viewBox="0 0 32 32"><title>romantic restaurant</title><g fill="#212121" class="nc-icon-wrapper"><path d="M24,21a1,1,0,0,0,0-2H8a1,1,0,0,0,0,2h7V32h2V21Z" fill="#212121"></path><path d="M30,17v7H23a1,1,0,0,0-1,1v7h2V27h6v5h2V17Z" fill="#212121"></path><path d="M9,24H2V17H0V32H2V27H8v5h2V25A1,1,0,0,0,9,24Z" fill="#212121"></path><path d="M21.8,6.971l-5.8,5.8-5.8-5.8A4.081,4.081,0,1,1,16,1.232a4.081,4.081,0,1,1,5.8,5.739Z" data-color="color-2"></path></g></svg>