<svg xmlns="http://www.w3.org/2000/svg" height="32" width="32" viewBox="0 0 32 32"><title>savings</title><g fill="#212121" class="nc-icon-wrapper"><path d="M19.618,17.55A7.972,7.972,0,0,0,30,16.5,7.968,7.968,0,0,0,24.2,14c-.068,0-.134.009-.2.01V14a9,9,0,0,0-8,4.9A9,9,0,0,0,8,14a7.967,7.967,0,0,0-5.8,2.5,7.959,7.959,0,0,0,10.271,1.12A6.989,6.989,0,0,1,15,23H10a1,1,0,0,0-.99,1.142l1,7A1,1,0,0,0,11,32H21a1,1,0,0,0,.99-.858l1-7A1,1,0,0,0,22,23H17A6.987,6.987,0,0,1,19.618,17.55Z" fill="#212121"></path><path d="M16,0a7,7,0,1,0,7,7A7.008,7.008,0,0,0,16,0Zm1,10H15V4h2Z" data-color="color-2"></path></g></svg>