<svg xmlns="http://www.w3.org/2000/svg" height="32" width="32" viewBox="0 0 32 32"><title>screen maximize</title><g fill="#212121" class="nc-icon-wrapper"><path d="M2,11a1,1,0,0,0,1-1V5A2,2,0,0,1,5,3h5a1,1,0,0,0,0-2H5A4,4,0,0,0,1,5v5A1,1,0,0,0,2,11Z" fill="#212121"></path><path d="M27,1H22a1,1,0,0,0,0,2h5a2,2,0,0,1,2,2v5a1,1,0,0,0,2,0V5A4,4,0,0,0,27,1Z" fill="#212121"></path><path d="M30,21a1,1,0,0,0-1,1v5a2,2,0,0,1-2,2H22a1,1,0,0,0,0,2h5a4,4,0,0,0,4-4V22A1,1,0,0,0,30,21Z" fill="#212121"></path><path d="M10,29H5a2,2,0,0,1-2-2V22a1,1,0,0,0-2,0v5a4,4,0,0,0,4,4h5a1,1,0,0,0,0-2Z" fill="#212121"></path><rect data-color="color-2" x="9" y="11" width="14" height="10" rx="1"></rect></g></svg>