<svg xmlns="http://www.w3.org/2000/svg" height="32" width="32" viewBox="0 0 32 32"><title>settings</title><g fill="#212121" class="nc-icon-wrapper"><path data-color="color-2" d="M22.208,17.208l-5.724,6.276,6.273,6.273h0a4.242,4.242,0,0,0,6,0h0a4.242,4.242,0,0,0,0-6Z"></path> <polygon data-color="color-2" points="13.223 11.223 4 2 1 5 10.085 14.085 13.223 11.223"></polygon> <path d="M30.634,5.366,27,9,23,5l3.634-3.634a6.49,6.49,0,0,0-8.368,7.965L1.652,24.484a2,2,0,0,0-.13,2.825c.021.023.042.045.064.067l3.038,3.038a2,2,0,0,0,2.828,0c.022-.022.043-.044.064-.067L22.669,13.734a6.486,6.486,0,0,0,7.965-8.368Z" fill="#212121"></path></g></svg>