<svg xmlns="http://www.w3.org/2000/svg" height="32" width="32" viewBox="0 0 32 32"><title>sleeping baby</title><g fill="#212121" class="nc-icon-wrapper"><path d="M28,14h-.01A13.005,13.005,0,0,0,16,6a2,2,0,1,0,1.414,3.414,1,1,0,0,1,1.415,1.414,3.99,3.99,0,0,1-6.546-4.28A13.014,13.014,0,0,0,4.01,14H4a4,4,0,0,0-.65,7.947,12.985,12.985,0,0,0,25.3,0A4,4,0,0,0,28,14ZM11,19a3,3,0,0,1-2.9-2.249,1,1,0,0,1,1.936-.5.99.99,0,0,0,1.922,0,1,1,0,0,1,1.936.5A3,3,0,0,1,11,19Zm5,9a2.5,2.5,0,1,1,2.5-2.5A2.5,2.5,0,0,1,16,28Zm7.827-11.25a2.991,2.991,0,0,1-5.8,0,1,1,0,0,1,1.936-.5.991.991,0,0,0,1.922,0,1,1,0,0,1,1.937.5Z" fill="#212121"></path><path d="M31,7H26a1,1,0,0,1-.707-1.707L28.586,2H26a1,1,0,0,1,0-2h5a1,1,0,0,1,.707,1.707L28.414,5H31a1,1,0,0,1,0,2Z" data-color="color-2"></path></g></svg>