<svg xmlns="http://www.w3.org/2000/svg" height="32" width="32" viewBox="0 0 32 32"><title>smiling face glasses</title><g fill="#212121" class="nc-icon-wrapper"><circle data-color="color-2" cx="10" cy="13" r="3"></circle> <circle data-color="color-2" cx="22" cy="13" r="3"></circle> <path d="M16,0A16,16,0,1,0,32,16,16,16,0,0,0,16,0Zm0,27a6,6,0,0,1-6-6H22A6,6,0,0,1,16,27Zm6-9a5.006,5.006,0,0,1-5-5,1,1,0,0,0-2,0,5.065,5.065,0,1,1-.685-2.48,2.99,2.99,0,0,1,3.37,0A4.99,4.99,0,1,1,22,18Z" fill="#212121"></path></g></svg>