<svg xmlns="http://www.w3.org/2000/svg" height="32" width="32" viewBox="0 0 32 32"><title>snowboarding</title><g fill="#212121" class="nc-icon-wrapper"><circle cx="20" cy="3.5" r="3.5" fill="#212121"></circle> <path d="M9.913,14.069a3.5,3.5,0,0,0,2.1,5.066l3.136.895-1.182,5.848,2.567.191,1.911-6.657a1.5,1.5,0,0,0-1.03-1.854l-.788-.225,2.718-4.869,7.017,6.3L28.121,17l-8.06-8.061a1.5,1.5,0,0,0-.39-.281l-4-2a1.514,1.514,0,0,0-.377-.129L3.823,4.235,3.329,6.706l9.362,2.362Z" fill="#212121"></path> <path d="M19.4,19.687l-.267.933L20.27,21,19.7,26.3l2.545.189,1.228-6.2a1.5,1.5,0,0,0-.993-1.716l-3.58-1.2a2.456,2.456,0,0,1,.288.41A2.487,2.487,0,0,1,19.4,19.687Z" fill="#212121"></path> <path data-color="color-2" d="M29,31q-.038,0-.075,0l-27-2A1,1,0,1,1,2.074,27l27,2A1,1,0,0,1,29,31Z"></path></g></svg>