<svg xmlns="http://www.w3.org/2000/svg" height="32" width="32" viewBox="0 0 32 32"><title>soft drink</title><g fill="#212121" class="nc-icon-wrapper"><path d="M11.992,30H9c-.438,0-.812-.621-.812-1.129a4.991,4.991,0,0,1,.291-1.355,10.386,10.386,0,0,0,.555-3.235,20.113,20.113,0,0,0-.24-2.768A38.14,38.14,0,0,1,8.4,15.9a23.008,23.008,0,0,1,1.685-7.437A12.237,12.237,0,0,0,11,5V4h2V5a12.237,12.237,0,0,0,.916,3.463A35.407,35.407,0,0,1,15.276,13h2.029a35.024,35.024,0,0,0-1.5-5.2A12.589,12.589,0,0,1,15,5V1a1,1,0,0,0-1-1H10A1,1,0,0,0,9,1V5a12.589,12.589,0,0,1-.8,2.8,24.973,24.973,0,0,0-1.8,8.1,39.816,39.816,0,0,0,.413,5.876,18.452,18.452,0,0,1,.222,2.5,8.465,8.465,0,0,1-.469,2.657,6.552,6.552,0,0,0-.377,1.933A3.033,3.033,0,0,0,9,32h3.882A4.961,4.961,0,0,1,11.992,30Z" fill="#212121"></path> <path d="M23.129,32H16.871a3.008,3.008,0,0,1-2.993-2.8L13,16.066A1,1,0,0,1,14,15H26a1,1,0,0,1,1,1.066L26.122,29.2A3.008,3.008,0,0,1,23.129,32Z" data-color="color-2"></path></g></svg>