<svg xmlns="http://www.w3.org/2000/svg" height="32" width="32" viewBox="0 0 32 32"><title>time machine</title><g fill="#212121" class="nc-icon-wrapper"><path d="M16,1A15.017,15.017,0,0,0,1,16a1,1,0,0,0,2,0,13.042,13.042,0,1,1,4.18,9.527l2.674-2.673a.5.5,0,0,0-.233-.839l-8-2a.5.5,0,0,0-.618.54l1,9a.5.5,0,0,0,.332.417A.493.493,0,0,0,2.5,30a.5.5,0,0,0,.354-.146l2.914-2.915A14.991,14.991,0,1,0,16,1Z" fill="#212121"></path><path data-color="color-2" d="M16,6a1,1,0,0,0-1,1v9a1,1,0,0,0,1,1h9a1,1,0,0,0,0-2H17V7A1,1,0,0,0,16,6Z"></path></g></svg>