<svg xmlns="http://www.w3.org/2000/svg" height="32" width="32" viewBox="0 0 32 32"><title>transactions</title><g fill="#212121" class="nc-icon-wrapper"><path d="M7.772,22.25a3.992,3.992,0,0,0-3.949-1.968A12.327,12.327,0,0,1,3.5,17.5,12.5,12.5,0,0,1,10.462,6.31a5.982,5.982,0,0,1-.446-2A14.51,14.51,0,0,0,1.5,17.5a14.312,14.312,0,0,0,.45,3.542,3.986,3.986,0,0,0,1.323,7.071,4,4,0,0,0,4.5-5.863Z" fill="#212121"></path><path d="M31.555,23.215a4,4,0,1,0-7.064,3.43A12.438,12.438,0,0,1,9.075,27.9,5.962,5.962,0,0,1,7.56,29.267,14.407,14.407,0,0,0,26.069,27.9a3.949,3.949,0,0,0,1.616.352,4,4,0,0,0,3.87-5.037Z" data-color="color-2"></path><path d="M19.956,3.562a3.954,3.954,0,1,0-.27,1.994A12.521,12.521,0,0,1,28.5,17.5c0,.27-.024.533-.04.8a6.025,6.025,0,0,1,1.968.625c.046-.469.072-.943.072-1.424A14.517,14.517,0,0,0,19.956,3.562Z" fill="#212121"></path></g></svg>